<?xml version="1.0" standalone="no"?>
<!DOCTYPE svg PUBLIC "-//W3C//DTD SVG 1.1//EN" "http://www.w3.org/Graphics/SVG/1.1/DTD/svg11.dtd" >
<svg>
<metadata>
Created by FontForge 20090622 at Tue Dec 19 05:02:12 2017
 By ffonts
Copyright 2010 The Indie Flower Authors (kimberlygeswein.com)
</metadata>
<defs>
<font id="IndieFlower-Regular" horiz-adv-x="0" >
  <font-face 
    font-family="Indie Flower"
    font-weight="400"
    font-stretch="normal"
    units-per-em="1000"
    panose-1="0 0 5 0 0 0 0 0 0 0"
    ascent="800"
    descent="-200"
    x-height="395"
    cap-height="556"
    bbox="-499.026 -488 1187 1117"
    underline-thickness="50"
    underline-position="-50"
    unicode-range="U+000D-U+FB02"
  />
<missing-glyph horiz-adv-x="375" 
 />
    <glyph glyph-name="f_f" unicode="ff" horiz-adv-x="718" 
d="M626 681.5q41 -22.5 66.5 -57.5t25.5 -70q-15 -5 -24 -5q-17 0 -28 9.5t-27 30.5q-22 29 -42 44t-56 15q-55 0 -92 -50.5t-44 -118.5q-3 -31 -3 -61q0 -50 7 -93l29 -3q82 -10 154 -11q10 0 14.5 -4.5t4.5 -15.5q0 -27 -61 -27q-53 0 -133 19q11 -45 28 -82.5t44 -89.5
q19 -37 28 -57.5t9 -34.5q0 -11 -7 -15.5t-20 -4.5q-27 0 -50.5 57.5t-53.5 159.5l-18 59l-2 12q-21 0 -91 -2q-72 -2 -121 -2q16 -38 60 -131q27 -56 38 -84.5t11 -48.5q0 -11 -7 -15.5t-20 -4.5q-14 0 -28 29.5t-47 120.5q-42 114 -47 126q-22 -2 -55 -12
q-3 -1 -20.5 -5.5t-31.5 -4.5q-16 0 -16 19q0 25 26 33.5t49 10t29 2.5q-2 28 -2 50q0 95 35.5 165.5t128.5 70.5q58 0 112 -39q19 68 60 103.5t102 35.5q45 0 86 -22.5zM186 322.5q19 0.5 39 0.5q110 3 145 2q-8 64 -8 112q0 29 3 56q-23 26 -44.5 40.5t-53.5 14.5
q-64 0 -90 -41.5t-26 -112.5q0 -39 4 -71q12 -1 31 -0.5z" />
    <glyph glyph-name="f_f_i" unicode="ffi" horiz-adv-x="768" 
d="M626 681.5q41 -22.5 66.5 -57.5t25.5 -70q-15 -5 -24 -5q-17 0 -28 9.5t-27 30.5q-22 29 -42 44t-56 15q-55 0 -92 -50.5t-44 -118.5q-3 -31 -3 -61q0 -50 7 -93l29 -3q82 -10 154 -11q10 0 14 -4t5 -13v-2v0v-1v-2l-1 -34q0 -39 3.5 -63.5t11.5 -56.5q13 -46 19 -95
q2 -14 -5 -27.5t-18 -13.5q-50 0 -59 206q-1 25 -1 59q-48 -3 -144 19q11 -45 28 -82.5t44 -89.5q19 -37 28 -57.5t9 -34.5q0 -11 -7 -15.5t-20 -4.5q-27 0 -50.5 57.5t-53.5 159.5l-18 59l-2 12q-21 0 -91 -2q-72 -2 -121 -2q16 -38 60 -131q27 -56 38 -84.5t11 -48.5
q0 -11 -7 -15.5t-20 -4.5q-14 0 -28 29.5t-47 120.5q-42 114 -47 126q-22 -2 -55 -12q-3 -1 -20.5 -5.5t-31.5 -4.5q-16 0 -16 19q0 25 26 33.5t49 10t29 2.5q-2 28 -2 50q0 95 35.5 165.5t128.5 70.5q58 0 112 -39q19 68 60 103.5t102 35.5q45 0 86 -22.5zM186 322.5
q19 0.5 39 0.5q110 3 145 2q-8 64 -8 112q0 29 3 56q-23 26 -44.5 40.5t-53.5 14.5q-64 0 -90 -41.5t-26 -112.5q0 -39 4 -71q12 -1 31 -0.5zM570.5 470q-10.5 17 -10.5 42q0 11 1 16q-1 16 18 16q14 0 28.5 -6.5t8.5 -9.5q10 -26 10 -41q0 -13 -6 -20.5t-17 -13.5
q-22 0 -32.5 17z" />
    <glyph glyph-name="f_f_l" unicode="ffl" horiz-adv-x="758" 
d="M626 681.5q41 -22.5 66.5 -57.5t25.5 -70q-15 -5 -24 -5q-17 0 -28 9.5t-27 30.5q-22 29 -42 44t-56 15q-55 0 -92 -50.5t-44 -118.5q-3 -31 -3 -61q0 -50 7 -93l29 -3q82 -10 154 -11v64v138q0 13 20 13q16 0 20.5 -8t4.5 -25q0 -101 3 -175.5t9 -189.5l6 -107
q1 -16 -17 -16q-6 0 -16 2q-26 132 -29 263q-16 -6 -44 -6q-53 0 -132 19q11 -45 28 -82.5t44 -89.5q19 -37 28 -57.5t9 -34.5q0 -11 -7 -15.5t-20 -4.5q-27 0 -50.5 57.5t-53.5 159.5l-18 59l-2 12q-21 0 -91 -2q-72 -2 -121 -2q16 -38 60 -131q27 -56 38 -84.5t11 -48.5
q0 -11 -7 -15.5t-20 -4.5q-14 0 -28 29.5t-47 120.5q-42 114 -47 126q-22 -2 -55 -12q-3 -1 -20.5 -5.5t-31.5 -4.5q-16 0 -16 19q0 25 26 33.5t49 10t29 2.5q-2 28 -2 50q0 95 35.5 165.5t128.5 70.5q58 0 112 -39q19 68 60 103.5t102 35.5q45 0 86 -22.5zM186 322.5
q19 0.5 39 0.5q110 3 145 2q-8 64 -8 112q0 29 3 56q-23 26 -44.5 40.5t-53.5 14.5q-64 0 -90 -41.5t-26 -112.5q0 -39 4 -71q12 -1 31 -0.5z" />
    <glyph glyph-name="fi" unicode="fi" horiz-adv-x="644" 
d="M415.5 563q-11.5 9 -29.5 29q-26 28 -46.5 42t-52.5 14q-55 0 -92 -50.5t-44 -118.5q-3 -31 -3 -62q0 -51 7 -94q13 -2 61 -5l79 -5q11 0 41 -2l-1 27q-1 16 -1 42q0 35 5.5 48.5t18.5 13.5q11 0 17.5 -4.5t11.5 -14.5l-1 -35q0 -57 5.5 -109.5t17.5 -128.5l15 -110
q2 -14 -5 -27.5t-18 -13.5q-26 0 -41 83.5t-21 187.5q-16 -6 -44 -6q-53 0 -132 19q11 -45 28 -82.5t44 -89.5q19 -37 28 -57.5t9 -34.5q0 -11 -7 -15.5t-20 -4.5q-27 0 -50.5 57.5t-53.5 159.5l-18 59q-22 -2 -55 -12q-3 -1 -20.5 -5.5t-31.5 -4.5q-16 0 -16 19
q0 25 26 33.5t49 10t29 2.5q-2 38 -2 68q0 129 39.5 223.5t144.5 94.5q45 0 86 -22.5t66.5 -57.5t25.5 -70h-22q-15 0 -26.5 9zM295.5 508q-10.5 17 -10.5 42q0 11 1 16q-1 16 18 16q14 0 28.5 -6.5t8.5 -9.5q10 -26 10 -41q0 -13 -6 -20.5t-17 -13.5q-22 0 -32.5 17z" />
    <glyph glyph-name="fl" unicode="fl" horiz-adv-x="504" 
d="M195 597.5q-37 -50.5 -44 -118.5q-3 -31 -3 -62q0 -51 7 -94q15 -3 133 -9l44 -3q-3 47 -3 96q0 50 3 108q0 13 20 13q16 0 20.5 -8t4.5 -25q0 -155 4.5 -222.5t12.5 -128.5q10 -64 13 -123q1 -16 -17 -16q-6 0 -16 2q-30 160 -39 262q-17 -5 -40 -5q-53 0 -132 19
q11 -45 28 -82.5t44 -89.5q19 -37 28 -57.5t9 -34.5q0 -11 -7 -15.5t-20 -4.5q-27 0 -50.5 57.5t-53.5 159.5l-18 59q-22 -2 -55 -12q-3 -1 -20.5 -5.5t-31.5 -4.5q-16 0 -16 19q0 25 26 33.5t49 10t29 2.5q-2 38 -2 68q0 129 39.5 223.5t144.5 94.5q45 0 86 -22.5
t66.5 -57.5t25.5 -70h-22q-15 0 -26.5 9t-29.5 29q-26 28 -46.5 42t-52.5 14q-55 0 -92 -50.5z" />
    <glyph glyph-name=".notdef" horiz-adv-x="375" 
 />
    <glyph glyph-name="NULL" 
 />
    <glyph glyph-name="NULL" 
 />
    <glyph glyph-name="nonmarkingreturn" unicode="&#xd;" horiz-adv-x="250" 
 />
    <glyph glyph-name="space" unicode=" " horiz-adv-x="250" 
 />
    <glyph glyph-name="A" unicode="A" horiz-adv-x="616" 
d="M493.5 5q-4.5 6 -4.5 17q0 22 10 68q11 42 11 69q0 78 -12 119h-31q-41 0 -107 2l-94 1h-135l2 -39q0 -46 15 -115q5 -28 9.5 -56.5t4.5 -51.5v-9q-10 -10 -21 -10q-26 0 -41 61.5t-15 148.5q0 35 3 69q-22 1 -30 7.5t-8 20.5q0 11 6.5 15t23.5 6l-1 27l3 46
q7 113 21 184t60 123t138 52q105 0 164 -113t80 -252t21 -239q0 -36 -2 -62.5t-8 -65.5q-23 -29 -46 -29q-12 0 -16.5 6zM426 607.5q-49 105.5 -147 105.5q-73 0 -107.5 -67.5t-41.5 -144.5t-7 -173l371 -11q-19 185 -68 290.5z" />
    <glyph glyph-name="Aacute" unicode="&#xc1;" horiz-adv-x="616" 
d="M493.5 5q-4.5 6 -4.5 17q0 22 10 68q11 42 11 69q0 78 -12 119h-31q-41 0 -107 2l-94 1h-135l2 -39q0 -46 15 -115q5 -28 9.5 -56.5t4.5 -51.5v-9q-10 -10 -21 -10q-26 0 -41 61.5t-15 148.5q0 35 3 69q-22 1 -30 7.5t-8 20.5q0 11 6.5 15t23.5 6l-1 27l3 46
q7 113 21 184t60 123t138 52q105 0 164 -113t80 -252t21 -239q0 -36 -2 -62.5t-8 -65.5q-23 -29 -46 -29q-12 0 -16.5 6zM426 607.5q-49 105.5 -147 105.5q-73 0 -107.5 -67.5t-41.5 -144.5t-7 -173l371 -11q-19 185 -68 290.5zM220.5 777q-4.5 4 -4.5 19q0 20 32 49t82 66
l22 17q18 -9 18 -21t-14.5 -28t-48.5 -45q-40 -34 -67 -61q-15 0 -19.5 4z" />
    <glyph glyph-name="Abreve" unicode="&#x102;" horiz-adv-x="616" 
d="M493.5 5q-4.5 6 -4.5 17q0 22 10 68q11 42 11 69q0 78 -12 119h-31q-41 0 -107 2l-94 1h-135l2 -39q0 -46 15 -115q5 -28 9.5 -56.5t4.5 -51.5v-9q-10 -10 -21 -10q-26 0 -41 61.5t-15 148.5q0 35 3 69q-22 1 -30 7.5t-8 20.5q0 11 6.5 15t23.5 6l-1 27l3 46
q7 113 21 184t60 123t138 52q105 0 164 -113t80 -252t21 -239q0 -36 -2 -62.5t-8 -65.5q-23 -29 -46 -29q-12 0 -16.5 6zM426 607.5q-49 105.5 -147 105.5q-73 0 -107.5 -67.5t-41.5 -144.5t-7 -173l371 -11q-19 185 -68 290.5zM204 833.5q-33 22.5 -33 58.5q1 7 21 7
q8 0 14.5 -2.5t6.5 -6.5q0 -19 23 -29t55 -10q35 0 57 13.5t22 36.5q0 6 -1 9v4q0 11 15 11q14 0 22.5 -7.5t8.5 -17.5q0 -38 -39 -63.5t-89 -25.5t-83 22.5z" />
    <glyph glyph-name="uni1EAE" unicode="&#x1eae;" horiz-adv-x="616" 
d="M493.5 5q-4.5 6 -4.5 17q0 22 10 68q11 42 11 69q0 78 -12 119h-31q-41 0 -107 2l-94 1h-135l2 -39q0 -46 15 -115q5 -28 9.5 -56.5t4.5 -51.5v-9q-10 -10 -21 -10q-26 0 -41 61.5t-15 148.5q0 35 3 69q-22 1 -30 7.5t-8 20.5q0 11 6.5 15t23.5 6l-1 27l3 46
q7 113 21 184t60 123t138 52q105 0 164 -113t80 -252t21 -239q0 -36 -2 -62.5t-8 -65.5q-23 -29 -46 -29q-12 0 -16.5 6zM426 607.5q-49 105.5 -147 105.5q-73 0 -107.5 -67.5t-41.5 -144.5t-7 -173l371 -11q-19 185 -68 290.5zM258 833.5q-33 22.5 -33 58.5q1 7 21 7
q8 0 14.5 -2.5t6.5 -6.5q0 -19 23 -29t55 -10q35 0 57 13.5t22 36.5q0 6 -1 9v4q0 11 15 11q14 0 22.5 -7.5t8.5 -17.5q0 -38 -39 -63.5t-89 -25.5t-83 22.5zM261.5 959q-4.5 4 -4.5 19q0 20 32 49t82 66l22 17q18 -9 18 -21t-14.5 -28t-48.5 -45q-40 -34 -67 -61
q-15 0 -19.5 4z" />
    <glyph glyph-name="uni1EB6" unicode="&#x1eb6;" horiz-adv-x="573" 
d="M493.5 5q-4.5 6 -4.5 17q0 22 10 68q11 42 11 69q0 78 -12 119h-31q-41 0 -107 2l-94 1h-135l2 -39q0 -46 15 -115q5 -28 9.5 -56.5t4.5 -51.5v-9q-10 -10 -21 -10q-26 0 -41 61.5t-15 148.5q0 35 3 69q-22 1 -30 7.5t-8 20.5q0 11 6.5 15t23.5 6l-1 27l3 46
q7 113 21 184t60 123t138 52q105 0 164 -113t80 -252t21 -239q0 -36 -2 -62.5t-8 -65.5q-23 -29 -46 -29q-12 0 -16.5 6zM426 607.5q-49 105.5 -147 105.5q-73 0 -107.5 -67.5t-41.5 -144.5t-7 -173l371 -11q-19 185 -68 290.5zM290.5 -154q-10.5 17 -10.5 42q0 11 1 16
q-1 16 18 16q14 0 28.5 -6.5t8.5 -9.5q10 -26 10 -41q0 -13 -6 -20.5t-17 -13.5q-22 0 -32.5 17zM172 839.5q-33 22.5 -33 58.5q1 7 21 7q8 0 14.5 -2.5t6.5 -6.5q0 -19 23 -29t55 -10q35 0 57 13.5t22 36.5q0 6 -1 9v4q0 11 15 11q14 0 22.5 -7.5t8.5 -17.5
q0 -38 -39 -63.5t-89 -25.5t-83 22.5z" />
    <glyph glyph-name="uni1EB0" unicode="&#x1eb0;" horiz-adv-x="616" 
d="M493.5 5q-4.5 6 -4.5 17q0 22 10 68q11 42 11 69q0 78 -12 119h-31q-41 0 -107 2l-94 1h-135l2 -39q0 -46 15 -115q5 -28 9.5 -56.5t4.5 -51.5v-9q-10 -10 -21 -10q-26 0 -41 61.5t-15 148.5q0 35 3 69q-22 1 -30 7.5t-8 20.5q0 11 6.5 15t23.5 6l-1 27l3 46
q7 113 21 184t60 123t138 52q105 0 164 -113t80 -252t21 -239q0 -36 -2 -62.5t-8 -65.5q-23 -29 -46 -29q-12 0 -16.5 6zM426 607.5q-49 105.5 -147 105.5q-73 0 -107.5 -67.5t-41.5 -144.5t-7 -173l371 -11q-19 185 -68 290.5zM212 833.5q-33 22.5 -33 58.5q1 7 21 7
q8 0 14.5 -2.5t6.5 -6.5q0 -19 23 -29t55 -10q35 0 57 13.5t22 36.5q0 6 -1 9v4q0 11 15 11q14 0 22.5 -7.5t8.5 -17.5q0 -38 -39 -63.5t-89 -25.5t-83 22.5zM129 1012q-15 14 -20 26t0 17q7 7 15 7q17 0 47 -27q2 -2 38 -30t36 -36q0 -18 -6 -23t-22 -5q-15 0 -88 71z" />
    <glyph glyph-name="uni1EB2" unicode="&#x1eb2;" horiz-adv-x="616" 
d="M493.5 5q-4.5 6 -4.5 17q0 22 10 68q11 42 11 69q0 78 -12 119h-31q-41 0 -107 2l-94 1h-135l2 -39q0 -46 15 -115q5 -28 9.5 -56.5t4.5 -51.5v-9q-10 -10 -21 -10q-26 0 -41 61.5t-15 148.5q0 35 3 69q-22 1 -30 7.5t-8 20.5q0 11 6.5 15t23.5 6l-1 27l3 46
q7 113 21 184t60 123t138 52q105 0 164 -113t80 -252t21 -239q0 -36 -2 -62.5t-8 -65.5q-23 -29 -46 -29q-12 0 -16.5 6zM426 607.5q-49 105.5 -147 105.5q-73 0 -107.5 -67.5t-41.5 -144.5t-7 -173l371 -11q-19 185 -68 290.5zM262 833.5q-33 22.5 -33 58.5q1 7 21 7
q8 0 14.5 -2.5t6.5 -6.5q0 -19 23 -29t55 -10q35 0 57 13.5t22 36.5q0 6 -1 9v4q0 11 15 11q14 0 22.5 -7.5t8.5 -17.5q0 -38 -39 -63.5t-89 -25.5t-83 22.5zM256 936q0 6 10 16l22 21q21 18 33 31.5t12 26.5q0 20 -9 31t-39 11q-13 0 -28 -7t-22 -19q-8 1 -12.5 7.5
t-4.5 16.5q0 19 25.5 29t49.5 10q46 0 65 -22t19 -49q0 -22 -11 -36t-33 -32q-10 -7 -18.5 -15t-12.5 -16q1 -5 -3.5 -12t-15.5 -7q-8 0 -20 6q-7 3 -7 9z" />
    <glyph glyph-name="uni1EB4" unicode="&#x1eb4;" horiz-adv-x="616" 
d="M493.5 5q-4.5 6 -4.5 17q0 22 10 68q11 42 11 69q0 78 -12 119h-31q-41 0 -107 2l-94 1h-135l2 -39q0 -46 15 -115q5 -28 9.5 -56.5t4.5 -51.5v-9q-10 -10 -21 -10q-26 0 -41 61.5t-15 148.5q0 35 3 69q-22 1 -30 7.5t-8 20.5q0 11 6.5 15t23.5 6l-1 27l3 46
q7 113 21 184t60 123t138 52q105 0 164 -113t80 -252t21 -239q0 -36 -2 -62.5t-8 -65.5q-23 -29 -46 -29q-12 0 -16.5 6zM426 607.5q-49 105.5 -147 105.5q-73 0 -107.5 -67.5t-41.5 -144.5t-7 -173l371 -11q-19 185 -68 290.5zM263 833.5q-33 22.5 -33 58.5q1 7 21 7
q8 0 14.5 -2.5t6.5 -6.5q0 -19 23 -29t55 -10q35 0 57 13.5t22 36.5q0 6 -1 9v4q0 11 15 11q14 0 22.5 -7.5t8.5 -17.5q0 -38 -39 -63.5t-89 -25.5t-83 22.5zM68 971q0 34 23 57t52 23q25 0 42.5 -10.5t36.5 -28.5q11 -10 18.5 -15t14.5 -5q14 0 18.5 6.5t10.5 29.5
q1 5 7 28q29 3 25 -29t-19.5 -50t-40.5 -18q-17 0 -28 7t-26 21t-25.5 20.5t-26.5 6.5q-22 0 -32.5 -13t-10.5 -39q0 -8 2 -26v-3q0 -11 -16 -8q-15 3 -20 17q-5 17 -5 29z" />
    <glyph glyph-name="Acircumflex" unicode="&#xc2;" horiz-adv-x="563" 
d="M493.5 5q-4.5 6 -4.5 17q0 22 10 68q11 42 11 69q0 78 -12 119h-31q-41 0 -107 2l-94 1h-135l2 -39q0 -46 15 -115q5 -28 9.5 -56.5t4.5 -51.5v-9q-10 -10 -21 -10q-26 0 -41 61.5t-15 148.5q0 35 3 69q-22 1 -30 7.5t-8 20.5q0 11 6.5 15t23.5 6l-1 27l3 46
q7 113 21 184t60 123t138 52q105 0 164 -113t80 -252t21 -239q0 -36 -2 -62.5t-8 -65.5q-23 -29 -46 -29q-12 0 -16.5 6zM426 607.5q-49 105.5 -147 105.5q-73 0 -107.5 -67.5t-41.5 -144.5t-7 -173l371 -11q-19 185 -68 290.5zM340 788q-10 13 -25 41q-26 48 -53 82
q-12 -35 -34.5 -67.5t-47 -52.5t-41.5 -20q-19 0 -29 27l36 31q28 24 41 37.5t23 35t19 59.5q3 9 16 9q16 0 23.5 -5t17.5 -22q8 -14 43 -53q6 -8 17 -21t16 -20q13 -20 17 -31t4 -24q0 -11 -5.5 -15t-16.5 -4t-21 13z" />
    <glyph glyph-name="uni1EA4" unicode="&#x1ea4;" horiz-adv-x="616" 
d="M493.5 5q-4.5 6 -4.5 17q0 22 10 68q11 42 11 69q0 78 -12 119h-31q-41 0 -107 2l-94 1h-135l2 -39q0 -46 15 -115q5 -28 9.5 -56.5t4.5 -51.5v-9q-10 -10 -21 -10q-26 0 -41 61.5t-15 148.5q0 35 3 69q-22 1 -30 7.5t-8 20.5q0 11 6.5 15t23.5 6l-1 27l3 46
q7 113 21 184t60 123t138 52q105 0 164 -113t80 -252t21 -239q0 -36 -2 -62.5t-8 -65.5q-23 -29 -46 -29q-12 0 -16.5 6zM426 607.5q-49 105.5 -147 105.5q-73 0 -107.5 -67.5t-41.5 -144.5t-7 -173l371 -11q-19 185 -68 290.5zM362 788q-10 13 -25 41q-26 48 -53 82
q-12 -35 -34.5 -67.5t-47 -52.5t-41.5 -20q-19 0 -29 27l36 31q28 24 41 37.5t23 35t19 59.5q3 9 16 9q16 0 23.5 -5t17.5 -22q8 -14 43 -53q6 -8 17 -21t16 -20q13 -20 17 -31t4 -24q0 -11 -5.5 -15t-16.5 -4t-21 13zM407.5 891q-4.5 4 -4.5 19q0 20 32 49t82 66l22 17
q18 -9 18 -21t-14.5 -28t-48.5 -45q-40 -34 -67 -61q-15 0 -19.5 4z" />
    <glyph glyph-name="uni1EAC" unicode="&#x1eac;" horiz-adv-x="573" 
d="M493.5 5q-4.5 6 -4.5 17q0 22 10 68q11 42 11 69q0 78 -12 119h-31q-41 0 -107 2l-94 1h-135l2 -39q0 -46 15 -115q5 -28 9.5 -56.5t4.5 -51.5v-9q-10 -10 -21 -10q-26 0 -41 61.5t-15 148.5q0 35 3 69q-22 1 -30 7.5t-8 20.5q0 11 6.5 15t23.5 6l-1 27l3 46
q7 113 21 184t60 123t138 52q105 0 164 -113t80 -252t21 -239q0 -36 -2 -62.5t-8 -65.5q-23 -29 -46 -29q-12 0 -16.5 6zM426 607.5q-49 105.5 -147 105.5q-73 0 -107.5 -67.5t-41.5 -144.5t-7 -173l371 -11q-19 185 -68 290.5zM290.5 -154q-10.5 17 -10.5 42q0 11 1 16
q-1 16 18 16q14 0 28.5 -6.5t8.5 -9.5q10 -26 10 -41q0 -13 -6 -20.5t-17 -13.5q-22 0 -32.5 17zM328 809q-10 13 -25 41q-26 48 -53 82q-12 -35 -34.5 -67.5t-47 -52.5t-41.5 -20q-19 0 -29 27l36 31q28 24 41 37.5t23 35t19 59.5q3 9 16 9q16 0 23.5 -5t17.5 -22
q8 -14 43 -53q6 -8 17 -21t16 -20q13 -20 17 -31t4 -24q0 -11 -5.5 -15t-16.5 -4t-21 13z" />
    <glyph glyph-name="uni1EA6" unicode="&#x1ea6;" horiz-adv-x="616" 
d="M493.5 5q-4.5 6 -4.5 17q0 22 10 68q11 42 11 69q0 78 -12 119h-31q-41 0 -107 2l-94 1h-135l2 -39q0 -46 15 -115q5 -28 9.5 -56.5t4.5 -51.5v-9q-10 -10 -21 -10q-26 0 -41 61.5t-15 148.5q0 35 3 69q-22 1 -30 7.5t-8 20.5q0 11 6.5 15t23.5 6l-1 27l3 46
q7 113 21 184t60 123t138 52q105 0 164 -113t80 -252t21 -239q0 -36 -2 -62.5t-8 -65.5q-23 -29 -46 -29q-12 0 -16.5 6zM426 607.5q-49 105.5 -147 105.5q-73 0 -107.5 -67.5t-41.5 -144.5t-7 -173l371 -11q-19 185 -68 290.5zM363 788q-10 13 -25 41q-26 48 -53 82
q-12 -35 -34.5 -67.5t-47 -52.5t-41.5 -20q-19 0 -29 27l36 31q28 24 41 37.5t23 35t19 59.5q3 9 16 9q16 0 23.5 -5t17.5 -22q8 -14 43 -53q6 -8 17 -21t16 -20q13 -20 17 -31t4 -24q0 -11 -5.5 -15t-16.5 -4t-21 13zM239 1067q-15 14 -20 26t0 17q7 7 15 7q17 0 47 -27
q2 -2 38 -30t36 -36q0 -18 -6 -23t-22 -5q-15 0 -88 71z" />
    <glyph glyph-name="uni1EA8" unicode="&#x1ea8;" horiz-adv-x="616" 
d="M493.5 5q-4.5 6 -4.5 17q0 22 10 68q11 42 11 69q0 78 -12 119h-31q-41 0 -107 2l-94 1h-135l2 -39q0 -46 15 -115q5 -28 9.5 -56.5t4.5 -51.5v-9q-10 -10 -21 -10q-26 0 -41 61.5t-15 148.5q0 35 3 69q-22 1 -30 7.5t-8 20.5q0 11 6.5 15t23.5 6l-1 27l3 46
q7 113 21 184t60 123t138 52q105 0 164 -113t80 -252t21 -239q0 -36 -2 -62.5t-8 -65.5q-23 -29 -46 -29q-12 0 -16.5 6zM426 607.5q-49 105.5 -147 105.5q-73 0 -107.5 -67.5t-41.5 -144.5t-7 -173l371 -11q-19 185 -68 290.5zM374 788q-10 13 -25 41q-26 48 -53 82
q-12 -35 -34.5 -67.5t-47 -52.5t-41.5 -20q-19 0 -29 27l36 31q28 24 41 37.5t23 35t19 59.5q3 9 16 9q16 0 23.5 -5t17.5 -22q8 -14 43 -53q6 -8 17 -21t16 -20q13 -20 17 -31t4 -24q0 -11 -5.5 -15t-16.5 -4t-21 13zM395 913q0 6 10 16l22 21q21 18 33 31.5t12 26.5
q0 20 -9 31t-39 11q-13 0 -28 -7t-22 -19q-8 1 -12.5 7.5t-4.5 16.5q0 19 25.5 29t49.5 10q46 0 65 -22t19 -49q0 -22 -11 -36t-33 -32q-10 -7 -18.5 -15t-12.5 -16q1 -5 -3.5 -12t-15.5 -7q-8 0 -20 6q-7 3 -7 9z" />
    <glyph glyph-name="uni1EAA" unicode="&#x1eaa;" horiz-adv-x="616" 
d="M493.5 5q-4.5 6 -4.5 17q0 22 10 68q11 42 11 69q0 78 -12 119h-31q-41 0 -107 2l-94 1h-135l2 -39q0 -46 15 -115q5 -28 9.5 -56.5t4.5 -51.5v-9q-10 -10 -21 -10q-26 0 -41 61.5t-15 148.5q0 35 3 69q-22 1 -30 7.5t-8 20.5q0 11 6.5 15t23.5 6l-1 27l3 46
q7 113 21 184t60 123t138 52q105 0 164 -113t80 -252t21 -239q0 -36 -2 -62.5t-8 -65.5q-23 -29 -46 -29q-12 0 -16.5 6zM426 607.5q-49 105.5 -147 105.5q-73 0 -107.5 -67.5t-41.5 -144.5t-7 -173l371 -11q-19 185 -68 290.5zM371 788q-10 13 -25 41q-26 48 -53 82
q-12 -35 -34.5 -67.5t-47 -52.5t-41.5 -20q-19 0 -29 27l36 31q28 24 41 37.5t23 35t19 59.5q3 9 16 9q16 0 23.5 -5t17.5 -22q8 -14 43 -53q6 -8 17 -21t16 -20q13 -20 17 -31t4 -24q0 -11 -5.5 -15t-16.5 -4t-21 13zM58 1001q0 34 23 57t52 23q25 0 42.5 -10.5t36.5 -28.5
q11 -10 18.5 -15t14.5 -5q14 0 18.5 6.5t10.5 29.5q1 5 7 28q29 3 25 -29t-19.5 -50t-40.5 -18q-17 0 -28 7t-26 21t-25.5 20.5t-26.5 6.5q-22 0 -32.5 -13t-10.5 -39q0 -8 2 -26v-3q0 -11 -16 -8q-15 3 -20 17q-5 17 -5 29z" />
    <glyph glyph-name="uni0200" unicode="&#x200;" horiz-adv-x="616" 
d="M168 855q-14 12 -18.5 23t0.5 16q5 6 13 6q15 0 43 -24q2 -2 34 -27t32 -32q0 -17 -5.5 -21.5t-19.5 -4.5q-13 0 -79 64zM267 855q-14 12 -18.5 23t0.5 16q5 6 13 6q15 0 43 -24q2 -2 34 -27t32 -32q0 -17 -5.5 -21.5t-19.5 -4.5q-13 0 -79 64zM493.5 5q-4.5 6 -4.5 17
q0 22 10 68q11 42 11 69q0 78 -12 119h-31q-41 0 -107 2l-94 1h-135l2 -39q0 -46 15 -115q5 -28 9.5 -56.5t4.5 -51.5v-9q-10 -10 -21 -10q-26 0 -41 61.5t-15 148.5q0 35 3 69q-22 1 -30 7.5t-8 20.5q0 11 6.5 15t23.5 6l-1 27l3 46q7 113 21 184t60 123t138 52
q105 0 164 -113t80 -252t21 -239q0 -36 -2 -62.5t-8 -65.5q-23 -29 -46 -29q-12 0 -16.5 6zM426 607.5q-49 105.5 -147 105.5q-73 0 -107.5 -67.5t-41.5 -144.5t-7 -173l371 -11q-19 185 -68 290.5z" />
    <glyph glyph-name="Adieresis" unicode="&#xc4;" horiz-adv-x="616" 
d="M493.5 5q-4.5 6 -4.5 17q0 22 10 68q11 42 11 69q0 78 -12 119h-31q-41 0 -107 2l-94 1h-135l2 -39q0 -46 15 -115q5 -28 9.5 -56.5t4.5 -51.5v-9q-10 -10 -21 -10q-26 0 -41 61.5t-15 148.5q0 35 3 69q-22 1 -30 7.5t-8 20.5q0 11 6.5 15t23.5 6l-1 27l3 46
q7 113 21 184t60 123t138 52q105 0 164 -113t80 -252t21 -239q0 -36 -2 -62.5t-8 -65.5q-23 -29 -46 -29q-12 0 -16.5 6zM426 607.5q-49 105.5 -147 105.5q-73 0 -107.5 -67.5t-41.5 -144.5t-7 -173l371 -11q-19 185 -68 290.5zM178 801.5q-14 16.5 -14 30.5q0 9 16.5 29
t25.5 20q29 0 44 -17t15 -37q0 -13 -17.5 -27.5t-36.5 -14.5t-33 16.5zM334 801.5q-13 16.5 -13 30.5q0 9 16.5 29t26.5 20q27 0 42 -17t15 -37q0 -13 -17.5 -27.5t-35.5 -14.5q-21 0 -34 16.5z" />
    <glyph glyph-name="uni1EA0" unicode="&#x1ea0;" horiz-adv-x="616" 
d="M493.5 5q-4.5 6 -4.5 17q0 22 10 68q11 42 11 69q0 78 -12 119h-31q-41 0 -107 2l-94 1h-135l2 -39q0 -46 15 -115q5 -28 9.5 -56.5t4.5 -51.5v-9q-10 -10 -21 -10q-26 0 -41 61.5t-15 148.5q0 35 3 69q-22 1 -30 7.5t-8 20.5q0 11 6.5 15t23.5 6l-1 27l3 46
q7 113 21 184t60 123t138 52q105 0 164 -113t80 -252t21 -239q0 -36 -2 -62.5t-8 -65.5q-23 -29 -46 -29q-12 0 -16.5 6zM426 607.5q-49 105.5 -147 105.5q-73 0 -107.5 -67.5t-41.5 -144.5t-7 -173l371 -11q-19 185 -68 290.5zM290.5 -154q-10.5 17 -10.5 42q0 11 1 16
q-1 16 18 16q14 0 28.5 -6.5t8.5 -9.5q10 -26 10 -41q0 -13 -6 -20.5t-17 -13.5q-22 0 -32.5 17z" />
    <glyph glyph-name="Agrave" unicode="&#xc0;" horiz-adv-x="616" 
d="M493.5 5q-4.5 6 -4.5 17q0 22 10 68q11 42 11 69q0 78 -12 119h-31q-41 0 -107 2l-94 1h-135l2 -39q0 -46 15 -115q5 -28 9.5 -56.5t4.5 -51.5v-9q-10 -10 -21 -10q-26 0 -41 61.5t-15 148.5q0 35 3 69q-22 1 -30 7.5t-8 20.5q0 11 6.5 15t23.5 6l-1 27l3 46
q7 113 21 184t60 123t138 52q105 0 164 -113t80 -252t21 -239q0 -36 -2 -62.5t-8 -65.5q-23 -29 -46 -29q-12 0 -16.5 6zM426 607.5q-49 105.5 -147 105.5q-73 0 -107.5 -67.5t-41.5 -144.5t-7 -173l371 -11q-19 185 -68 290.5zM245 856q-15 14 -20 26t0 17q7 7 15 7
q17 0 47 -27q2 -2 38 -30t36 -36q0 -18 -6 -23t-22 -5q-15 0 -88 71z" />
    <glyph glyph-name="uni1EA2" unicode="&#x1ea2;" horiz-adv-x="573" 
d="M493.5 5q-4.5 6 -4.5 17q0 22 10 68q11 42 11 69q0 78 -12 119h-31q-41 0 -107 2l-94 1h-135l2 -39q0 -46 15 -115q5 -28 9.5 -56.5t4.5 -51.5v-9q-10 -10 -21 -10q-26 0 -41 61.5t-15 148.5q0 35 3 69q-22 1 -30 7.5t-8 20.5q0 11 6.5 15t23.5 6l-1 27l3 46
q7 113 21 184t60 123t138 52q105 0 164 -113t80 -252t21 -239q0 -36 -2 -62.5t-8 -65.5q-23 -29 -46 -29q-12 0 -16.5 6zM426 607.5q-49 105.5 -147 105.5q-73 0 -107.5 -67.5t-41.5 -144.5t-7 -173l371 -11q-19 185 -68 290.5zM230 823q0 6 10 16l22 21q21 18 33 31.5
t12 26.5q0 20 -9 31t-39 11q-13 0 -28 -7t-22 -19q-8 1 -12.5 7.5t-4.5 16.5q0 19 25.5 29t49.5 10q46 0 65 -22t19 -49q0 -22 -11 -36t-33 -32q-10 -7 -18.5 -15t-12.5 -16q1 -5 -3.5 -12t-15.5 -7q-8 0 -20 6q-7 3 -7 9z" />
    <glyph glyph-name="uni0202" unicode="&#x202;" horiz-adv-x="616" 
d="M493.5 5q-4.5 6 -4.5 17q0 22 10 68q11 42 11 69q0 78 -12 119h-31q-41 0 -107 2l-94 1h-135l2 -39q0 -46 15 -115q5 -28 9.5 -56.5t4.5 -51.5v-9q-10 -10 -21 -10q-26 0 -41 61.5t-15 148.5q0 35 3 69q-22 1 -30 7.5t-8 20.5q0 11 6.5 15t23.5 6l-1 27l3 46
q7 113 21 184t60 123t138 52q105 0 164 -113t80 -252t21 -239q0 -36 -2 -62.5t-8 -65.5q-23 -29 -46 -29q-12 0 -16.5 6zM426 607.5q-49 105.5 -147 105.5q-73 0 -107.5 -67.5t-41.5 -144.5t-7 -173l371 -11q-19 185 -68 290.5zM384 873.5q39 -25.5 39 -63.5q0 -10 -7.5 -17
t-20.5 -8h-3q-18 0 -15 15q1 3 1 9q0 23 -22 36.5t-57 13.5q-32 0 -55 -10t-23 -29q0 -4 -6.5 -6.5t-14.5 -2.5q-20 0 -21 7q0 36 33 58.5t83 22.5t89 -25.5z" />
    <glyph glyph-name="Amacron" unicode="&#x100;" horiz-adv-x="563" 
d="M493.5 5q-4.5 6 -4.5 17q0 22 10 68q11 42 11 69q0 78 -12 119h-31q-41 0 -107 2l-94 1h-135l2 -39q0 -46 15 -115q5 -28 9.5 -56.5t4.5 -51.5v-9q-10 -10 -21 -10q-26 0 -41 61.5t-15 148.5q0 35 3 69q-22 1 -30 7.5t-8 20.5q0 11 6.5 15t23.5 6l-1 27l3 46
q7 113 21 184t60 123t138 52q105 0 164 -113t80 -252t21 -239q0 -36 -2 -62.5t-8 -65.5q-23 -29 -46 -29q-12 0 -16.5 6zM426 607.5q-49 105.5 -147 105.5q-73 0 -107.5 -67.5t-41.5 -144.5t-7 -173l371 -11q-19 185 -68 290.5zM139 857q20 13 46.5 16.5t79.5 5.5q50 2 61 2
q31 0 41 -6.5t10 -27.5q0 -20 -18 -20t-38 5q-5 1 -18 3t-25 2q-37 0 -79 -10q-21 -5 -38 -7.5t-42 -2.5q0 27 20 40z" />
    <glyph glyph-name="Aogonek" unicode="&#x104;" horiz-adv-x="616" 
d="M588.5 -133q-4.5 -11 -12.5 -14q-36 -14 -73 -14q-48 0 -79 23.5t-31 57.5q0 36 28 66.5t68 46.5q1 14 5 32t5 24q11 42 11 70q0 78 -12 119h-31q-41 0 -107 2l-94 1h-135l2 -39q0 -46 15 -115q5 -28 9.5 -56.5t4.5 -51.5v-9q-10 -10 -21 -10q-26 0 -41 61.5t-15 148.5
q0 35 3 69q-22 1 -30 7.5t-8 20.5q0 11 6.5 15t23.5 6l-1 27l3 46q7 113 21 184t60 123t138 52q105 0 164 -113t80 -252t21 -239q0 -36 -2 -62.5t-8 -65.5q-22 -28 -45 -29q-69 -33 -69 -78q0 -20 14.5 -33.5t48.5 -13.5q32 0 86 15q2 -11 -2.5 -22zM494 317
q-19 185 -68 290.5t-147 105.5q-73 0 -107.5 -67.5t-41.5 -144.5t-7 -173z" />
    <glyph glyph-name="Aring" unicode="&#xc5;" horiz-adv-x="616" 
d="M493.5 5q-4.5 6 -4.5 17q0 22 10 68q11 42 11 69q0 78 -12 119h-31q-41 0 -107 2l-94 1h-135l2 -39q0 -46 15 -115q5 -28 9.5 -56.5t4.5 -51.5v-9q-10 -10 -21 -10q-26 0 -41 61.5t-15 148.5q0 35 3 69q-22 1 -30 7.5t-8 20.5q0 11 6.5 15t23.5 6l-1 27l3 46
q7 113 21 184t60 123t138 52q105 0 164 -113t80 -252t21 -239q0 -36 -2 -62.5t-8 -65.5q-23 -29 -46 -29q-12 0 -16.5 6zM426 607.5q-49 105.5 -147 105.5q-73 0 -107.5 -67.5t-41.5 -144.5t-7 -173l371 -11q-19 185 -68 290.5zM226 803.5q-24 22.5 -24 58.5q0 41 30 61.5
t73 20.5q37 0 58 -25t21 -53q0 -38 -28.5 -61.5t-67.5 -23.5q-38 0 -62 22.5zM331.5 832q17.5 16 17.5 37q0 16 -8.5 29t-32.5 14q-29 2 -49 -8.5t-20 -38.5q0 -23 14.5 -35t40.5 -12q20 -2 37.5 14z" />
    <glyph glyph-name="Aringacute" unicode="&#x1fa;" horiz-adv-x="616" 
d="M226 803.5q-24 22.5 -24 58.5q0 30 18 51q-4 4 -4 18q0 20 32 49t82 66l22 17q18 -9 18 -21q0 -11 -14.5 -27t-49.5 -47q-11 -9 -31 -27q15 3 30 3q37 0 58 -25t21 -53q0 -38 -28.5 -61.5t-67.5 -23.5q-38 0 -62 22.5zM256 901.5q-17 -10.5 -17 -36.5q0 -23 14.5 -35
t40.5 -12q20 -2 37.5 14t17.5 37q0 43 -50 43q-26 0 -43 -10.5zM465 647q59 -113 80 -252t21 -239q0 -36 -2 -62.5t-8 -65.5q-23 -29 -46 -29q-12 0 -16.5 6t-4.5 17q0 22 10 68q11 42 11 69q0 78 -12 119h-31q-41 0 -107 2l-94 1h-135l2 -39q0 -46 15 -115q5 -28 9.5 -56.5
t4.5 -51.5v-9q-10 -10 -21 -10q-26 0 -41 61.5t-15 148.5q0 35 3 69q-22 1 -30 7.5t-8 20.5q0 11 6.5 15t23.5 6l-1 27l3 46q7 113 21 184t60 123t138 52q105 0 164 -113zM494 317q-19 185 -68 290.5t-147 105.5q-73 0 -107.5 -67.5t-41.5 -144.5t-7 -173z" />
    <glyph glyph-name="Atilde" unicode="&#xc3;" horiz-adv-x="563" 
d="M493.5 5q-4.5 6 -4.5 17q0 22 10 68q11 42 11 69q0 78 -12 119h-31q-41 0 -107 2l-94 1h-135l2 -39q0 -46 15 -115q5 -28 9.5 -56.5t4.5 -51.5v-9q-10 -10 -21 -10q-26 0 -41 61.5t-15 148.5q0 35 3 69q-22 1 -30 7.5t-8 20.5q0 11 6.5 15t23.5 6l-1 27l3 46
q7 113 21 184t60 123t138 52q105 0 164 -113t80 -252t21 -239q0 -36 -2 -62.5t-8 -65.5q-23 -29 -46 -29q-12 0 -16.5 6zM426 607.5q-49 105.5 -147 105.5q-73 0 -107.5 -67.5t-41.5 -144.5t-7 -173l371 -11q-19 185 -68 290.5zM80 816q0 35 25.5 60t58.5 25q27 0 49 -8.5
t57 -32.5q34 -23 63 -23q25 0 43 17t27 46q12 1 18 -3.5t6 -13.5q0 -3 -2 -11q-11 -30 -24.5 -45.5t-35.5 -22.5q-17 -5 -30 -5q-20 0 -38 7.5t-47 23.5q-25 14 -42 21t-34 7q-29 0 -42 -13t-13 -40q0 -7 2 -25v-3q0 -6 -5.5 -8t-10.5 0q-15 3 -20 17q-5 13 -5 30z" />
    <glyph glyph-name="AE" unicode="&#xc6;" horiz-adv-x="1068" 
d="M1012.5 80.5q9.5 -4.5 9.5 -15.5q0 -66 -268 -66h-34q-73 0 -110 23t-45 81q-4 -44 -9 -75q-23 -29 -46 -29q-12 0 -16.5 6t-4.5 17q0 22 10 68q11 42 11 69q0 78 -12 119h-31q-41 0 -107 2l-94 1h-135l2 -39q0 -46 15 -115q5 -28 9.5 -56.5t4.5 -51.5v-9
q-10 -10 -21 -10q-26 0 -41 61.5t-15 148.5q0 35 3 69q-22 1 -30 7.5t-8 20.5q0 11 6.5 15t23.5 6l-1 27l3 46q7 113 21 184t60 123t138 52q97 0 154.5 -98.5t81.5 -226.5t28 -241l11 172v215q0 25 10 32.5t44 7.5l68 -2q128 -7 250 -7q26 0 41.5 -15t15.5 -41q0 -5 -3 -8
t-7 -2l-47 18l-313 -8q-6 0 -7 1q4 -8 4 -14v-177q46 -3 89 -3q74 0 163 7q9 1 27.5 2.5t20.5 -0.5q6 -6 9 -11t4 -14q3 -22 -66.5 -29t-185.5 -11q-39 0 -65 -2q-12 -30 -12 -96l1 -59v-65q16 -13 35 -17t62 -4q45 0 88.5 5t51.5 6q84 10 125 10q24 0 33.5 -4.5zM494 317
q-19 185 -68 290.5t-147 105.5q-73 0 -107.5 -67.5t-41.5 -144.5t-7 -173z" />
    <glyph glyph-name="AEacute" unicode="&#x1fc;" horiz-adv-x="962" 
d="M1012.5 80.5q9.5 -4.5 9.5 -15.5q0 -66 -268 -66h-34q-73 0 -110 23t-45 81q-4 -44 -9 -75q-23 -29 -46 -29q-12 0 -16.5 6t-4.5 17q0 22 10 68q11 42 11 69q0 78 -12 119h-31q-41 0 -107 2l-94 1h-135l2 -39q0 -46 15 -115q5 -28 9.5 -56.5t4.5 -51.5v-9
q-10 -10 -21 -10q-26 0 -41 61.5t-15 148.5q0 35 3 69q-22 1 -30 7.5t-8 20.5q0 11 6.5 15t23.5 6l-1 27l3 46q7 113 21 184t60 123t138 52q97 0 154.5 -98.5t81.5 -226.5t28 -241l11 172v215q0 25 10 32.5t44 7.5l68 -2q128 -7 250 -7q26 0 41.5 -15t15.5 -41q0 -5 -3 -8
t-7 -2l-47 18l-313 -8q-6 0 -7 1q4 -8 4 -14v-177q46 -3 89 -3q74 0 163 7q9 1 27.5 2.5t20.5 -0.5q6 -6 9 -11t4 -14q3 -22 -66.5 -29t-185.5 -11q-39 0 -65 -2q-12 -30 -12 -96l1 -59v-65q16 -13 35 -17t62 -4q45 0 88.5 5t51.5 6q84 10 125 10q24 0 33.5 -4.5zM494 317
q-19 185 -68 290.5t-147 105.5q-73 0 -107.5 -67.5t-41.5 -144.5t-7 -173zM454.5 712q-4.5 4 -4.5 19q0 20 32 49t82 66l22 17q18 -9 18 -21t-14.5 -28t-48.5 -45q-40 -34 -67 -61q-15 0 -19.5 4z" />
    <glyph glyph-name="B" unicode="B" horiz-adv-x="673" 
d="M153 20q-27 501 -49 606l-30 -7q-24 -5 -46 -10.5t-47 -15.5l-1 34q0 17 37 31.5t89.5 23t93.5 8.5q45 0 103.5 -16t100.5 -47.5t42 -74.5q0 -49 -37.5 -86.5t-97.5 -53.5q88 -15 164 -53.5t122 -95t46 -121.5q0 -75 -58 -109t-136 -34q-191 0 -296 21zM537 72.5
q40 16.5 40 71.5q0 58 -34.5 97.5t-81 62t-115.5 47.5q-55 19 -81.5 33.5t-26.5 32.5q0 13 13 20t46 20q45 15 70.5 32.5t25.5 49.5q0 47 -57 72.5t-128 25.5q-20 0 -48 -4q26 -168 36 -282.5t14 -265.5q14 -14 71 -21t142 -8q74 0 114 16.5z" />
    <glyph glyph-name="C" unicode="C" horiz-adv-x="549" 
d="M150 27q-49 38 -74.5 104t-25.5 150q0 94 44 178.5t115.5 136t148.5 51.5q65 0 100 -29t35 -68q0 -23 -13.5 -42t-38.5 -29q-3 6 -3 19q0 12 3 24q2 16 2 23q0 10 -3 17q-14 35 -76 35q-17 0 -40 -3q-53 -7 -105 -52.5t-85 -113.5t-33 -139q0 -62 20.5 -117.5t59.5 -89.5
t93 -34q70 0 116.5 17t91.5 52q5 4 11 4q11 0 15 -13q5 -24 -32 -52t-96 -47.5t-112 -19.5q-69 0 -118 38z" />
    <glyph glyph-name="Cacute" unicode="&#x106;" horiz-adv-x="549" 
d="M150 27q-49 38 -74.5 104t-25.5 150q0 94 44 178.5t115.5 136t148.5 51.5q65 0 100 -29t35 -68q0 -23 -13.5 -42t-38.5 -29q-3 6 -3 19q0 12 3 24q2 16 2 23q0 10 -3 17q-14 35 -76 35q-17 0 -40 -3q-53 -7 -105 -52.5t-85 -113.5t-33 -139q0 -62 20.5 -117.5t59.5 -89.5
t93 -34q70 0 116.5 17t91.5 52q5 4 11 4q11 0 15 -13q5 -24 -32 -52t-96 -47.5t-112 -19.5q-69 0 -118 38zM283.5 710q-4.5 4 -4.5 19q0 20 32 49t82 66l22 17q18 -9 18 -21t-14.5 -28t-48.5 -45q-40 -34 -67 -61q-15 0 -19.5 4z" />
    <glyph glyph-name="Ccaron" unicode="&#x10c;" horiz-adv-x="549" 
d="M150 27q-49 38 -74.5 104t-25.5 150q0 94 44 178.5t115.5 136t148.5 51.5q65 0 100 -29t35 -68q0 -23 -13.5 -42t-38.5 -29q-3 6 -3 19q0 12 3 24q2 16 2 23q0 10 -3 17q-14 35 -76 35q-17 0 -40 -3q-53 -7 -105 -52.5t-85 -113.5t-33 -139q0 -62 20.5 -117.5t59.5 -89.5
t93 -34q70 0 116.5 17t91.5 52q5 4 11 4q11 0 15 -13q5 -24 -32 -52t-96 -47.5t-112 -19.5q-69 0 -118 38zM340 712q-13 31 -28.5 43.5t-53.5 31.5q-30 15 -37 19q11 21 33 21q25 0 57.5 -20.5t59.5 -50.5q11 8 33 26q26 22 42 32.5t25 10.5q12 0 15.5 -4t3.5 -13t-2 -13
t-7.5 -9t-9.5 -9q-6 -6 -19.5 -15t-18.5 -12q-28 -18 -37 -27q-10 -9 -17 -12.5t-21 -3.5t-18 5z" />
    <glyph glyph-name="Ccedilla" unicode="&#xc7;" horiz-adv-x="549" 
d="M484 62q-29 -25 -77.5 -44.5t-97.5 -25.5q7 -8 7 -26q0 -37 17 -55.5t55 -30.5q44 -16 67 -32.5t23 -51.5q0 -29 -17.5 -53t-43.5 -37t-52 -13q-88 0 -138 96q6 6 15 10t18 4q12 0 19.5 -7.5t17.5 -22.5q12 -22 26.5 -34t42.5 -12q26 0 42.5 15.5t16.5 41.5
q0 29 -12.5 41t-30 18.5t-24.5 9.5q-39 14 -62.5 42t-23.5 84q0 7 1 10h-5q-69 0 -118 38t-74.5 104t-25.5 150q0 94 44 178.5t115.5 136t148.5 51.5q65 0 100 -29t35 -68q0 -23 -13.5 -42t-38.5 -29q-3 6 -3 19q0 12 3 24q2 16 2 23q0 10 -3 17q-14 35 -76 35q-17 0 -40 -3
q-53 -7 -105 -52.5t-85 -113.5t-33 -139q0 -62 20.5 -117.5t59.5 -89.5t93 -34q70 0 116.5 17t91.5 52q5 4 11 4q11 0 15 -13q5 -21 -24 -46z" />
    <glyph glyph-name="Ccircumflex" unicode="&#x108;" horiz-adv-x="549" 
d="M150 27q-49 38 -74.5 104t-25.5 150q0 94 44 178.5t115.5 136t148.5 51.5q65 0 100 -29t35 -68q0 -23 -13.5 -42t-38.5 -29q-3 6 -3 19q0 12 3 24q2 16 2 23q0 10 -3 17q-14 35 -76 35q-17 0 -40 -3q-53 -7 -105 -52.5t-85 -113.5t-33 -139q0 -62 20.5 -117.5t59.5 -89.5
t93 -34q70 0 116.5 17t91.5 52q5 4 11 4q11 0 15 -13q5 -24 -32 -52t-96 -47.5t-112 -19.5q-69 0 -118 38zM450 721q-10 13 -25 41q-26 48 -53 82q-12 -35 -34.5 -67.5t-47 -52.5t-41.5 -20q-19 0 -29 27l36 31q28 24 41 37.5t23 35t19 59.5q3 9 16 9q16 0 23.5 -5t17.5 -22
q8 -14 43 -53q6 -8 17 -21t16 -20q13 -20 17 -31t4 -24q0 -11 -5.5 -15t-16.5 -4t-21 13z" />
    <glyph glyph-name="Cdotaccent" unicode="&#x10a;" horiz-adv-x="549" 
d="M150 27q-49 38 -74.5 104t-25.5 150q0 94 44 178.5t115.5 136t148.5 51.5q65 0 100 -29t35 -68q0 -23 -13.5 -42t-38.5 -29q-3 6 -3 19q0 12 3 24q2 16 2 23q0 10 -3 17q-14 35 -76 35q-17 0 -40 -3q-53 -7 -105 -52.5t-85 -113.5t-33 -139q0 -62 20.5 -117.5t59.5 -89.5
t93 -34q70 0 116.5 17t91.5 52q5 4 11 4q11 0 15 -13q5 -24 -32 -52t-96 -47.5t-112 -19.5q-69 0 -118 38zM333.5 748q-10.5 17 -10.5 42q0 11 1 16q-1 16 18 16q14 0 28.5 -6.5t8.5 -9.5q10 -26 10 -41q0 -13 -6 -20.5t-17 -13.5q-22 0 -32.5 17z" />
    <glyph glyph-name="D" unicode="D" horiz-adv-x="734" 
d="M206.5 78.5q2.5 6.5 12.5 6.5q9 0 20.5 -4t22.5 -9q28 -12 50.5 -18t56.5 -6q124 0 186.5 59t62.5 154q0 85 -48 149.5t-121.5 101.5t-149.5 44l57 -423q0 -17 -4.5 -28t-20.5 -11q-4 -2 -15 54t-30 165q-22 127 -34 188.5t-19 70.5q-83 0 -136 -8.5t-81 -19.5t-23 -11
q-5 2 -7 6.5t-3.5 13.5t-2.5 13q0 24 43 38t90.5 19t63.5 5q107 0 223 -43.5t195 -127.5t79 -199q0 -86 -43 -146.5t-112.5 -91.5t-148.5 -31q-64 0 -115 20t-51 51q0 12 2.5 18.5z" />
    <glyph glyph-name="Eth" unicode="&#xd0;" horiz-adv-x="734" 
d="M400 584.5q116 -43.5 195 -127.5t79 -199q0 -86 -43 -146.5t-112.5 -91.5t-148.5 -31q-64 0 -115 20t-51 51q0 12 2.5 18.5t12.5 6.5q9 0 20.5 -4t22.5 -9q28 -12 50.5 -18t56.5 -6q124 0 186.5 59t62.5 154q0 85 -48 149.5t-121.5 101.5t-149.5 44l26 -196q36 4 55 5
q11 1 31 1q40 0 61 -8t21 -19q0 -20 -19 -20q-15 0 -32 5q-24 6 -48 6q-22 0 -64 -6l26 -191q0 -17 -4.5 -28t-20.5 -11q-4 -2 -17.5 67.5t-27.5 153.5q-7 -1 -31.5 -6.5t-45.5 -8t-39 -2.5q0 39 109 56q-19 106 -29.5 158.5t-16.5 59.5q-83 0 -136 -8.5t-81 -19.5t-23 -11
q-5 2 -7 6.5t-3.5 13.5t-2.5 13q0 24 43 38t90.5 19t63.5 5q107 0 223 -43.5z" />
    <glyph glyph-name="Dcaron" unicode="&#x10e;" horiz-adv-x="734" 
d="M206.5 78.5q2.5 6.5 12.5 6.5q9 0 20.5 -4t22.5 -9q28 -12 50.5 -18t56.5 -6q124 0 186.5 59t62.5 154q0 85 -48 149.5t-121.5 101.5t-149.5 44l57 -423q0 -17 -4.5 -28t-20.5 -11q-4 -2 -15 54t-30 165q-22 127 -34 188.5t-19 70.5q-83 0 -136 -8.5t-81 -19.5t-23 -11
q-5 2 -7 6.5t-3.5 13.5t-2.5 13q0 24 43 38t90.5 19t63.5 5q107 0 223 -43.5t195 -127.5t79 -199q0 -86 -43 -146.5t-112.5 -91.5t-148.5 -31q-64 0 -115 20t-51 51q0 12 2.5 18.5zM316 679q-13 31 -28.5 43.5t-53.5 31.5q-30 15 -37 19q11 21 33 21q25 0 57.5 -20.5
t59.5 -50.5q11 8 33 26q26 22 42 32.5t25 10.5q12 0 15.5 -4t3.5 -13t-2 -13t-7.5 -9t-9.5 -9q-6 -6 -19.5 -15t-18.5 -12q-28 -18 -37 -27q-10 -9 -17 -12.5t-21 -3.5t-18 5z" />
    <glyph glyph-name="Dcroat" unicode="&#x110;" horiz-adv-x="734" 
d="M400 584.5q116 -43.5 195 -127.5t79 -199q0 -86 -43 -146.5t-112.5 -91.5t-148.5 -31q-64 0 -115 20t-51 51q0 12 2.5 18.5t12.5 6.5q9 0 20.5 -4t22.5 -9q28 -12 50.5 -18t56.5 -6q124 0 186.5 59t62.5 154q0 85 -48 149.5t-121.5 101.5t-149.5 44l26 -196q36 4 55 5
q11 1 31 1q40 0 61 -8t21 -19q0 -20 -19 -20q-15 0 -32 5q-24 6 -48 6q-22 0 -64 -6l26 -191q0 -17 -4.5 -28t-20.5 -11q-4 -2 -17.5 67.5t-27.5 153.5q-7 -1 -31.5 -6.5t-45.5 -8t-39 -2.5q0 39 109 56q-19 106 -29.5 158.5t-16.5 59.5q-83 0 -136 -8.5t-81 -19.5t-23 -11
q-5 2 -7 6.5t-3.5 13.5t-2.5 13q0 24 43 38t90.5 19t63.5 5q107 0 223 -43.5z" />
    <glyph glyph-name="E" unicode="E" horiz-adv-x="606" 
d="M137.5 30q-37.5 31 -37.5 112l14 224v215q0 25 10 32.5t44 7.5l68 -2q128 -7 250 -7q26 0 41.5 -15t15.5 -41q0 -5 -3 -8t-7 -2l-47 18l-313 -8q-6 0 -7 1q4 -8 4 -14v-177q46 -3 89 -3q74 0 163 7q9 1 27.5 2.5t20.5 -0.5q6 -6 9 -11t4 -14q3 -22 -66.5 -29t-185.5 -11
q-39 0 -65 -2q-12 -30 -12 -96l1 -59v-65q16 -13 35 -17t62 -4q45 0 88.5 5t51.5 6q84 10 125 10q24 0 33.5 -4.5t9.5 -15.5q0 -66 -268 -66h-34q-83 0 -120.5 31z" />
    <glyph glyph-name="Eacute" unicode="&#xc9;" horiz-adv-x="606" 
d="M137.5 30q-37.5 31 -37.5 112l14 224v215q0 25 10 32.5t44 7.5l68 -2q128 -7 250 -7q26 0 41.5 -15t15.5 -41q0 -5 -3 -8t-7 -2l-47 18l-313 -8q-6 0 -7 1q4 -8 4 -14v-177q46 -3 89 -3q74 0 163 7q9 1 27.5 2.5t20.5 -0.5q6 -6 9 -11t4 -14q3 -22 -66.5 -29t-185.5 -11
q-39 0 -65 -2q-12 -30 -12 -96l1 -59v-65q16 -13 35 -17t62 -4q45 0 88.5 5t51.5 6q84 10 125 10q24 0 33.5 -4.5t9.5 -15.5q0 -66 -268 -66h-34q-83 0 -120.5 31zM271.5 677q-4.5 4 -4.5 19q0 20 32 49t82 66l22 17q18 -9 18 -21t-14.5 -28t-48.5 -45q-40 -34 -67 -61
q-15 0 -19.5 4z" />
    <glyph glyph-name="Ebreve" unicode="&#x114;" horiz-adv-x="606" 
d="M137.5 30q-37.5 31 -37.5 112l14 224v215q0 25 10 32.5t44 7.5l68 -2q128 -7 250 -7q26 0 41.5 -15t15.5 -41q0 -5 -3 -8t-7 -2l-47 18l-313 -8q-6 0 -7 1q4 -8 4 -14v-177q46 -3 89 -3q74 0 163 7q9 1 27.5 2.5t20.5 -0.5q6 -6 9 -11t4 -14q3 -22 -66.5 -29t-185.5 -11
q-39 0 -65 -2q-12 -30 -12 -96l1 -59v-65q16 -13 35 -17t62 -4q45 0 88.5 5t51.5 6q84 10 125 10q24 0 33.5 -4.5t9.5 -15.5q0 -66 -268 -66h-34q-83 0 -120.5 31zM255 733.5q-33 22.5 -33 58.5q1 7 21 7q8 0 14.5 -2.5t6.5 -6.5q0 -19 23 -29t55 -10q35 0 57 13.5t22 36.5
q0 6 -1 9v4q0 11 15 11q14 0 22.5 -7.5t8.5 -17.5q0 -38 -39 -63.5t-89 -25.5t-83 22.5z" />
    <glyph glyph-name="Ecaron" unicode="&#x11a;" horiz-adv-x="606" 
d="M137.5 30q-37.5 31 -37.5 112l14 224v215q0 25 10 32.5t44 7.5l68 -2q128 -7 250 -7q26 0 41.5 -15t15.5 -41q0 -5 -3 -8t-7 -2l-47 18l-313 -8q-6 0 -7 1q4 -8 4 -14v-177q46 -3 89 -3q74 0 163 7q9 1 27.5 2.5t20.5 -0.5q6 -6 9 -11t4 -14q3 -22 -66.5 -29t-185.5 -11
q-39 0 -65 -2q-12 -30 -12 -96l1 -59v-65q16 -13 35 -17t62 -4q45 0 88.5 5t51.5 6q84 10 125 10q24 0 33.5 -4.5t9.5 -15.5q0 -66 -268 -66h-34q-83 0 -120.5 31zM328 679q-13 31 -28.5 43.5t-53.5 31.5q-30 15 -37 19q11 21 33 21q25 0 57.5 -20.5t59.5 -50.5q11 8 33 26
q26 22 42 32.5t25 10.5q12 0 15.5 -4t3.5 -13t-2 -13t-7.5 -9t-9.5 -9q-6 -6 -19.5 -15t-18.5 -12q-28 -18 -37 -27q-10 -9 -17 -12.5t-21 -3.5t-18 5z" />
    <glyph glyph-name="Ecircumflex" unicode="&#xca;" horiz-adv-x="606" 
d="M137.5 30q-37.5 31 -37.5 112l14 224v215q0 25 10 32.5t44 7.5l68 -2q128 -7 250 -7q26 0 41.5 -15t15.5 -41q0 -5 -3 -8t-7 -2l-47 18l-313 -8q-6 0 -7 1q4 -8 4 -14v-177q46 -3 89 -3q74 0 163 7q9 1 27.5 2.5t20.5 -0.5q6 -6 9 -11t4 -14q3 -22 -66.5 -29t-185.5 -11
q-39 0 -65 -2q-12 -30 -12 -96l1 -59v-65q16 -13 35 -17t62 -4q45 0 88.5 5t51.5 6q84 10 125 10q24 0 33.5 -4.5t9.5 -15.5q0 -66 -268 -66h-34q-83 0 -120.5 31zM438 688q-10 13 -25 41q-26 48 -53 82q-12 -35 -34.5 -67.5t-47 -52.5t-41.5 -20q-19 0 -29 27l36 31
q28 24 41 37.5t23 35t19 59.5q3 9 16 9q16 0 23.5 -5t17.5 -22q8 -14 43 -53q6 -8 17 -21t16 -20q13 -20 17 -31t4 -24q0 -11 -5.5 -15t-16.5 -4t-21 13z" />
    <glyph glyph-name="uni1EBE" unicode="&#x1ebe;" horiz-adv-x="606" 
d="M137.5 30q-37.5 31 -37.5 112l14 224v215q0 25 10 32.5t44 7.5l68 -2q128 -7 250 -7q26 0 41.5 -15t15.5 -41q0 -5 -3 -8t-7 -2l-47 18l-313 -8q-6 0 -7 1q4 -8 4 -14v-177q46 -3 89 -3q74 0 163 7q9 1 27.5 2.5t20.5 -0.5q6 -6 9 -11t4 -14q3 -22 -66.5 -29t-185.5 -11
q-39 0 -65 -2q-12 -30 -12 -96l1 -59v-65q16 -13 35 -17t62 -4q45 0 88.5 5t51.5 6q84 10 125 10q24 0 33.5 -4.5t9.5 -15.5q0 -66 -268 -66h-34q-83 0 -120.5 31zM413 688q-10 13 -25 41q-26 48 -53 82q-12 -35 -34.5 -67.5t-47 -52.5t-41.5 -20q-19 0 -29 27l36 31
q28 24 41 37.5t23 35t19 59.5q3 9 16 9q16 0 23.5 -5t17.5 -22q8 -14 43 -53q6 -8 17 -21t16 -20q13 -20 17 -31t4 -24q0 -11 -5.5 -15t-16.5 -4t-21 13zM458.5 791q-4.5 4 -4.5 19q0 20 32 49t82 66l22 17q18 -9 18 -21t-14.5 -28t-48.5 -45q-40 -34 -67 -61q-15 0 -19.5 4
z" />
    <glyph glyph-name="uni1EC6" unicode="&#x1ec6;" horiz-adv-x="525" 
d="M137.5 30q-37.5 31 -37.5 112l14 224v215q0 25 10 32.5t44 7.5l68 -2q128 -7 250 -7q26 0 41.5 -15t15.5 -41q0 -5 -3 -8t-7 -2l-47 18l-313 -8q-6 0 -7 1q4 -8 4 -14v-177q46 -3 89 -3q74 0 163 7q9 1 27.5 2.5t20.5 -0.5q6 -6 9 -11t4 -14q3 -22 -66.5 -29t-185.5 -11
q-39 0 -65 -2q-12 -30 -12 -96l1 -59v-65q16 -13 35 -17t62 -4q45 0 88.5 5t51.5 6q84 10 125 10q24 0 33.5 -4.5t9.5 -15.5q0 -66 -268 -66h-34q-83 0 -120.5 31zM321.5 -154q-10.5 17 -10.5 42q0 11 1 16q-1 16 18 16q14 0 28.5 -6.5t8.5 -9.5q10 -26 10 -41
q0 -13 -6 -20.5t-17 -13.5q-22 0 -32.5 17zM319 685q-10 13 -25 41q-26 48 -53 82q-12 -35 -34.5 -67.5t-47 -52.5t-41.5 -20q-19 0 -29 27l36 31q28 24 41 37.5t23 35t19 59.5q3 9 16 9q16 0 23.5 -5t17.5 -22q8 -14 43 -53q6 -8 17 -21t16 -20q13 -20 17 -31t4 -24
q0 -11 -5.5 -15t-16.5 -4t-21 13z" />
    <glyph glyph-name="uni1EC0" unicode="&#x1ec0;" horiz-adv-x="606" 
d="M137.5 30q-37.5 31 -37.5 112l14 224v215q0 25 10 32.5t44 7.5l68 -2q128 -7 250 -7q26 0 41.5 -15t15.5 -41q0 -5 -3 -8t-7 -2l-47 18l-313 -8q-6 0 -7 1q4 -8 4 -14v-177q46 -3 89 -3q74 0 163 7q9 1 27.5 2.5t20.5 -0.5q6 -6 9 -11t4 -14q3 -22 -66.5 -29t-185.5 -11
q-39 0 -65 -2q-12 -30 -12 -96l1 -59v-65q16 -13 35 -17t62 -4q45 0 88.5 5t51.5 6q84 10 125 10q24 0 33.5 -4.5t9.5 -15.5q0 -66 -268 -66h-34q-83 0 -120.5 31zM414 688q-10 13 -25 41q-26 48 -53 82q-12 -35 -34.5 -67.5t-47 -52.5t-41.5 -20q-19 0 -29 27l36 31
q28 24 41 37.5t23 35t19 59.5q3 9 16 9q16 0 23.5 -5t17.5 -22q8 -14 43 -53q6 -8 17 -21t16 -20q13 -20 17 -31t4 -24q0 -11 -5.5 -15t-16.5 -4t-21 13zM290 967q-15 14 -20 26t0 17q7 7 15 7q17 0 47 -27q2 -2 38 -30t36 -36q0 -18 -6 -23t-22 -5q-15 0 -88 71z" />
    <glyph glyph-name="uni1EC2" unicode="&#x1ec2;" horiz-adv-x="606" 
d="M137.5 30q-37.5 31 -37.5 112l14 224v215q0 25 10 32.5t44 7.5l68 -2q128 -7 250 -7q26 0 41.5 -15t15.5 -41q0 -5 -3 -8t-7 -2l-47 18l-313 -8q-6 0 -7 1q4 -8 4 -14v-177q46 -3 89 -3q74 0 163 7q9 1 27.5 2.5t20.5 -0.5q6 -6 9 -11t4 -14q3 -22 -66.5 -29t-185.5 -11
q-39 0 -65 -2q-12 -30 -12 -96l1 -59v-65q16 -13 35 -17t62 -4q45 0 88.5 5t51.5 6q84 10 125 10q24 0 33.5 -4.5t9.5 -15.5q0 -66 -268 -66h-34q-83 0 -120.5 31zM425 688q-10 13 -25 41q-26 48 -53 82q-12 -35 -34.5 -67.5t-47 -52.5t-41.5 -20q-19 0 -29 27l36 31
q28 24 41 37.5t23 35t19 59.5q3 9 16 9q16 0 23.5 -5t17.5 -22q8 -14 43 -53q6 -8 17 -21t16 -20q13 -20 17 -31t4 -24q0 -11 -5.5 -15t-16.5 -4t-21 13zM446 813q0 6 10 16l22 21q21 18 33 31.5t12 26.5q0 20 -9 31t-39 11q-13 0 -28 -7t-22 -19q-8 1 -12.5 7.5t-4.5 16.5
q0 19 25.5 29t49.5 10q46 0 65 -22t19 -49q0 -22 -11 -36t-33 -32q-10 -7 -18.5 -15t-12.5 -16q1 -5 -3.5 -12t-15.5 -7q-8 0 -20 6q-7 3 -7 9z" />
    <glyph glyph-name="uni1EC4" unicode="&#x1ec4;" horiz-adv-x="606" 
d="M137.5 30q-37.5 31 -37.5 112l14 224v215q0 25 10 32.5t44 7.5l68 -2q128 -7 250 -7q26 0 41.5 -15t15.5 -41q0 -5 -3 -8t-7 -2l-47 18l-313 -8q-6 0 -7 1q4 -8 4 -14v-177q46 -3 89 -3q74 0 163 7q9 1 27.5 2.5t20.5 -0.5q6 -6 9 -11t4 -14q3 -22 -66.5 -29t-185.5 -11
q-39 0 -65 -2q-12 -30 -12 -96l1 -59v-65q16 -13 35 -17t62 -4q45 0 88.5 5t51.5 6q84 10 125 10q24 0 33.5 -4.5t9.5 -15.5q0 -66 -268 -66h-34q-83 0 -120.5 31zM422 688q-10 13 -25 41q-26 48 -53 82q-12 -35 -34.5 -67.5t-47 -52.5t-41.5 -20q-19 0 -29 27l36 31
q28 24 41 37.5t23 35t19 59.5q3 9 16 9q16 0 23.5 -5t17.5 -22q8 -14 43 -53q6 -8 17 -21t16 -20q13 -20 17 -31t4 -24q0 -11 -5.5 -15t-16.5 -4t-21 13zM109 901q0 34 23 57t52 23q25 0 42.5 -10.5t36.5 -28.5q11 -10 18.5 -15t14.5 -5q14 0 18.5 6.5t10.5 29.5q1 5 7 28
q29 3 25 -29t-19.5 -50t-40.5 -18q-17 0 -28 7t-26 21t-25.5 20.5t-26.5 6.5q-22 0 -32.5 -13t-10.5 -39q0 -8 2 -26v-3q0 -11 -16 -8q-15 3 -20 17q-5 17 -5 29z" />
    <glyph glyph-name="uni0204" unicode="&#x204;" horiz-adv-x="606" 
d="M219 755q-14 12 -18.5 23t0.5 16q5 6 13 6q15 0 43 -24q2 -2 34 -27t32 -32q0 -17 -5.5 -21.5t-19.5 -4.5q-13 0 -79 64zM318 755q-14 12 -18.5 23t0.5 16q5 6 13 6q15 0 43 -24q2 -2 34 -27t32 -32q0 -17 -5.5 -21.5t-19.5 -4.5q-13 0 -79 64zM137.5 30
q-37.5 31 -37.5 112l14 224v215q0 25 10 32.5t44 7.5l68 -2q128 -7 250 -7q26 0 41.5 -15t15.5 -41q0 -5 -3 -8t-7 -2l-47 18l-313 -8q-6 0 -7 1q4 -8 4 -14v-177q46 -3 89 -3q74 0 163 7q9 1 27.5 2.5t20.5 -0.5q6 -6 9 -11t4 -14q3 -22 -66.5 -29t-185.5 -11q-39 0 -65 -2
q-12 -30 -12 -96l1 -59v-65q16 -13 35 -17t62 -4q45 0 88.5 5t51.5 6q84 10 125 10q24 0 33.5 -4.5t9.5 -15.5q0 -66 -268 -66h-34q-83 0 -120.5 31z" />
    <glyph glyph-name="Edieresis" unicode="&#xcb;" horiz-adv-x="606" 
d="M137.5 30q-37.5 31 -37.5 112l14 224v215q0 25 10 32.5t44 7.5l68 -2q128 -7 250 -7q26 0 41.5 -15t15.5 -41q0 -5 -3 -8t-7 -2l-47 18l-313 -8q-6 0 -7 1q4 -8 4 -14v-177q46 -3 89 -3q74 0 163 7q9 1 27.5 2.5t20.5 -0.5q6 -6 9 -11t4 -14q3 -22 -66.5 -29t-185.5 -11
q-39 0 -65 -2q-12 -30 -12 -96l1 -59v-65q16 -13 35 -17t62 -4q45 0 88.5 5t51.5 6q84 10 125 10q24 0 33.5 -4.5t9.5 -15.5q0 -66 -268 -66h-34q-83 0 -120.5 31zM229 701.5q-14 16.5 -14 30.5q0 9 16.5 29t25.5 20q29 0 44 -17t15 -37q0 -13 -17.5 -27.5t-36.5 -14.5
t-33 16.5zM385 701.5q-13 16.5 -13 30.5q0 9 16.5 29t26.5 20q27 0 42 -17t15 -37q0 -13 -17.5 -27.5t-35.5 -14.5q-21 0 -34 16.5z" />
    <glyph glyph-name="Edotaccent" unicode="&#x116;" horiz-adv-x="606" 
d="M137.5 30q-37.5 31 -37.5 112l14 224v215q0 25 10 32.5t44 7.5l68 -2q128 -7 250 -7q26 0 41.5 -15t15.5 -41q0 -5 -3 -8t-7 -2l-47 18l-313 -8q-6 0 -7 1q4 -8 4 -14v-177q46 -3 89 -3q74 0 163 7q9 1 27.5 2.5t20.5 -0.5q6 -6 9 -11t4 -14q3 -22 -66.5 -29t-185.5 -11
q-39 0 -65 -2q-12 -30 -12 -96l1 -59v-65q16 -13 35 -17t62 -4q45 0 88.5 5t51.5 6q84 10 125 10q24 0 33.5 -4.5t9.5 -15.5q0 -66 -268 -66h-34q-83 0 -120.5 31zM321.5 715q-10.5 17 -10.5 42q0 11 1 16q-1 16 18 16q14 0 28.5 -6.5t8.5 -9.5q10 -26 10 -41
q0 -13 -6 -20.5t-17 -13.5q-22 0 -32.5 17z" />
    <glyph glyph-name="uni1EB8" unicode="&#x1eb8;" horiz-adv-x="606" 
d="M137.5 30q-37.5 31 -37.5 112l14 224v215q0 25 10 32.5t44 7.5l68 -2q128 -7 250 -7q26 0 41.5 -15t15.5 -41q0 -5 -3 -8t-7 -2l-47 18l-313 -8q-6 0 -7 1q4 -8 4 -14v-177q46 -3 89 -3q74 0 163 7q9 1 27.5 2.5t20.5 -0.5q6 -6 9 -11t4 -14q3 -22 -66.5 -29t-185.5 -11
q-39 0 -65 -2q-12 -30 -12 -96l1 -59v-65q16 -13 35 -17t62 -4q45 0 88.5 5t51.5 6q84 10 125 10q24 0 33.5 -4.5t9.5 -15.5q0 -66 -268 -66h-34q-83 0 -120.5 31zM321.5 -154q-10.5 17 -10.5 42q0 11 1 16q-1 16 18 16q14 0 28.5 -6.5t8.5 -9.5q10 -26 10 -41
q0 -13 -6 -20.5t-17 -13.5q-22 0 -32.5 17z" />
    <glyph glyph-name="Egrave" unicode="&#xc8;" horiz-adv-x="606" 
d="M137.5 30q-37.5 31 -37.5 112l14 224v215q0 25 10 32.5t44 7.5l68 -2q128 -7 250 -7q26 0 41.5 -15t15.5 -41q0 -5 -3 -8t-7 -2l-47 18l-313 -8q-6 0 -7 1q4 -8 4 -14v-177q46 -3 89 -3q74 0 163 7q9 1 27.5 2.5t20.5 -0.5q6 -6 9 -11t4 -14q3 -22 -66.5 -29t-185.5 -11
q-39 0 -65 -2q-12 -30 -12 -96l1 -59v-65q16 -13 35 -17t62 -4q45 0 88.5 5t51.5 6q84 10 125 10q24 0 33.5 -4.5t9.5 -15.5q0 -66 -268 -66h-34q-83 0 -120.5 31zM296 756q-15 14 -20 26t0 17q7 7 15 7q17 0 47 -27q2 -2 38 -30t36 -36q0 -18 -6 -23t-22 -5q-15 0 -88 71z
" />
    <glyph glyph-name="uni1EBA" unicode="&#x1eba;" horiz-adv-x="606" 
d="M137.5 30q-37.5 31 -37.5 112l14 224v215q0 25 10 32.5t44 7.5l68 -2q128 -7 250 -7q26 0 41.5 -15t15.5 -41q0 -5 -3 -8t-7 -2l-47 18l-313 -8q-6 0 -7 1q4 -8 4 -14v-177q46 -3 89 -3q74 0 163 7q9 1 27.5 2.5t20.5 -0.5q6 -6 9 -11t4 -14q3 -22 -66.5 -29t-185.5 -11
q-39 0 -65 -2q-12 -30 -12 -96l1 -59v-65q16 -13 35 -17t62 -4q45 0 88.5 5t51.5 6q84 10 125 10q24 0 33.5 -4.5t9.5 -15.5q0 -66 -268 -66h-34q-83 0 -120.5 31zM328 658q0 6 10 16l22 21q21 18 33 31.5t12 26.5q0 20 -9 31t-39 11q-13 0 -28 -7t-22 -19q-8 1 -12.5 7.5
t-4.5 16.5q0 19 25.5 29t49.5 10q46 0 65 -22t19 -49q0 -22 -11 -36t-33 -32q-10 -7 -18.5 -15t-12.5 -16q1 -5 -3.5 -12t-15.5 -7q-8 0 -20 6q-7 3 -7 9z" />
    <glyph glyph-name="uni0206" unicode="&#x206;" horiz-adv-x="606" 
d="M137.5 30q-37.5 31 -37.5 112l14 224v215q0 25 10 32.5t44 7.5l68 -2q128 -7 250 -7q26 0 41.5 -15t15.5 -41q0 -5 -3 -8t-7 -2l-47 18l-313 -8q-6 0 -7 1q4 -8 4 -14v-177q46 -3 89 -3q74 0 163 7q9 1 27.5 2.5t20.5 -0.5q6 -6 9 -11t4 -14q3 -22 -66.5 -29t-185.5 -11
q-39 0 -65 -2q-12 -30 -12 -96l1 -59v-65q16 -13 35 -17t62 -4q45 0 88.5 5t51.5 6q84 10 125 10q24 0 33.5 -4.5t9.5 -15.5q0 -66 -268 -66h-34q-83 0 -120.5 31zM435 773.5q39 -25.5 39 -63.5q0 -10 -7.5 -17t-20.5 -8h-3q-18 0 -15 15q1 3 1 9q0 23 -22 36.5t-57 13.5
q-32 0 -55 -10t-23 -29q0 -4 -6.5 -6.5t-14.5 -2.5q-20 0 -21 7q0 36 33 58.5t83 22.5t89 -25.5z" />
    <glyph glyph-name="Emacron" unicode="&#x112;" horiz-adv-x="606" 
d="M137.5 30q-37.5 31 -37.5 112l14 224v215q0 25 10 32.5t44 7.5l68 -2q128 -7 250 -7q26 0 41.5 -15t15.5 -41q0 -5 -3 -8t-7 -2l-47 18l-313 -8q-6 0 -7 1q4 -8 4 -14v-177q46 -3 89 -3q74 0 163 7q9 1 27.5 2.5t20.5 -0.5q6 -6 9 -11t4 -14q3 -22 -66.5 -29t-185.5 -11
q-39 0 -65 -2q-12 -30 -12 -96l1 -59v-65q16 -13 35 -17t62 -4q45 0 88.5 5t51.5 6q84 10 125 10q24 0 33.5 -4.5t9.5 -15.5q0 -66 -268 -66h-34q-83 0 -120.5 31zM235 762q20 13 46.5 16.5t79.5 5.5q50 2 61 2q31 0 41 -6.5t10 -27.5q0 -20 -18 -20t-38 5q-5 1 -18 3t-25 2
q-25 0 -42 -2.5t-38 -7.5q-42 -10 -79 -10q0 27 20 40z" />
    <glyph glyph-name="Eogonek" unicode="&#x118;" horiz-adv-x="606" 
d="M571.5 -118q-4.5 -11 -12.5 -14q-36 -14 -73 -14q-48 0 -79 23.5t-31 57.5q0 36 29 68q-49 -4 -147 -4q-83 0 -120.5 31t-37.5 112l14 224v215q0 25 10 32.5t44 7.5l68 -2q128 -7 250 -7q26 0 41.5 -15t15.5 -41q0 -5 -3 -8t-7 -2l-47 18l-313 -8q-6 0 -7 1q4 -8 4 -14
v-177q46 -3 89 -3q74 0 163 7q9 1 27.5 2.5t20.5 -0.5q6 -6 9 -11t4 -14q3 -22 -66.5 -29t-185.5 -11q-39 0 -65 -2q-12 -30 -12 -96l1 -59v-65q16 -13 35 -17t62 -4q45 0 88.5 5t51.5 6q84 10 125 10q24 0 33.5 -4.5t9.5 -15.5q0 -29 -53 -46q-82 -33 -82 -83
q0 -20 14.5 -33.5t48.5 -13.5q32 0 86 15q2 -11 -2.5 -22z" />
    <glyph glyph-name="uni1EBC" unicode="&#x1ebc;" horiz-adv-x="606" 
d="M137.5 30q-37.5 31 -37.5 112l14 224v215q0 25 10 32.5t44 7.5l68 -2q128 -7 250 -7q26 0 41.5 -15t15.5 -41q0 -5 -3 -8t-7 -2l-47 18l-313 -8q-6 0 -7 1q4 -8 4 -14v-177q46 -3 89 -3q74 0 163 7q9 1 27.5 2.5t20.5 -0.5q6 -6 9 -11t4 -14q3 -22 -66.5 -29t-185.5 -11
q-39 0 -65 -2q-12 -30 -12 -96l1 -59v-65q16 -13 35 -17t62 -4q45 0 88.5 5t51.5 6q84 10 125 10q24 0 33.5 -4.5t9.5 -15.5q0 -66 -268 -66h-34q-83 0 -120.5 31zM170 734q0 35 25.5 60t58.5 25q27 0 49 -8.5t57 -32.5q34 -23 63 -23q25 0 43 17t27 46q12 1 18 -3.5
t6 -13.5q0 -3 -2 -11q-11 -30 -24.5 -45.5t-35.5 -22.5q-17 -5 -30 -5q-20 0 -38 7.5t-47 23.5q-25 14 -42 21t-34 7q-29 0 -42 -13t-13 -40q0 -7 2 -25v-3q0 -6 -5.5 -8t-10.5 0q-15 3 -20 17q-5 13 -5 30z" />
    <glyph glyph-name="F" unicode="F" horiz-adv-x="648" 
d="M224.5 14.5q-13.5 0.5 -18 1t-4.5 3.5q-7 32 -10 56.5t-4 45.5q-1 30 -4.5 59.5t-14.5 78.5q-56 -9 -75 -9q-20 0 -30 7.5t-10 24.5q0 10 11 10l30 3q7 1 64 8l-8 119q-3 72 -9 115l-125 -11q-14 -9 -22 -9q-12 9 -15 23q24 26 115.5 43t198.5 17q134 0 230 -28.5
t104 -87.5q-31 0 -60 7t-73 21q-56 19 -102.5 29t-104.5 10q-37 0 -81 -6q0 -93 5 -235l35 3q160 13 187 13q13 0 18 -1.5t8 -4.5q1 -30 -57 -42.5t-184 -17.5q5 -49 19 -128q13 -74 16 -120q-16 2 -29.5 2.5z" />
    <glyph glyph-name="G" unicode="G" horiz-adv-x="627" 
d="M493.5 -33.5q-11.5 35.5 -11.5 77.5l3 29q-49 -31 -115.5 -49t-139.5 -18q-53 0 -94 24.5t-63.5 67t-22.5 96.5q0 82 64 155.5t157.5 120t173.5 52.5q40 4 68 -17.5t28 -59.5q-21 0 -50 11q-4 1 -21 6t-35 5q-71 0 -150.5 -41t-133 -108.5t-53.5 -141.5q0 -35 21.5 -60.5
t54 -39t65.5 -13.5q79 0 130 6.5t88 35t37 87.5q0 28 -12 39h-178q-14 0 -26.5 14t-12.5 28q0 25 15 25q12 0 38 -10q24 -11 41 -11q22 0 68 6q8 1 29 3t38 2t33.5 -14.5t15.5 -32.5l-6 -231q7 -14 24 -24q6 -3 10 -7.5t5 -9.5q5 -11 -10 -24.5t-27 -13.5q-34 0 -45.5 35.5z
" />
    <glyph glyph-name="Gbreve" unicode="&#x11e;" horiz-adv-x="627" 
d="M493.5 -33.5q-11.5 35.5 -11.5 77.5l3 29q-49 -31 -115.5 -49t-139.5 -18q-53 0 -94 24.5t-63.5 67t-22.5 96.5q0 82 64 155.5t157.5 120t173.5 52.5q40 4 68 -17.5t28 -59.5q-21 0 -50 11q-4 1 -21 6t-35 5q-71 0 -150.5 -41t-133 -108.5t-53.5 -141.5q0 -35 21.5 -60.5
t54 -39t65.5 -13.5q79 0 130 6.5t88 35t37 87.5q0 28 -12 39h-178q-14 0 -26.5 14t-12.5 28q0 25 15 25q12 0 38 -10q24 -11 41 -11q22 0 68 6q8 1 29 3t38 2t33.5 -14.5t15.5 -32.5l-6 -231q7 -14 24 -24q6 -3 10 -7.5t5 -9.5q5 -11 -10 -24.5t-27 -13.5q-34 0 -45.5 35.5z
M262 651.5q-33 22.5 -33 58.5q1 7 21 7q8 0 14.5 -2.5t6.5 -6.5q0 -19 23 -29t55 -10q35 0 57 13.5t22 36.5q0 6 -1 9v4q0 11 15 11q14 0 22.5 -7.5t8.5 -17.5q0 -38 -39 -63.5t-89 -25.5t-83 22.5z" />
    <glyph glyph-name="Gcaron" unicode="&#x1e6;" horiz-adv-x="627" 
d="M493.5 -33.5q-11.5 35.5 -11.5 77.5l3 29q-49 -31 -115.5 -49t-139.5 -18q-53 0 -94 24.5t-63.5 67t-22.5 96.5q0 82 64 155.5t157.5 120t173.5 52.5q40 4 68 -17.5t28 -59.5q-21 0 -50 11q-4 1 -21 6t-35 5q-71 0 -150.5 -41t-133 -108.5t-53.5 -141.5q0 -35 21.5 -60.5
t54 -39t65.5 -13.5q79 0 130 6.5t88 35t37 87.5q0 28 -12 39h-178q-14 0 -26.5 14t-12.5 28q0 25 15 25q12 0 38 -10q24 -11 41 -11q22 0 68 6q8 1 29 3t38 2t33.5 -14.5t15.5 -32.5l-6 -231q7 -14 24 -24q6 -3 10 -7.5t5 -9.5q5 -11 -10 -24.5t-27 -13.5q-34 0 -45.5 35.5z
M335 597q-13 31 -28.5 43.5t-53.5 31.5q-30 15 -37 19q11 21 33 21q25 0 57.5 -20.5t59.5 -50.5q11 8 33 26q26 22 42 32.5t25 10.5q12 0 15.5 -4t3.5 -13t-2 -13t-7.5 -9t-9.5 -9q-6 -6 -19.5 -15t-18.5 -12q-28 -18 -37 -27q-10 -9 -17 -12.5t-21 -3.5t-18 5z" />
    <glyph glyph-name="Gcircumflex" unicode="&#x11c;" horiz-adv-x="627" 
d="M493.5 -33.5q-11.5 35.5 -11.5 77.5l3 29q-49 -31 -115.5 -49t-139.5 -18q-53 0 -94 24.5t-63.5 67t-22.5 96.5q0 82 64 155.5t157.5 120t173.5 52.5q40 4 68 -17.5t28 -59.5q-21 0 -50 11q-4 1 -21 6t-35 5q-71 0 -150.5 -41t-133 -108.5t-53.5 -141.5q0 -35 21.5 -60.5
t54 -39t65.5 -13.5q79 0 130 6.5t88 35t37 87.5q0 28 -12 39h-178q-14 0 -26.5 14t-12.5 28q0 25 15 25q12 0 38 -10q24 -11 41 -11q22 0 68 6q8 1 29 3t38 2t33.5 -14.5t15.5 -32.5l-6 -231q7 -14 24 -24q6 -3 10 -7.5t5 -9.5q5 -11 -10 -24.5t-27 -13.5q-34 0 -45.5 35.5z
M445 606q-10 13 -25 41q-26 48 -53 82q-12 -35 -34.5 -67.5t-47 -52.5t-41.5 -20q-19 0 -29 27l36 31q28 24 41 37.5t23 35t19 59.5q3 9 16 9q16 0 23.5 -5t17.5 -22q8 -14 43 -53q6 -8 17 -21t16 -20q13 -20 17 -31t4 -24q0 -11 -5.5 -15t-16.5 -4t-21 13z" />
    <glyph glyph-name="Gcommaaccent" unicode="&#x122;" horiz-adv-x="627" 
d="M493.5 -33.5q-11.5 35.5 -11.5 77.5l3 29q-49 -31 -115.5 -49t-139.5 -18q-53 0 -94 24.5t-63.5 67t-22.5 96.5q0 82 64 155.5t157.5 120t173.5 52.5q40 4 68 -17.5t28 -59.5q-21 0 -50 11q-4 1 -21 6t-35 5q-71 0 -150.5 -41t-133 -108.5t-53.5 -141.5q0 -35 21.5 -60.5
t54 -39t65.5 -13.5q79 0 130 6.5t88 35t37 87.5q0 28 -12 39h-178q-14 0 -26.5 14t-12.5 28q0 25 15 25q12 0 38 -10q24 -11 41 -11q22 0 68 6q8 1 29 3t38 2t33.5 -14.5t15.5 -32.5l-6 -231q7 -14 24 -24q6 -3 10 -7.5t5 -9.5q5 -11 -10 -24.5t-27 -13.5q-34 0 -45.5 35.5z
M265 -333q0 20 9 47q14 38 14 80l-1 38h-3q-11 0 -14 4.5t-3 13.5q0 48 35 48q25 0 33.5 -22.5t8.5 -57.5l-1 -33q0 -54 -17 -95t-41 -41q-20 0 -20 18z" />
    <glyph glyph-name="Gdotaccent" unicode="&#x120;" horiz-adv-x="627" 
d="M493.5 -33.5q-11.5 35.5 -11.5 77.5l3 29q-49 -31 -115.5 -49t-139.5 -18q-53 0 -94 24.5t-63.5 67t-22.5 96.5q0 82 64 155.5t157.5 120t173.5 52.5q40 4 68 -17.5t28 -59.5q-21 0 -50 11q-4 1 -21 6t-35 5q-71 0 -150.5 -41t-133 -108.5t-53.5 -141.5q0 -35 21.5 -60.5
t54 -39t65.5 -13.5q79 0 130 6.5t88 35t37 87.5q0 28 -12 39h-178q-14 0 -26.5 14t-12.5 28q0 25 15 25q12 0 38 -10q24 -11 41 -11q22 0 68 6q8 1 29 3t38 2t33.5 -14.5t15.5 -32.5l-6 -231q7 -14 24 -24q6 -3 10 -7.5t5 -9.5q5 -11 -10 -24.5t-27 -13.5q-34 0 -45.5 35.5z
M328.5 633q-10.5 17 -10.5 42q0 11 1 16q-1 16 18 16q14 0 28.5 -6.5t8.5 -9.5q10 -26 10 -41q0 -13 -6 -20.5t-17 -13.5q-22 0 -32.5 17z" />
    <glyph glyph-name="H" unicode="H" horiz-adv-x="581" 
d="M469 24.5q-10 29.5 -11 87.5q-2 85 -5.5 142.5t-12.5 103.5q-93 -44 -183.5 -80.5t-90.5 -35.5l2 -213q0 -15 -18 -19q-24 -5 -31.5 27.5t-10.5 102.5q-2 63 -6 89q-28 -14 -48 -13q-4 8 -4 33l19.5 7t17 9.5t5.5 16.5q0 50 -10 154q-11 94 -11 155l1 46q3 7 7.5 9
t12.5 2q17 0 17 -11l41 -352q28 7 93 36t200 94l4 222q0 39 29 39q12 0 16.5 -9t2.5 -30l-1 -173q0 -88 10 -229l5.5 -53.5t4.5 -48.5q6 -62 8.5 -78.5t8.5 -29.5q-5 -20 -27 -25q-25 -5 -35 24.5z" />
    <glyph glyph-name="Hbar" unicode="&#x126;" horiz-adv-x="525" 
d="M494 454q0 -84 10 -219l5.5 -53.5t4.5 -48.5q6 -62 8.5 -78.5t8.5 -29.5q-5 -20 -27 -25q-25 -5 -35 24.5t-11 87.5q-2 85 -5.5 142.5t-12.5 103.5q-93 -44 -183.5 -80.5t-90.5 -35.5l2 -213q0 -15 -18 -19q-24 -5 -31.5 27.5t-10.5 102.5q-2 63 -6 89q-28 -14 -48 -13
q-4 8 -4 33l19.5 7t17 9.5t5.5 16.5q0 58 -11 153l-7 77q-66 -9 -98 -17q-3 12 -3 19q0 8 4 12.5t13 8.5q23 9 82 19q-1 12 -1 37l1 46q3 7 7.5 9t12.5 2q17 0 17 -11l9 -76q84 11 263 24l65 5l1 47q0 39 29 39q12 0 16.5 -9t2.5 -30v-45q20 -1 29.5 -6t10.5 -17v-4
q0 -16 -16 -19q-7 -1 -24 -1zM243 321q65 29 200 94l2 131q-31 0 -46 -1q-40 -1 -119 -9t-157 -18l27 -233q28 7 93 36z" />
    <glyph glyph-name="Hcircumflex" unicode="&#x124;" horiz-adv-x="581" 
d="M469 24.5q-10 29.5 -11 87.5q-2 85 -5.5 142.5t-12.5 103.5q-93 -44 -183.5 -80.5t-90.5 -35.5l2 -213q0 -15 -18 -19q-24 -5 -31.5 27.5t-10.5 102.5q-2 63 -6 89q-28 -14 -48 -13q-4 8 -4 33l19.5 7t17 9.5t5.5 16.5q0 50 -10 154q-11 94 -11 155l1 46q3 7 7.5 9
t12.5 2q17 0 17 -11l41 -352q28 7 93 36t200 94l4 222q0 39 29 39q12 0 16.5 -9t2.5 -30l-1 -173q0 -88 10 -229l5.5 -53.5t4.5 -48.5q6 -62 8.5 -78.5t8.5 -29.5q-5 -20 -27 -25q-25 -5 -35 24.5zM392 752q-10 13 -25 41q-26 48 -53 82q-12 -35 -34.5 -67.5t-47 -52.5
t-41.5 -20q-19 0 -29 27l36 31q28 24 41 37.5t23 35t19 59.5q3 9 16 9q16 0 23.5 -5t17.5 -22q8 -14 43 -53q6 -8 17 -21t16 -20q13 -20 17 -31t4 -24q0 -11 -5.5 -15t-16.5 -4t-21 13z" />
    <glyph glyph-name="I" unicode="I" horiz-adv-x="235" 
d="M141.5 6q-11.5 11 -12.5 31q-4 29 -8.5 71l-6.5 62t-8.5 77.5t-13.5 99.5q-2 14 -13 50q-29 103 -29 149q7 10 14 10q26 0 54 -104t47.5 -234.5t19.5 -178.5v-12.5t-4.5 -17.5t-14.5 -9q-13 -5 -24.5 6z" />
    <glyph glyph-name="Iacute" unicode="&#xcd;" horiz-adv-x="235" 
d="M141.5 6q-11.5 11 -12.5 31q-4 29 -8.5 71l-6.5 62t-8.5 77.5t-13.5 99.5q-2 14 -13 50q-29 103 -29 149q7 10 14 10q26 0 54 -104t47.5 -234.5t19.5 -178.5v-12.5t-4.5 -17.5t-14.5 -9q-13 -5 -24.5 6zM-13.5 621q-4.5 4 -4.5 19q0 20 32 49t82 66l22 17q18 -9 18 -21
t-14.5 -28t-48.5 -45q-40 -34 -67 -61q-15 0 -19.5 4z" />
    <glyph glyph-name="Ibreve" unicode="&#x12c;" horiz-adv-x="235" 
d="M141.5 6q-11.5 11 -12.5 31q-4 29 -8.5 71l-6.5 62t-8.5 77.5t-13.5 99.5q-2 14 -13 50q-29 103 -29 149q7 10 14 10q26 0 54 -104t47.5 -234.5t19.5 -178.5v-12.5t-4.5 -17.5t-14.5 -9q-13 -5 -24.5 6zM-8.5 677.5q-24.5 22.5 -24.5 58.5v7q32 0 32 -9q0 -18 15 -27
t36 -9q23 0 41 10.5t18 28.5q0 9 -4 17q4 9 17 9q14 0 21.5 -6t7.5 -13q0 -38 -30 -63.5t-68 -25.5q-37 0 -61.5 22.5z" />
    <glyph glyph-name="Icircumflex" unicode="&#xce;" horiz-adv-x="235" 
d="M141.5 6q-11.5 11 -12.5 31q-4 29 -8.5 71l-6.5 62t-8.5 77.5t-13.5 99.5q-2 14 -13 50q-29 103 -29 149q7 10 14 10q26 0 54 -104t47.5 -234.5t19.5 -178.5v-12.5t-4.5 -17.5t-14.5 -9q-13 -5 -24.5 6zM153 632q-10 13 -25 41q-26 48 -53 82q-12 -35 -34.5 -67.5
t-47 -52.5t-41.5 -20q-19 0 -29 27l36 31q28 24 41 37.5t23 35t19 59.5q3 9 16 9q16 0 23.5 -5t17.5 -22q8 -14 43 -53q6 -8 17 -21t16 -20q13 -20 17 -31t4 -24q0 -11 -5.5 -15t-16.5 -4t-21 13z" />
    <glyph glyph-name="uni0208" unicode="&#x208;" horiz-adv-x="235" 
d="M-66 699q-14 12 -18.5 23t0.5 16q4 6 13 6q15 0 43 -24q2 -2 34 -27t32 -32q0 -17 -5.5 -21.5t-19.5 -4.5q-13 0 -79 64zM33 699q-14 12 -18.5 23t0.5 16q5 6 13 6q15 0 43 -24q2 -2 34 -27t32 -32q0 -17 -5.5 -21.5t-19.5 -4.5q-13 0 -79 64zM141.5 6q-11.5 11 -12.5 31
q-4 29 -8.5 71l-6.5 62t-8.5 77.5t-13.5 99.5q-2 14 -13 50q-29 103 -29 149q7 10 14 10q26 0 54 -104t47.5 -234.5t19.5 -178.5v-12.5t-4.5 -17.5t-14.5 -9q-13 -5 -24.5 6z" />
    <glyph glyph-name="Idieresis" unicode="&#xcf;" horiz-adv-x="235" 
d="M141.5 6q-11.5 11 -12.5 31q-4 29 -8.5 71l-6.5 62t-8.5 77.5t-13.5 99.5q-2 14 -13 50q-29 103 -29 149q7 10 14 10q26 0 54 -104t47.5 -234.5t19.5 -178.5v-12.5t-4.5 -17.5t-14.5 -9q-13 -5 -24.5 6zM-56 645.5q-14 16.5 -14 30.5q0 9 16.5 29t25.5 20q29 0 44 -17
t15 -37q0 -13 -17.5 -27.5t-36.5 -14.5t-33 16.5zM100 645.5q-13 16.5 -13 30.5q0 9 16.5 29t26.5 20q27 0 42 -17t15 -37q0 -13 -17.5 -27.5t-35.5 -14.5q-21 0 -34 16.5z" />
    <glyph glyph-name="Idotaccent" unicode="&#x130;" horiz-adv-x="235" 
d="M141.5 6q-11.5 11 -12.5 31q-4 29 -8.5 71l-6.5 62t-8.5 77.5t-13.5 99.5q-2 14 -13 50q-29 103 -29 149q7 10 14 10q26 0 54 -104t47.5 -234.5t19.5 -178.5v-12.5t-4.5 -17.5t-14.5 -9q-13 -5 -24.5 6zM36.5 659q-10.5 17 -10.5 42q0 11 1 16q-1 16 18 16
q14 0 28.5 -6.5t8.5 -9.5q10 -26 10 -41q0 -13 -6 -20.5t-17 -13.5q-22 0 -32.5 17z" />
    <glyph glyph-name="uni1ECA" unicode="&#x1eca;" horiz-adv-x="235" 
d="M141.5 6q-11.5 11 -12.5 31q-4 29 -8.5 71l-6.5 62t-8.5 77.5t-13.5 99.5q-2 14 -13 50q-29 103 -29 149q7 10 14 10q26 0 54 -104t47.5 -234.5t19.5 -178.5v-12.5t-4.5 -17.5t-14.5 -9q-13 -5 -24.5 6zM143.5 -154q-10.5 17 -10.5 42q0 11 1 16q-1 16 18 16
q14 0 28.5 -6.5t8.5 -9.5q10 -26 10 -41q0 -13 -6 -20.5t-17 -13.5q-22 0 -32.5 17z" />
    <glyph glyph-name="Igrave" unicode="&#xcc;" horiz-adv-x="235" 
d="M141.5 6q-11.5 11 -12.5 31q-4 29 -8.5 71l-6.5 62t-8.5 77.5t-13.5 99.5q-2 14 -13 50q-29 103 -29 149q7 10 14 10q26 0 54 -104t47.5 -234.5t19.5 -178.5v-12.5t-4.5 -17.5t-14.5 -9q-13 -5 -24.5 6zM11 700q-15 14 -20 26t0 17q7 7 15 7q17 0 47 -27q2 -2 38 -30
t36 -36q0 -18 -6 -23t-22 -5q-15 0 -88 71z" />
    <glyph glyph-name="uni1EC8" unicode="&#x1ec8;" horiz-adv-x="235" 
d="M141.5 6q-11.5 11 -12.5 31q-4 29 -8.5 71l-6.5 62t-8.5 77.5t-13.5 99.5q-2 14 -13 50q-29 103 -29 149q7 10 14 10q26 0 54 -104t47.5 -234.5t19.5 -178.5v-12.5t-4.5 -17.5t-14.5 -9q-13 -5 -24.5 6zM43 602q0 6 10 16l22 21q21 18 33 31.5t12 26.5q0 20 -9 31t-39 11
q-13 0 -28 -7t-22 -19q-8 1 -12.5 7.5t-4.5 16.5q0 19 25.5 29t49.5 10q46 0 65 -22t19 -49q0 -22 -11 -36t-33 -32q-10 -7 -18.5 -15t-12.5 -16q1 -5 -3.5 -12t-15.5 -7q-8 0 -20 6q-7 3 -7 9z" />
    <glyph glyph-name="uni020A" unicode="&#x20a;" horiz-adv-x="235" 
d="M141.5 6q-11.5 11 -12.5 31q-4 29 -8.5 71l-6.5 62t-8.5 77.5t-13.5 99.5q-2 14 -13 50q-29 103 -29 149q7 10 14 10q26 0 54 -104t47.5 -234.5t19.5 -178.5v-12.5t-4.5 -17.5t-14.5 -9q-13 -5 -24.5 6zM150 717.5q39 -25.5 39 -63.5q0 -10 -7.5 -17t-20.5 -8h-3
q-18 0 -15 15q1 3 1 9q0 23 -22 36.5t-57 13.5q-32 0 -55 -10t-23 -29q0 -4 -6.5 -6.5t-14.5 -2.5q-20 0 -21 7q0 36 33 58.5t83 22.5t89 -25.5z" />
    <glyph glyph-name="Imacron" unicode="&#x12a;" horiz-adv-x="235" 
d="M141.5 6q-11.5 11 -12.5 31q-4 29 -8.5 71l-6.5 62t-8.5 77.5t-13.5 99.5q-2 14 -13 50q-29 103 -29 149q7 10 14 10q26 0 54 -104t47.5 -234.5t19.5 -178.5v-12.5t-4.5 -17.5t-14.5 -9q-13 -5 -24.5 6zM-50 706q20 13 46.5 16.5t79.5 5.5q50 2 61 2q31 0 41 -6.5
t10 -27.5q0 -20 -18 -20t-38 5q-5 1 -18 3t-25 2q-25 0 -42 -2.5t-38 -7.5q-42 -10 -79 -10q0 27 20 40z" />
    <glyph glyph-name="Iogonek" unicode="&#x12e;" horiz-adv-x="235" 
d="M223.5 -141q-4.5 -11 -12.5 -14q-36 -14 -73 -14q-48 0 -79 23.5t-31 57.5q0 38 30 69.5t73 45.5q-2 6 -2 10q-4 29 -8.5 71l-6.5 62t-8.5 77.5t-13.5 99.5q-2 14 -13 50q-29 103 -29 149q7 10 14 10q26 0 54 -104t47.5 -234.5t19.5 -178.5q0 -3 0.5 -12.5t-3.5 -16
t-12 -9.5q-93 -36 -93 -88q0 -20 14.5 -33.5t48.5 -13.5q32 0 86 15q2 -11 -2.5 -22z" />
    <glyph glyph-name="Itilde" unicode="&#x128;" horiz-adv-x="235" 
d="M141.5 6q-11.5 11 -12.5 31q-4 29 -8.5 71l-6.5 62t-8.5 77.5t-13.5 99.5q-2 14 -13 50q-29 103 -29 149q7 10 14 10q26 0 54 -104t47.5 -234.5t19.5 -178.5v-12.5t-4.5 -17.5t-14.5 -9q-13 -5 -24.5 6zM-80 677q0 34 23 57t52 23q25 0 42.5 -10.5t36.5 -28.5
q11 -10 18.5 -15t14.5 -5q14 0 18.5 6.5t10.5 29.5q1 5 7 28q29 3 25 -29t-19.5 -50t-40.5 -18q-17 0 -28 7t-26 21t-25.5 20.5t-26.5 6.5q-22 0 -32.5 -13t-10.5 -39q0 -8 2 -26v-3q0 -11 -16 -8q-15 3 -20 17q-5 17 -5 29z" />
    <glyph glyph-name="J" unicode="J" horiz-adv-x="488" 
d="M85 61q-64 61 -64 157q0 86 47 86q9 -4 9 -9q0 -4 -3.5 -11t-5.5 -13q-5 -18 -5 -34q0 -44 30 -86t81 -68.5t109 -26.5q43 0 67.5 38t24.5 117q0 48 -8 99l-54 366q11 15 19 15q25 0 43 -89.5t42 -275.5l4 -33q7 -58 7 -91q0 -99 -36 -151t-105 -52q-138 1 -202 62z" />
    <glyph glyph-name="Jcircumflex" unicode="&#x134;" horiz-adv-x="488" 
d="M85 61q-64 61 -64 157q0 86 47 86q9 -4 9 -9q0 -4 -3.5 -11t-5.5 -13q-5 -18 -5 -34q0 -44 30 -86t81 -68.5t109 -26.5q43 0 67.5 38t24.5 117q0 48 -8 99l-54 366q11 15 19 15q25 0 43 -89.5t42 -275.5l4 -33q7 -58 7 -91q0 -99 -36 -151t-105 -52q-138 1 -202 62z
M436 788q-10 13 -25 41q-26 48 -53 82q-12 -35 -34.5 -67.5t-47 -52.5t-41.5 -20q-19 0 -29 27l36 31q28 24 41 37.5t23 35t19 59.5q3 9 16 9q16 0 23.5 -5t17.5 -22q8 -14 43 -53q6 -8 17 -21t16 -20q13 -20 17 -31t4 -24q0 -11 -5.5 -15t-16.5 -4t-21 13z" />
    <glyph glyph-name="K" unicode="K" horiz-adv-x="485" 
d="M104.5 46.5q-7.5 48.5 -12.5 171.5l-3 73q-2 38 -14 117q-1 10 -8 61t-7 90q0 6 6 15.5t15 9.5q13 0 17.5 -12t6 -23.5t1.5 -14.5q6 -17 9 -46.5t5 -62.5q4 -65 8 -93l31 44q65 96 117.5 154t102.5 56q4 -4 4 -10q0 -10 -10 -23t-30 -34l-21 -22q-11 -13 -67 -74
q-39 -41 -64 -70t-38 -53q44 -61 104.5 -108t158.5 -111l30 -19q18 -7 28.5 -18.5t10.5 -23.5q0 -6 -3 -12q-7 -12 -17 -12q-11 0 -39 14l-54 38q-88 58 -150 108t-86 95l6 -75q9 -103 9 -138q0 -25 -4 -32.5t-14 -7.5q-21 0 -28.5 48.5z" />
    <glyph glyph-name="Kcommaaccent" unicode="&#x136;" horiz-adv-x="485" 
d="M104.5 46.5q-7.5 48.5 -12.5 171.5l-3 73q-2 38 -14 117q-1 10 -8 61t-7 90q0 6 6 15.5t15 9.5q13 0 17.5 -12t6 -23.5t1.5 -14.5q6 -17 9 -46.5t5 -62.5q4 -65 8 -93l31 44q65 96 117.5 154t102.5 56q4 -4 4 -10q0 -10 -10 -23t-30 -34l-21 -22q-11 -13 -67 -74
q-39 -41 -64 -70t-38 -53q44 -61 104.5 -108t158.5 -111l30 -19q18 -7 28.5 -18.5t10.5 -23.5q0 -6 -3 -12q-7 -12 -17 -12q-11 0 -39 14l-54 38q-88 58 -150 108t-86 95l6 -75q9 -103 9 -138q0 -25 -4 -32.5t-14 -7.5q-21 0 -28.5 48.5zM237 -333q0 20 9 47q14 38 14 80
l-1 38h-3q-11 0 -14 4.5t-3 13.5q0 48 35 48q25 0 33.5 -22.5t8.5 -57.5l-1 -33q0 -54 -17 -95t-41 -41q-20 0 -20 18z" />
    <glyph glyph-name="L" unicode="L" horiz-adv-x="370" 
d="M111 32.5q-51 34.5 -51 125.5q20 500 64 477q22 -1 22 -68q0 -41 -14 -173q-18 -152 -18 -223l1 -29q0 -22 13.5 -44t34.5 -24l196 -17q11 -1 11 -21q0 -18 -8.5 -25t-29.5 -11l-70 -2q-100 0 -151 34.5z" />
    <glyph glyph-name="Lacute" unicode="&#x139;" horiz-adv-x="370" 
d="M370 36q0 -18 -8.5 -25t-29.5 -11l-70 -2q-100 0 -151 34.5t-51 125.5q20 500 64 477q11 -1 17 -18q20 27 93 81l29 22q18 -9 18 -21t-14.5 -28t-48.5 -45q-40 -34 -67 -61h-5q0 -29 -4.5 -75l-9.5 -93q-18 -152 -18 -225l1 -30q0 -22 13.5 -44t34.5 -24l196 -17
q11 -1 11 -21z" />
    <glyph glyph-name="Lcaron" unicode="&#x13d;" horiz-adv-x="370" 
d="M111 32.5q-51 34.5 -51 125.5q20 500 64 477q22 -1 22 -68q0 -41 -14 -173q-18 -152 -18 -223l1 -29q0 -22 13.5 -44t34.5 -24l196 -17q11 -1 11 -21q0 -18 -8.5 -25t-29.5 -11l-70 -2q-100 0 -151 34.5zM243.5 345q10.5 26 10.5 65q0 24 -6 55q-1 4 -1 13
q0 19 10.5 33.5t31.5 14.5q13 0 18.5 -17.5t5.5 -51.5q0 -32 -11 -68t-27 -60.5t-30 -24.5q-12 0 -12 11q0 4 10.5 30z" />
    <glyph glyph-name="Lcommaaccent" unicode="&#x13b;" horiz-adv-x="370" 
d="M111 32.5q-51 34.5 -51 125.5q20 500 64 477q22 -1 22 -68q0 -41 -14 -173q-18 -152 -18 -223l1 -29q0 -22 13.5 -44t34.5 -24l196 -17q11 -1 11 -21q0 -18 -8.5 -25t-29.5 -11l-70 -2q-100 0 -151 34.5zM176 -333q0 20 9 47q14 38 14 80l-1 38h-3q-11 0 -14 4.5t-3 13.5
q0 48 35 48q25 0 33.5 -22.5t8.5 -57.5l-1 -33q0 -54 -17 -95t-41 -41q-20 0 -20 18z" />
    <glyph glyph-name="Ldot" unicode="&#x13f;" horiz-adv-x="347" 
d="M111 32.5q-51 34.5 -51 125.5q20 500 64 477q22 -1 22 -68q0 -41 -14 -173q-18 -152 -18 -223l1 -29q0 -22 13.5 -44t34.5 -24l196 -17q11 -1 11 -21q0 -18 -8.5 -25t-29.5 -11l-70 -2q-100 0 -151 34.5zM184 195.5q-16 19.5 -16 36.5q0 18 11 38.5t40 20.5
q34 0 53 -20.5t19 -43.5q0 -15 -22 -33t-45 -18q-24 0 -40 19.5z" />
    <glyph glyph-name="Lslash" unicode="&#x141;" horiz-adv-x="370" 
d="M370 36q0 -18 -8.5 -25t-29.5 -11l-70 -2q-100 0 -151 34.5t-51 125.5l2 52q-53 -40 -65 -33q-7 4 -11 11.5t-4 16.5q0 8 3 14q13 28 82 84q8 150 22 246.5t35 85.5q21 -1 21 -67q0 -36 -5.5 -95t-12.5 -120q39 36 37 34q32 30 48 42t27 11q10 -9 10 -18q0 -8 -5 -17.5
l-7 -13.5q-11 -22 -44.5 -59.5t-74.5 -74.5q-4 -60 -4 -85q0 -21 1 -30q0 -22 13.5 -44t34.5 -24l196 -17q11 -1 11 -21z" />
    <glyph glyph-name="M" unicode="M" horiz-adv-x="607" 
d="M513.5 328.5q4.5 -40.5 14.5 -113.5q19 -123 19 -196q0 -15 -6 -18t-14 -3h-11q-14 0 -22 3.5t-13 17.5l-21 272q-3 41 -8 165q-43 -50 -85 -75.5t-86 -25.5q-63 0 -126 89q3 -15 3 -40v-29l-1 -327q0 -10 -10.5 -15.5t-21.5 -5.5q-14 0 -19.5 10.5t-8.5 28.5v140
q0 32 2 72t3 56q5 70 5 127q0 17 -6 32.5t-18 34.5t-17.5 33t-5.5 30q0 19 19 19q30 0 49 -21.5t41 -64.5q19 -35 33 -55t36 -34.5t53 -14.5q45 -2 74 17.5t44 47.5t29 68q12 33 21 46.5t22 10.5q30 2 30 -55q0 -48 -1 -71l-1 -72q0 -43 4.5 -83.5z" />
    <glyph glyph-name="N" unicode="N" horiz-adv-x="675" 
d="M542 441q31 -57 52 -130.5t21 -109.5q0 -55 -23.5 -98.5t-66.5 -68t-98 -24.5q-76 0 -131.5 41t-88.5 94.5t-68 128.5l-14 30l2 -242q0 -22 -7.5 -42.5t-25.5 -20.5t-26 20.5t-8 40.5q0 64 10 184t10 179q0 14 -2 29t-3 21q-5 27 -5 48v4q3 0 18.5 4.5t18.5 4.5h10
q38 -171 112.5 -315.5t204.5 -144.5q61 0 92.5 36.5t31.5 98.5q0 53 -17 97.5t-51 109.5l-27 53q-3 5 -3 10q0 8 6 13.5t16 5.5q29 0 60 -57zM127 62v2v-2z" />
    <glyph glyph-name="Nacute" unicode="&#x143;" horiz-adv-x="675" 
d="M542 441q31 -57 52 -130.5t21 -109.5q0 -55 -23.5 -98.5t-66.5 -68t-98 -24.5q-76 0 -131.5 41t-88.5 94.5t-68 128.5l-14 30l2 -242q0 -22 -7.5 -42.5t-25.5 -20.5t-26 20.5t-8 40.5q0 64 10 184t10 179q0 14 -2 29t-3 21q-5 27 -5 48v4q3 0 18.5 4.5t18.5 4.5h10
q38 -171 112.5 -315.5t204.5 -144.5q61 0 92.5 36.5t31.5 98.5q0 53 -17 97.5t-51 109.5l-27 53q-3 5 -3 10q0 8 6 13.5t16 5.5q29 0 60 -57zM127 62v2v-2zM207.5 599q-4.5 4 -4.5 19q0 20 32 49t82 66l22 17q18 -9 18 -21t-14.5 -28t-48.5 -45q-40 -34 -67 -61
q-15 0 -19.5 4z" />
    <glyph glyph-name="Ncaron" unicode="&#x147;" horiz-adv-x="675" 
d="M542 441q31 -57 52 -130.5t21 -109.5q0 -55 -23.5 -98.5t-66.5 -68t-98 -24.5q-76 0 -131.5 41t-88.5 94.5t-68 128.5l-14 30l2 -242q0 -22 -7.5 -42.5t-25.5 -20.5t-26 20.5t-8 40.5q0 64 10 184t10 179q0 14 -2 29t-3 21q-5 27 -5 48v4q3 0 18.5 4.5t18.5 4.5h10
q38 -171 112.5 -315.5t204.5 -144.5q61 0 92.5 36.5t31.5 98.5q0 53 -17 97.5t-51 109.5l-27 53q-3 5 -3 10q0 8 6 13.5t16 5.5q29 0 60 -57zM127 62v2v-2zM264 601q-13 31 -28.5 43.5t-53.5 31.5q-30 15 -37 19q11 21 33 21q25 0 57.5 -20.5t59.5 -50.5q11 8 33 26
q26 22 42 32.5t25 10.5q12 0 15.5 -4t3.5 -13t-2 -13t-7.5 -9t-9.5 -9q-6 -6 -19.5 -15t-18.5 -12q-28 -18 -37 -27q-10 -9 -17 -12.5t-21 -3.5t-18 5z" />
    <glyph glyph-name="Ncommaaccent" unicode="&#x145;" horiz-adv-x="675" 
d="M542 441q31 -57 52 -130.5t21 -109.5q0 -55 -23.5 -98.5t-66.5 -68t-98 -24.5q-76 0 -131.5 41t-88.5 94.5t-68 128.5l-14 30l2 -242q0 -22 -7.5 -42.5t-25.5 -20.5t-26 20.5t-8 40.5q0 64 10 184t10 179q0 14 -2 29t-3 21q-5 27 -5 48v4q3 0 18.5 4.5t18.5 4.5h10
q38 -171 112.5 -315.5t204.5 -144.5q61 0 92.5 36.5t31.5 98.5q0 53 -17 97.5t-51 109.5l-27 53q-3 5 -3 10q0 8 6 13.5t16 5.5q29 0 60 -57zM127 62v2v-2zM298 -333q0 20 9 47q14 38 14 80l-1 38h-3q-11 0 -14 4.5t-3 13.5q0 48 35 48q25 0 33.5 -22.5t8.5 -57.5l-1 -33
q0 -54 -17 -95t-41 -41q-20 0 -20 18z" />
    <glyph glyph-name="Eng" unicode="&#x14a;" horiz-adv-x="610" 
d="M597 -22q1 -18 2.5 -63t4.5 -81q3 -29 3 -55q0 -99 -39.5 -158t-130.5 -59q-98 0 -164.5 40.5t-73.5 113.5q-1 16 4 24t14 8q11 0 20.5 -9.5t8.5 -22.5q0 -57 42 -78.5t135 -21.5q57 0 84.5 20.5t35.5 60.5t8 115v48q0 64 -1.5 104.5t-7.5 80.5q-49 -35 -115 -35
q-76 0 -131.5 41t-88.5 94.5t-68 128.5l-14 30l2 -242q0 -22 -7.5 -42.5t-25.5 -20.5t-26 20.5t-8 40.5q0 64 10 184t10 179q0 14 -2 29t-3 21q-5 27 -5 48v4q3 0 18.5 4.5t18.5 4.5h10q38 -171 112.5 -315.5t204.5 -144.5q73 0 105 54l11 90l8 2q-2 51 -19 94t-49 103
l-27 52q-3 5 -3 10q0 8 6 13.5t16 5.5q29 0 60 -57t52 -130.5t21 -109.5q0 -54 -23 -97q3 -42 5 -126zM127 62v2v-2z" />
    <glyph glyph-name="Ntilde" unicode="&#xd1;" horiz-adv-x="675" 
d="M542 441q31 -57 52 -130.5t21 -109.5q0 -55 -23.5 -98.5t-66.5 -68t-98 -24.5q-76 0 -131.5 41t-88.5 94.5t-68 128.5l-14 30l2 -242q0 -22 -7.5 -42.5t-25.5 -20.5t-26 20.5t-8 40.5q0 64 10 184t10 179q0 14 -2 29t-3 21q-5 27 -5 48v4q3 0 18.5 4.5t18.5 4.5h10
q38 -171 112.5 -315.5t204.5 -144.5q61 0 92.5 36.5t31.5 98.5q0 53 -17 97.5t-51 109.5l-27 53q-3 5 -3 10q0 8 6 13.5t16 5.5q29 0 60 -57zM127 62v2v-2zM106 656q0 35 25.5 60t58.5 25q27 0 49 -8.5t57 -32.5q34 -23 63 -23q25 0 43 17t27 46q12 1 18 -3.5t6 -13.5
q0 -3 -2 -11q-11 -30 -24.5 -45.5t-35.5 -22.5q-17 -5 -30 -5q-20 0 -38 7.5t-47 23.5q-25 14 -42 21t-34 7q-29 0 -42 -13t-13 -40q0 -7 2 -25v-3q0 -6 -5.5 -8t-10.5 0q-15 3 -20 17q-5 13 -5 30z" />
    <glyph glyph-name="O" unicode="O" horiz-adv-x="657" 
d="M189.5 33q-65.5 34 -102.5 96t-37 143q0 55 22 101t64 73.5t99 27.5q108 0 192.5 -36.5t132 -104.5t47.5 -157q0 -59 -43.5 -99t-106 -59t-119.5 -19q-83 0 -148.5 34zM487.5 81q68.5 30 68.5 100q0 122 -94 183.5t-240 61.5q-70 0 -98.5 -41.5t-28.5 -112.5
q0 -59 28.5 -109.5t79.5 -81t116 -30.5q100 0 168.5 30z" />
    <glyph glyph-name="Oacute" unicode="&#xd3;" horiz-adv-x="657" 
d="M189.5 33q-65.5 34 -102.5 96t-37 143q0 55 22 101t64 73.5t99 27.5q108 0 192.5 -36.5t132 -104.5t47.5 -157q0 -59 -43.5 -99t-106 -59t-119.5 -19q-83 0 -148.5 34zM487.5 81q68.5 30 68.5 100q0 122 -94 183.5t-240 61.5q-70 0 -98.5 -41.5t-28.5 -112.5
q0 -59 28.5 -109.5t79.5 -81t116 -30.5q100 0 168.5 30zM175.5 529q-4.5 4 -4.5 19q0 20 32 49t82 66l22 17q18 -9 18 -21t-14.5 -28t-48.5 -45q-40 -34 -67 -61q-15 0 -19.5 4z" />
    <glyph glyph-name="Obreve" unicode="&#x14e;" horiz-adv-x="657" 
d="M189.5 33q-65.5 34 -102.5 96t-37 143q0 55 22 101t64 73.5t99 27.5q108 0 192.5 -36.5t132 -104.5t47.5 -157q0 -59 -43.5 -99t-106 -59t-119.5 -19q-83 0 -148.5 34zM487.5 81q68.5 30 68.5 100q0 122 -94 183.5t-240 61.5q-70 0 -98.5 -41.5t-28.5 -112.5
q0 -59 28.5 -109.5t79.5 -81t116 -30.5q100 0 168.5 30zM159 585.5q-33 22.5 -33 58.5q1 7 21 7q8 0 14.5 -2.5t6.5 -6.5q0 -19 23 -29t55 -10q35 0 57 13.5t22 36.5q0 6 -1 9v4q0 11 15 11q14 0 22.5 -7.5t8.5 -17.5q0 -38 -39 -63.5t-89 -25.5t-83 22.5z" />
    <glyph glyph-name="Ocircumflex" unicode="&#xd4;" horiz-adv-x="657" 
d="M189.5 33q-65.5 34 -102.5 96t-37 143q0 55 22 101t64 73.5t99 27.5q108 0 192.5 -36.5t132 -104.5t47.5 -157q0 -59 -43.5 -99t-106 -59t-119.5 -19q-83 0 -148.5 34zM487.5 81q68.5 30 68.5 100q0 122 -94 183.5t-240 61.5q-70 0 -98.5 -41.5t-28.5 -112.5
q0 -59 28.5 -109.5t79.5 -81t116 -30.5q100 0 168.5 30zM342 540q-10 13 -25 41q-26 48 -53 82q-12 -35 -34.5 -67.5t-47 -52.5t-41.5 -20q-19 0 -29 27l36 31q28 24 41 37.5t23 35t19 59.5q3 9 16 9q16 0 23.5 -5t17.5 -22q8 -14 43 -53q6 -8 17 -21t16 -20q13 -20 17 -31
t4 -24q0 -11 -5.5 -15t-16.5 -4t-21 13z" />
    <glyph glyph-name="uni1ED0" unicode="&#x1ed0;" horiz-adv-x="657" 
d="M112 550l36 31q28 24 41 37.5t23 35t19 59.5q3 9 16 9q16 0 23.5 -5t17.5 -22q3 -6 14 -19l5 4q18 -8 18 -21q0 -3 -2 -9q4 -5 19 -21.5t22 -27.5q13 -20 17 -31t4 -24q0 -11 -5.5 -15t-16.5 -4t-21 13t-25 41l-21 36l-37 -34q-40 -34 -64 -58q-11 0 -16 2t-7 9
q-18 -13 -31 -13q-19 0 -29 27zM264 663l-9 -23l17 13zM427.5 437.5q84.5 -36.5 132 -104.5t47.5 -157q0 -59 -43.5 -99t-106 -59t-119.5 -19q-83 0 -148.5 34t-102.5 96t-37 143q0 55 22 101t64 73.5t99 27.5q108 0 192.5 -36.5zM487.5 81q68.5 30 68.5 100
q0 122 -94 183.5t-240 61.5q-70 0 -98.5 -41.5t-28.5 -112.5q0 -59 28.5 -109.5t79.5 -81t116 -30.5q100 0 168.5 30z" />
    <glyph glyph-name="uni1ED8" unicode="&#x1ed8;" horiz-adv-x="610" 
d="M189.5 33q-65.5 34 -102.5 96t-37 143q0 55 22 101t64 73.5t99 27.5q108 0 192.5 -36.5t132 -104.5t47.5 -157q0 -59 -43.5 -99t-106 -59t-119.5 -19q-83 0 -148.5 34zM487.5 81q68.5 30 68.5 100q0 122 -94 183.5t-240 61.5q-70 0 -98.5 -41.5t-28.5 -112.5
q0 -59 28.5 -109.5t79.5 -81t116 -30.5q100 0 168.5 30zM313.5 -154q-10.5 17 -10.5 42q0 11 1 16q-1 16 18 16q14 0 28.5 -6.5t8.5 -9.5q10 -26 10 -41q0 -13 -6 -20.5t-17 -13.5q-22 0 -32.5 17zM330 557q-10 13 -25 41q-26 48 -53 82q-12 -35 -34.5 -67.5t-47 -52.5
t-41.5 -20q-19 0 -29 27l36 31q28 24 41 37.5t23 35t19 59.5q3 9 16 9q16 0 23.5 -5t17.5 -22q8 -14 43 -53q6 -8 17 -21t16 -20q13 -20 17 -31t4 -24q0 -11 -5.5 -15t-16.5 -4t-21 13z" />
    <glyph glyph-name="uni1ED2" unicode="&#x1ed2;" horiz-adv-x="657" 
d="M152 585q29 25 37 34q-12 14 -12 24q0 5 3 8q7 7 15 7t17 -5q10 22 19 60q3 9 16 9q16 0 23.5 -5t17.5 -22q8 -14 43 -53q6 -8 17 -21t16 -20q13 -20 17 -31t4 -24q0 -11 -5.5 -15t-16.5 -4t-21 13t-25 41q-26 48 -53 82q-5 -15 -16 -37q68 -52 68 -61q0 -18 -6 -23
t-22 -5q-12 0 -65 49q-21 -28 -43.5 -45.5t-38.5 -17.5q-19 0 -29 27q17 16 40 35zM427.5 437.5q84.5 -36.5 132 -104.5t47.5 -157q0 -59 -43.5 -99t-106 -59t-119.5 -19q-83 0 -148.5 34t-102.5 96t-37 143q0 55 22 101t64 73.5t99 27.5q108 0 192.5 -36.5zM487.5 81
q68.5 30 68.5 100q0 122 -94 183.5t-240 61.5q-70 0 -98.5 -41.5t-28.5 -112.5q0 -59 28.5 -109.5t79.5 -81t116 -30.5q100 0 168.5 30z" />
    <glyph glyph-name="uni1ED4" unicode="&#x1ed4;" horiz-adv-x="657" 
d="M112 550q16 15 35 30q37 31 51 49q-4 7 -4 16q0 19 26 29q2 6 11 39q3 9 16 9q16 0 23.5 -5t17.5 -22l9 -14q30 -7 42.5 -25.5t13.5 -39.5l11 -15q13 -20 17 -31t4 -24q0 -11 -5.5 -15t-16.5 -4q-9 0 -17 8.5t-18 25.5q-1 -1 -19 -16q-23 -18 -31 -31q1 -5 -3.5 -12
t-15.5 -7q-8 0 -20 6q-7 3 -7 9q0 7 10 17t23 21q20 18 30 28t13 21q-20 34 -31 49q-5 1 -16 1h-3q-21 -48 -57 -86t-60 -38q-19 0 -29 27zM427.5 437.5q84.5 -36.5 132 -104.5t47.5 -157q0 -59 -43.5 -99t-106 -59t-119.5 -19q-83 0 -148.5 34t-102.5 96t-37 143
q0 55 22 101t64 73.5t99 27.5q108 0 192.5 -36.5zM487.5 81q68.5 30 68.5 100q0 122 -94 183.5t-240 61.5q-70 0 -98.5 -41.5t-28.5 -112.5q0 -59 28.5 -109.5t79.5 -81t116 -30.5q100 0 168.5 30z" />
    <glyph glyph-name="uni1ED6" unicode="&#x1ed6;" horiz-adv-x="657" 
d="M79 556q-5 13 -5 30q0 35 25.5 60t58.5 25q31 0 56 -12q11 25 17 54q3 9 16 9q16 0 23.5 -5t17.5 -22q6 -11 21.5 -29.5t20.5 -23.5q18 -20 25 -29q28 15 42 57q12 1 18 -3.5t6 -13.5q0 -3 -2 -11q-9 -24 -19 -38.5t-24 -22.5q9 -18 9 -35q0 -11 -5.5 -15t-16.5 -4
q-10 0 -19 10.5t-21 31.5q-21 1 -38 9t-50 27q-23 -35 -49.5 -58.5t-44.5 -23.5t-26 21q-2 -4 -7 -5.5t-9 0.5q-15 3 -20 17zM253 637l11 -7q17 -12 35 -18q-22 35 -35 51q-2 -5 -11 -26zM125.5 614q-12.5 -13 -12.5 -39q0 -5 2 -23l31 27q35 30 47 45q-12 4 -28 4
q-27 -1 -39.5 -14zM427.5 437.5q84.5 -36.5 132 -104.5t47.5 -157q0 -59 -43.5 -99t-106 -59t-119.5 -19q-83 0 -148.5 34t-102.5 96t-37 143q0 55 22 101t64 73.5t99 27.5q108 0 192.5 -36.5zM487.5 81q68.5 30 68.5 100q0 122 -94 183.5t-240 61.5q-70 0 -98.5 -41.5
t-28.5 -112.5q0 -59 28.5 -109.5t79.5 -81t116 -30.5q100 0 168.5 30z" />
    <glyph glyph-name="uni020C" unicode="&#x20c;" horiz-adv-x="657" 
d="M123 607q-14 12 -18.5 23t0.5 16q5 6 13 6q15 0 43 -24q2 -2 34 -27t32 -32q0 -17 -5.5 -21.5t-19.5 -4.5q-13 0 -79 64zM222 607q-14 12 -18.5 23t0.5 16q5 6 13 6q15 0 43 -24q2 -2 34 -27t32 -32q0 -17 -5.5 -21.5t-19.5 -4.5q-13 0 -79 64zM189.5 33
q-65.5 34 -102.5 96t-37 143q0 55 22 101t64 73.5t99 27.5q108 0 192.5 -36.5t132 -104.5t47.5 -157q0 -59 -43.5 -99t-106 -59t-119.5 -19q-83 0 -148.5 34zM487.5 81q68.5 30 68.5 100q0 122 -94 183.5t-240 61.5q-70 0 -98.5 -41.5t-28.5 -112.5q0 -59 28.5 -109.5
t79.5 -81t116 -30.5q100 0 168.5 30z" />
    <glyph glyph-name="Odieresis" unicode="&#xd6;" horiz-adv-x="657" 
d="M189.5 33q-65.5 34 -102.5 96t-37 143q0 55 22 101t64 73.5t99 27.5q108 0 192.5 -36.5t132 -104.5t47.5 -157q0 -59 -43.5 -99t-106 -59t-119.5 -19q-83 0 -148.5 34zM487.5 81q68.5 30 68.5 100q0 122 -94 183.5t-240 61.5q-70 0 -98.5 -41.5t-28.5 -112.5
q0 -59 28.5 -109.5t79.5 -81t116 -30.5q100 0 168.5 30zM133 553.5q-14 16.5 -14 30.5q0 9 16.5 29t25.5 20q29 0 44 -17t15 -37q0 -13 -17.5 -27.5t-36.5 -14.5t-33 16.5zM289 553.5q-13 16.5 -13 30.5q0 9 16.5 29t26.5 20q27 0 42 -17t15 -37q0 -13 -17.5 -27.5
t-35.5 -14.5q-21 0 -34 16.5z" />
    <glyph glyph-name="uni022A" unicode="&#x22a;" horiz-adv-x="657" 
d="M189.5 33q-65.5 34 -102.5 96t-37 143q0 55 22 101t64 73.5t99 27.5q108 0 192.5 -36.5t132 -104.5t47.5 -157q0 -59 -43.5 -99t-106 -59t-119.5 -19q-83 0 -148.5 34zM487.5 81q68.5 30 68.5 100q0 122 -94 183.5t-240 61.5q-70 0 -98.5 -41.5t-28.5 -112.5
q0 -59 28.5 -109.5t79.5 -81t116 -30.5q100 0 168.5 30zM133 553.5q-14 16.5 -14 30.5q0 9 16.5 29t25.5 20q29 0 44 -17t15 -37q0 -13 -17.5 -27.5t-36.5 -14.5t-33 16.5zM289 553.5q-13 16.5 -13 30.5q0 9 16.5 29t26.5 20q27 0 42 -17t15 -37q0 -13 -17.5 -27.5
t-35.5 -14.5q-21 0 -34 16.5zM139 712q20 13 46.5 16.5t79.5 5.5q50 2 61 2q31 0 41 -6.5t10 -27.5q0 -20 -18 -20t-38 5q-5 1 -18 3t-25 2q-25 0 -42 -2.5t-38 -7.5q-42 -10 -79 -10q0 27 20 40z" />
    <glyph glyph-name="uni0230" unicode="&#x230;" horiz-adv-x="657" 
d="M189.5 33q-65.5 34 -102.5 96t-37 143q0 55 22 101t64 73.5t99 27.5q108 0 192.5 -36.5t132 -104.5t47.5 -157q0 -59 -43.5 -99t-106 -59t-119.5 -19q-83 0 -148.5 34zM487.5 81q68.5 30 68.5 100q0 122 -94 183.5t-240 61.5q-70 0 -98.5 -41.5t-28.5 -112.5
q0 -59 28.5 -109.5t79.5 -81t116 -30.5q100 0 168.5 30zM225.5 567q-10.5 17 -10.5 42q0 11 1 16q-1 16 18 16q14 0 28.5 -6.5t8.5 -9.5q10 -26 10 -41q0 -13 -6 -20.5t-17 -13.5q-22 0 -32.5 17zM139 719q20 13 46.5 16.5t79.5 5.5q50 2 61 2q31 0 41 -6.5t10 -27.5
q0 -20 -18 -20t-38 5q-5 1 -18 3t-25 2q-25 0 -42 -2.5t-38 -7.5q-42 -10 -79 -10q0 27 20 40z" />
    <glyph glyph-name="uni1ECC" unicode="&#x1ecc;" horiz-adv-x="657" 
d="M189.5 33q-65.5 34 -102.5 96t-37 143q0 55 22 101t64 73.5t99 27.5q108 0 192.5 -36.5t132 -104.5t47.5 -157q0 -59 -43.5 -99t-106 -59t-119.5 -19q-83 0 -148.5 34zM487.5 81q68.5 30 68.5 100q0 122 -94 183.5t-240 61.5q-70 0 -98.5 -41.5t-28.5 -112.5
q0 -59 28.5 -109.5t79.5 -81t116 -30.5q100 0 168.5 30zM313.5 -154q-10.5 17 -10.5 42q0 11 1 16q-1 16 18 16q14 0 28.5 -6.5t8.5 -9.5q10 -26 10 -41q0 -13 -6 -20.5t-17 -13.5q-22 0 -32.5 17z" />
    <glyph glyph-name="Ograve" unicode="&#xd2;" horiz-adv-x="657" 
d="M189.5 33q-65.5 34 -102.5 96t-37 143q0 55 22 101t64 73.5t99 27.5q108 0 192.5 -36.5t132 -104.5t47.5 -157q0 -59 -43.5 -99t-106 -59t-119.5 -19q-83 0 -148.5 34zM487.5 81q68.5 30 68.5 100q0 122 -94 183.5t-240 61.5q-70 0 -98.5 -41.5t-28.5 -112.5
q0 -59 28.5 -109.5t79.5 -81t116 -30.5q100 0 168.5 30zM200 608q-15 14 -20 26t0 17q7 7 15 7q17 0 47 -27q2 -2 38 -30t36 -36q0 -18 -6 -23t-22 -5q-15 0 -88 71z" />
    <glyph glyph-name="uni1ECE" unicode="&#x1ece;" horiz-adv-x="657" 
d="M189.5 33q-65.5 34 -102.5 96t-37 143q0 55 22 101t64 73.5t99 27.5q108 0 192.5 -36.5t132 -104.5t47.5 -157q0 -59 -43.5 -99t-106 -59t-119.5 -19q-83 0 -148.5 34zM487.5 81q68.5 30 68.5 100q0 122 -94 183.5t-240 61.5q-70 0 -98.5 -41.5t-28.5 -112.5
q0 -59 28.5 -109.5t79.5 -81t116 -30.5q100 0 168.5 30zM232 510q0 6 10 16l22 21q21 18 33 31.5t12 26.5q0 20 -9 31t-39 11q-13 0 -28 -7t-22 -19q-8 1 -12.5 7.5t-4.5 16.5q0 19 25.5 29t49.5 10q46 0 65 -22t19 -49q0 -22 -11 -36t-33 -32q-10 -7 -18.5 -15t-12.5 -16
q1 -5 -3.5 -12t-15.5 -7q-8 0 -20 6q-7 3 -7 9z" />
    <glyph glyph-name="Ohorn" unicode="&#x1a0;" horiz-adv-x="657" 
d="M573.5 310q33.5 -60 33.5 -134q0 -59 -43.5 -99t-106 -59t-119.5 -19q-83 0 -148.5 34t-102.5 96t-37 143q0 55 22 101t64 73.5t99 27.5q98 0 179 -31q28 1 48 13.5t20 33.5q0 9 -5 21q2 5 8 8t16 2q15 -1 23.5 -8t8.5 -15q0 -28 -14.5 -51t-38.5 -38q60 -39 93.5 -99z
M487.5 81q68.5 30 68.5 100q0 122 -94 183.5t-240 61.5q-70 0 -98.5 -41.5t-28.5 -112.5q0 -59 28.5 -109.5t79.5 -81t116 -30.5q100 0 168.5 30z" />
    <glyph glyph-name="uni1EDA" unicode="&#x1eda;" horiz-adv-x="657" 
d="M573.5 310q33.5 -60 33.5 -134q0 -59 -43.5 -99t-106 -59t-119.5 -19q-83 0 -148.5 34t-102.5 96t-37 143q0 55 22 101t64 73.5t99 27.5q98 0 179 -31q28 1 48 13.5t20 33.5q0 9 -5 21q2 5 8 8t16 2q15 -1 23.5 -8t8.5 -15q0 -28 -14.5 -51t-38.5 -38q60 -39 93.5 -99z
M487.5 81q68.5 30 68.5 100q0 122 -94 183.5t-240 61.5q-70 0 -98.5 -41.5t-28.5 -112.5q0 -59 28.5 -109.5t79.5 -81t116 -30.5q100 0 168.5 30zM175.5 529q-4.5 4 -4.5 19q0 20 32 49t82 66l22 17q18 -9 18 -21t-14.5 -28t-48.5 -45q-40 -34 -67 -61q-15 0 -19.5 4z" />
    <glyph glyph-name="uni1EE2" unicode="&#x1ee2;" horiz-adv-x="657" 
d="M573.5 310q33.5 -60 33.5 -134q0 -59 -43.5 -99t-106 -59t-119.5 -19q-83 0 -148.5 34t-102.5 96t-37 143q0 55 22 101t64 73.5t99 27.5q98 0 179 -31q28 1 48 13.5t20 33.5q0 9 -5 21q2 5 8 8t16 2q15 -1 23.5 -8t8.5 -15q0 -28 -14.5 -51t-38.5 -38q60 -39 93.5 -99z
M487.5 81q68.5 30 68.5 100q0 122 -94 183.5t-240 61.5q-70 0 -98.5 -41.5t-28.5 -112.5q0 -59 28.5 -109.5t79.5 -81t116 -30.5q100 0 168.5 30zM313.5 -154q-10.5 17 -10.5 42q0 11 1 16q-1 16 18 16q14 0 28.5 -6.5t8.5 -9.5q10 -26 10 -41q0 -13 -6 -20.5t-17 -13.5
q-22 0 -32.5 17z" />
    <glyph glyph-name="uni1EDC" unicode="&#x1edc;" horiz-adv-x="657" 
d="M573.5 310q33.5 -60 33.5 -134q0 -59 -43.5 -99t-106 -59t-119.5 -19q-83 0 -148.5 34t-102.5 96t-37 143q0 55 22 101t64 73.5t99 27.5q98 0 179 -31q28 1 48 13.5t20 33.5q0 9 -5 21q2 5 8 8t16 2q15 -1 23.5 -8t8.5 -15q0 -28 -14.5 -51t-38.5 -38q60 -39 93.5 -99z
M487.5 81q68.5 30 68.5 100q0 122 -94 183.5t-240 61.5q-70 0 -98.5 -41.5t-28.5 -112.5q0 -59 28.5 -109.5t79.5 -81t116 -30.5q100 0 168.5 30zM200 608q-15 14 -20 26t0 17q7 7 15 7q17 0 47 -27q2 -2 38 -30t36 -36q0 -18 -6 -23t-22 -5q-15 0 -88 71z" />
    <glyph glyph-name="uni1EDE" unicode="&#x1ede;" horiz-adv-x="657" 
d="M573.5 310q33.5 -60 33.5 -134q0 -59 -43.5 -99t-106 -59t-119.5 -19q-83 0 -148.5 34t-102.5 96t-37 143q0 55 22 101t64 73.5t99 27.5q98 0 179 -31q28 1 48 13.5t20 33.5q0 9 -5 21q2 5 8 8t16 2q15 -1 23.5 -8t8.5 -15q0 -28 -14.5 -51t-38.5 -38q60 -39 93.5 -99z
M487.5 81q68.5 30 68.5 100q0 122 -94 183.5t-240 61.5q-70 0 -98.5 -41.5t-28.5 -112.5q0 -59 28.5 -109.5t79.5 -81t116 -30.5q100 0 168.5 30zM232 510q0 6 10 16l22 21q21 18 33 31.5t12 26.5q0 20 -9 31t-39 11q-13 0 -28 -7t-22 -19q-8 1 -12.5 7.5t-4.5 16.5
q0 19 25.5 29t49.5 10q46 0 65 -22t19 -49q0 -22 -11 -36t-33 -32q-10 -7 -18.5 -15t-12.5 -16q1 -5 -3.5 -12t-15.5 -7q-8 0 -20 6q-7 3 -7 9z" />
    <glyph glyph-name="uni1EE0" unicode="&#x1ee0;" horiz-adv-x="657" 
d="M573.5 310q33.5 -60 33.5 -134q0 -59 -43.5 -99t-106 -59t-119.5 -19q-83 0 -148.5 34t-102.5 96t-37 143q0 55 22 101t64 73.5t99 27.5q98 0 179 -31q28 1 48 13.5t20 33.5q0 9 -5 21q2 5 8 8t16 2q15 -1 23.5 -8t8.5 -15q0 -28 -14.5 -51t-38.5 -38q60 -39 93.5 -99z
M487.5 81q68.5 30 68.5 100q0 122 -94 183.5t-240 61.5q-70 0 -98.5 -41.5t-28.5 -112.5q0 -59 28.5 -109.5t79.5 -81t116 -30.5q100 0 168.5 30zM74 586q0 35 25.5 60t58.5 25q27 0 49 -8.5t57 -32.5q34 -23 63 -23q25 0 43 17t27 46q12 1 18 -3.5t6 -13.5q0 -3 -2 -11
q-11 -30 -24.5 -45.5t-35.5 -22.5q-17 -5 -30 -5q-20 0 -38 7.5t-47 23.5q-25 14 -42 21t-34 7q-29 0 -42 -13t-13 -40q0 -7 2 -25v-3q0 -6 -5.5 -8t-10.5 0q-15 3 -20 17q-5 13 -5 30z" />
    <glyph glyph-name="Ohungarumlaut" unicode="&#x150;" horiz-adv-x="657" 
d="M189.5 33q-65.5 34 -102.5 96t-37 143q0 55 22 101t64 73.5t99 27.5q108 0 192.5 -36.5t132 -104.5t47.5 -157q0 -59 -43.5 -99t-106 -59t-119.5 -19q-83 0 -148.5 34zM487.5 81q68.5 30 68.5 100q0 122 -94 183.5t-240 61.5q-70 0 -98.5 -41.5t-28.5 -112.5
q0 -59 28.5 -109.5t79.5 -81t116 -30.5q100 0 168.5 30zM138 563.5q-5 4.5 -5 19.5q0 28 15.5 44.5t46.5 36.5q10 6 30 20q26 -12 26 -24q0 -9 -10 -20.5t-39 -38.5l-44 -42q-15 0 -20 4.5zM250 548.5q-5 4.5 -5 18.5q0 28 15.5 45.5t46.5 37.5q14 9 29 20q14 -7 20.5 -12.5
t6.5 -12.5q0 -8 -10 -19.5t-35 -34.5l-49 -47q-14 0 -19 4.5z" />
    <glyph glyph-name="uni020E" unicode="&#x20e;" horiz-adv-x="657" 
d="M189.5 33q-65.5 34 -102.5 96t-37 143q0 55 22 101t64 73.5t99 27.5q108 0 192.5 -36.5t132 -104.5t47.5 -157q0 -59 -43.5 -99t-106 -59t-119.5 -19q-83 0 -148.5 34zM487.5 81q68.5 30 68.5 100q0 122 -94 183.5t-240 61.5q-70 0 -98.5 -41.5t-28.5 -112.5
q0 -59 28.5 -109.5t79.5 -81t116 -30.5q100 0 168.5 30zM339 625.5q39 -25.5 39 -63.5q0 -10 -7.5 -17t-20.5 -8h-3q-18 0 -15 15q1 3 1 9q0 23 -22 36.5t-57 13.5q-32 0 -55 -10t-23 -29q0 -4 -6.5 -6.5t-14.5 -2.5q-20 0 -21 7q0 36 33 58.5t83 22.5t89 -25.5z" />
    <glyph glyph-name="Omacron" unicode="&#x14c;" horiz-adv-x="657" 
d="M189.5 33q-65.5 34 -102.5 96t-37 143q0 55 22 101t64 73.5t99 27.5q108 0 192.5 -36.5t132 -104.5t47.5 -157q0 -59 -43.5 -99t-106 -59t-119.5 -19q-83 0 -148.5 34zM487.5 81q68.5 30 68.5 100q0 122 -94 183.5t-240 61.5q-70 0 -98.5 -41.5t-28.5 -112.5
q0 -59 28.5 -109.5t79.5 -81t116 -30.5q100 0 168.5 30zM139 614q20 13 46.5 16.5t79.5 5.5q50 2 61 2q31 0 41 -6.5t10 -27.5q0 -20 -18 -20t-38 5q-5 1 -18 3t-25 2q-25 0 -42 -2.5t-38 -7.5q-42 -10 -79 -10q0 27 20 40z" />
    <glyph glyph-name="uni01EA" unicode="&#x1ea;" horiz-adv-x="657" 
d="M580 95.5q-27 -34.5 -73 -57.5l1 -2q-93 -36 -93 -88q0 -20 14.5 -33.5t48.5 -13.5q32 0 86 15q2 -11 -2.5 -22t-12.5 -14q-36 -14 -73 -14q-48 0 -79 23.5t-31 57.5q0 30 19 55q-25 -3 -47 -3q-83 0 -148.5 34t-102.5 96t-37 143q0 55 22 101t64 73.5t99 27.5
q108 0 192.5 -36.5t132 -104.5t47.5 -157q0 -46 -27 -80.5zM487.5 81q68.5 30 68.5 100q0 122 -94 183.5t-240 61.5q-70 0 -98.5 -41.5t-28.5 -112.5q0 -59 28.5 -109.5t79.5 -81t116 -30.5q100 0 168.5 30z" />
    <glyph glyph-name="Oslash" unicode="&#xd8;" horiz-adv-x="657" 
d="M569.5 317.5q37.5 -62.5 37.5 -141.5q0 -59 -43.5 -99t-106 -59t-119.5 -19q-78 0 -142 31q-61 -71 -76 -67q-9 3 -13.5 11.5t-4.5 18.5q0 7 1 10q5 19 40 61q-44 37 -68.5 90t-24.5 118q0 55 22 101t64 73.5t99 27.5q104 0 183 -33q32 65 60 67q13 -6 13 -20
q0 -8 -8 -29q-4 -11 -19 -40q68 -39 105.5 -101.5zM116 177q21 -45 59 -76l24 25l196 270l1 2q-75 28 -174 28q-127 0 -127 -153q0 -51 21 -96zM487.5 81q68.5 30 68.5 100q0 133 -116 197q-39 -66 -99 -153t-113 -156q44 -18 91 -18q100 0 168.5 30z" />
    <glyph glyph-name="Oslashacute" unicode="&#x1fe;" horiz-adv-x="657" 
d="M569.5 317.5q37.5 -62.5 37.5 -141.5q0 -59 -43.5 -99t-106 -59t-119.5 -19q-78 0 -142 31q-61 -71 -76 -67q-9 3 -13.5 11.5t-4.5 18.5q0 7 1 10q5 19 40 61q-44 37 -68.5 90t-24.5 118q0 55 22 101t64 73.5t99 27.5q104 0 183 -33q32 65 60 67q13 -6 13 -20
q0 -8 -8 -29q-4 -11 -19 -40q68 -39 105.5 -101.5zM116 177q21 -45 59 -76l24 25l196 270l1 2q-75 28 -174 28q-127 0 -127 -153q0 -51 21 -96zM487.5 81q68.5 30 68.5 100q0 133 -116 197q-39 -66 -99 -153t-113 -156q44 -18 91 -18q100 0 168.5 30zM175.5 529
q-4.5 4 -4.5 19q0 20 32 49t82 66l22 17q18 -9 18 -21t-14.5 -28t-48.5 -45q-40 -34 -67 -61q-15 0 -19.5 4z" />
    <glyph glyph-name="Otilde" unicode="&#xd5;" horiz-adv-x="610" 
d="M189.5 33q-65.5 34 -102.5 96t-37 143q0 55 22 101t64 73.5t99 27.5q108 0 192.5 -36.5t132 -104.5t47.5 -157q0 -59 -43.5 -99t-106 -59t-119.5 -19q-83 0 -148.5 34zM487.5 81q68.5 30 68.5 100q0 122 -94 183.5t-240 61.5q-70 0 -98.5 -41.5t-28.5 -112.5
q0 -59 28.5 -109.5t79.5 -81t116 -30.5q100 0 168.5 30zM83 567q0 35 25.5 60t58.5 25q27 0 49 -8.5t57 -32.5q34 -23 63 -23q25 0 43 17t27 46q12 1 18 -3.5t6 -13.5q0 -3 -2 -11q-11 -30 -24.5 -45.5t-35.5 -22.5q-17 -5 -30 -5q-20 0 -38 7.5t-47 23.5q-25 14 -42 21
t-34 7q-29 0 -42 -13t-13 -40q0 -7 2 -25v-3q0 -6 -5.5 -8t-10.5 0q-15 3 -20 17q-5 13 -5 30z" />
    <glyph glyph-name="uni022C" unicode="&#x22c;" horiz-adv-x="657" 
d="M189.5 33q-65.5 34 -102.5 96t-37 143q0 55 22 101t64 73.5t99 27.5q108 0 192.5 -36.5t132 -104.5t47.5 -157q0 -59 -43.5 -99t-106 -59t-119.5 -19q-83 0 -148.5 34zM487.5 81q68.5 30 68.5 100q0 122 -94 183.5t-240 61.5q-70 0 -98.5 -41.5t-28.5 -112.5
q0 -59 28.5 -109.5t79.5 -81t116 -30.5q100 0 168.5 30zM74 586q0 35 25.5 60t58.5 25q27 0 49 -8.5t57 -32.5q34 -23 63 -23q25 0 43 17t27 46q12 1 18 -3.5t6 -13.5q0 -3 -2 -11q-11 -30 -24.5 -45.5t-35.5 -22.5q-17 -5 -30 -5q-20 0 -38 7.5t-47 23.5q-25 14 -42 21
t-34 7q-29 0 -42 -13t-13 -40q0 -7 2 -25v-3q0 -6 -5.5 -8t-10.5 0q-15 3 -20 17q-5 13 -5 30zM139 752q20 13 46.5 16.5t79.5 5.5q50 2 61 2q31 0 41 -6.5t10 -27.5q0 -20 -18 -20t-38 5q-5 1 -18 3t-25 2q-25 0 -42 -2.5t-38 -7.5q-42 -10 -79 -10q0 27 20 40z" />
    <glyph glyph-name="OE" unicode="&#x152;" horiz-adv-x="849" 
d="M439 12.5q-34 11.5 -51 39.5q-15 -21 -42 -32t-79 -18q-72 0 -128.5 34.5t-88 96.5t-31.5 142q-4 56 19.5 105t67.5 78t98 29q70 0 112 -28.5t68 -76.5v61q0 18 9.5 23.5t44.5 5.5l60 -1q132 -3 191 -3h71q29 -11 42 -18.5t13 -24.5q0 -2 -3 -5t-5 -3l-47 15l-327 -7
q-5 0 -6 1l3 -11v-135q14 1 89 10q164 21 229 21q35 0 48 -6q0 -40 -94.5 -54.5t-228.5 -19.5q-12 -1 -24.5 -1t-21.5 -1v-164q8 -15 58 -15l38 1q36 0 78 3t55 4q77 7 133 7q24 0 34 -3t10 -10q0 -31 -85 -41t-187 -10h-33q-55 0 -89 11.5zM346.5 95.5
q30.5 41.5 28.5 114.5q-2 95 -24.5 144.5t-56 65.5t-80.5 16q-87 0 -118.5 -50t-31.5 -111q0 -57 26 -108t69 -82t89 -31q68 0 98.5 41.5z" />
    <glyph glyph-name="P" unicode="P" horiz-adv-x="519" 
d="M182 40q-19 76 -29 153.5t-18 255.5q0 12 8.5 21t19.5 9h9q5 -33 7 -106q0 -8 2 -53.5t10 -85.5q116 11 185.5 45t69.5 97q0 79 -70 129t-211 50q-59 0 -100 -22q-7 -3 -10 -12.5t-5 -26.5q-2 -18 -5 -27t-11 -9q-9 0 -11.5 13.5t-2.5 62.5q0 28 38 44t98 16
q175 0 260 -55t85 -169q0 -61 -49 -102t-119 -60.5t-134 -19.5q2 -12 4 -22t3 -17q14 -68 14 -105q0 -22 -5.5 -35t-23.5 -9z" />
    <glyph glyph-name="Thorn" unicode="&#xde;" horiz-adv-x="497" 
d="M112 -158q-14 0 -22.5 5.5t-12.5 17.5l-20 435v308q3 6 13 6q9 0 22 -5.5t22 -11.5l-3 -294q21 22 51.5 33t66.5 11q59 0 117 -27.5t95.5 -76.5t37.5 -110q0 -62 -50.5 -96.5t-123.5 -34.5q-53 0 -102.5 19t-82.5 57l12 -234q-16 -2 -20 -2zM392 224.5q-31 38.5 -74.5 58
t-79.5 19.5q-126 0 -126 -110q0 -38 31.5 -69t79.5 -48.5t94 -17.5q47 0 76.5 18.5t29.5 55.5q0 55 -31 93.5z" />
    <glyph glyph-name="Q" unicode="Q" horiz-adv-x="643" 
d="M619 -108q-28 0 -65 28t-114 99q-11 -2 -30.5 -5l-39.5 -6l-46 -7q-8 -1 -24 -1q-76 0 -139 37.5t-100 100.5t-37 135q0 69 27 125t72.5 87.5t98.5 31.5q102 0 193 -49.5t146 -126t55 -152.5q0 -43 -33.5 -80t-88.5 -67q40 -34 86 -65q34 -22 51 -37t23 -33
q-16 -15 -35 -15zM336 67q20 2 48 7q-43 47 -64.5 78.5t-21.5 52.5q0 17 15 27q17 0 36.5 -22t49.5 -66q26 -41 40 -55q58 15 93.5 42t35.5 64q0 61 -42 123t-118.5 103.5t-173.5 41.5q-72 0 -113 -53.5t-41 -136.5q-4 -59 24.5 -106.5t79 -74.5t109.5 -27q23 0 43 2z" />
    <glyph glyph-name="R" unicode="R" horiz-adv-x="553" 
d="M524 -42q-47 0 -149.5 86.5t-181.5 172.5q5 -27 19 -91q6 -25 10.5 -48t4.5 -36q0 -29 -21 -35q-5 -13 -26.5 65t-40 180.5t-18.5 171.5q0 35 6 57q13 10 22 10q18 0 25 -30.5t13 -95.5l2 -23q39 2 106.5 17t121 41.5t53.5 63.5q0 20 -28.5 44.5t-87 41.5t-143.5 17h-32
q-57 0 -89 -18.5t-32 -78.5q-15 0 -27 19t-12 35q0 62 59.5 81t171.5 19q59 0 123 -19t108 -59.5t44 -100.5q0 -41 -36.5 -68t-85.5 -42t-120 -31q-59 -13 -77 -19q77 -104 148.5 -162t149.5 -105q27 -16 38 -24t11 -15t-9 -13q-7 -8 -20 -8z" />
    <glyph glyph-name="Racute" unicode="&#x154;" horiz-adv-x="553" 
d="M524 -42q-47 0 -149.5 86.5t-181.5 172.5q5 -27 19 -91q6 -25 10.5 -48t4.5 -36q0 -29 -21 -35q-5 -13 -26.5 65t-40 180.5t-18.5 171.5q0 35 6 57q13 10 22 10q18 0 25 -30.5t13 -95.5l2 -23q39 2 106.5 17t121 41.5t53.5 63.5q0 20 -28.5 44.5t-87 41.5t-143.5 17h-32
q-57 0 -89 -18.5t-32 -78.5q-15 0 -27 19t-12 35q0 62 59.5 81t171.5 19q59 0 123 -19t108 -59.5t44 -100.5q0 -41 -36.5 -68t-85.5 -42t-120 -31q-59 -13 -77 -19q77 -104 148.5 -162t149.5 -105q27 -16 38 -24t11 -15t-9 -13q-7 -8 -20 -8zM159.5 677q-4.5 4 -4.5 19
q0 20 32 49t82 66l22 17q18 -9 18 -21t-14.5 -28t-48.5 -45q-40 -34 -67 -61q-15 0 -19.5 4z" />
    <glyph glyph-name="Rcaron" unicode="&#x158;" horiz-adv-x="553" 
d="M524 -42q-47 0 -149.5 86.5t-181.5 172.5q5 -27 19 -91q6 -25 10.5 -48t4.5 -36q0 -29 -21 -35q-5 -13 -26.5 65t-40 180.5t-18.5 171.5q0 35 6 57q13 10 22 10q18 0 25 -30.5t13 -95.5l2 -23q39 2 106.5 17t121 41.5t53.5 63.5q0 20 -28.5 44.5t-87 41.5t-143.5 17h-32
q-57 0 -89 -18.5t-32 -78.5q-15 0 -27 19t-12 35q0 62 59.5 81t171.5 19q59 0 123 -19t108 -59.5t44 -100.5q0 -41 -36.5 -68t-85.5 -42t-120 -31q-59 -13 -77 -19q77 -104 148.5 -162t149.5 -105q27 -16 38 -24t11 -15t-9 -13q-7 -8 -20 -8zM216 679q-13 31 -28.5 43.5
t-53.5 31.5q-30 15 -37 19q11 21 33 21q25 0 57.5 -20.5t59.5 -50.5q11 8 33 26q26 22 42 32.5t25 10.5q12 0 15.5 -4t3.5 -13t-2 -13t-7.5 -9t-9.5 -9q-6 -6 -19.5 -15t-18.5 -12q-28 -18 -37 -27q-10 -9 -17 -12.5t-21 -3.5t-18 5z" />
    <glyph glyph-name="Rcommaaccent" unicode="&#x156;" horiz-adv-x="553" 
d="M524 -42q-47 0 -149.5 86.5t-181.5 172.5q5 -27 19 -91q6 -25 10.5 -48t4.5 -36q0 -29 -21 -35q-5 -13 -26.5 65t-40 180.5t-18.5 171.5q0 35 6 57q13 10 22 10q18 0 25 -30.5t13 -95.5l2 -23q39 2 106.5 17t121 41.5t53.5 63.5q0 20 -28.5 44.5t-87 41.5t-143.5 17h-32
q-57 0 -89 -18.5t-32 -78.5q-15 0 -27 19t-12 35q0 62 59.5 81t171.5 19q59 0 123 -19t108 -59.5t44 -100.5q0 -41 -36.5 -68t-85.5 -42t-120 -31q-59 -13 -77 -19q77 -104 148.5 -162t149.5 -105q27 -16 38 -24t11 -15t-9 -13q-7 -8 -20 -8zM251 -333q0 20 9 47
q14 38 14 80l-1 38h-3q-11 0 -14 4.5t-3 13.5q0 48 35 48q25 0 33.5 -22.5t8.5 -57.5l-1 -33q0 -54 -17 -95t-41 -41q-20 0 -20 18z" />
    <glyph glyph-name="uni0210" unicode="&#x210;" horiz-adv-x="553" 
d="M107 755q-14 12 -18.5 23t0.5 16q4 6 13 6q15 0 43 -24q2 -2 34 -27t32 -32q0 -17 -5.5 -21.5t-19.5 -4.5q-13 0 -79 64zM206 755q-14 12 -18.5 23t0.5 16q4 6 13 6q15 0 43 -24q2 -2 34 -27t32 -32q0 -17 -5.5 -21.5t-19.5 -4.5q-13 0 -79 64zM524 -42
q-47 0 -149.5 86.5t-181.5 172.5q5 -27 19 -91q6 -25 10.5 -48t4.5 -36q0 -29 -21 -35q-5 -13 -26.5 65t-40 180.5t-18.5 171.5q0 35 6 57q13 10 22 10q18 0 25 -30.5t13 -95.5l2 -23q39 2 106.5 17t121 41.5t53.5 63.5q0 20 -28.5 44.5t-87 41.5t-143.5 17h-32
q-57 0 -89 -18.5t-32 -78.5q-15 0 -27 19t-12 35q0 62 59.5 81t171.5 19q59 0 123 -19t108 -59.5t44 -100.5q0 -41 -36.5 -68t-85.5 -42t-120 -31q-59 -13 -77 -19q77 -104 148.5 -162t149.5 -105q27 -16 38 -24t11 -15t-9 -13q-7 -8 -20 -8z" />
    <glyph glyph-name="uni0212" unicode="&#x212;" horiz-adv-x="553" 
d="M524 -42q-47 0 -149.5 86.5t-181.5 172.5q5 -27 19 -91q6 -25 10.5 -48t4.5 -36q0 -29 -21 -35q-5 -13 -26.5 65t-40 180.5t-18.5 171.5q0 35 6 57q13 10 22 10q18 0 25 -30.5t13 -95.5l2 -23q39 2 106.5 17t121 41.5t53.5 63.5q0 20 -28.5 44.5t-87 41.5t-143.5 17h-32
q-57 0 -89 -18.5t-32 -78.5q-15 0 -27 19t-12 35q0 62 59.5 81t171.5 19q59 0 123 -19t108 -59.5t44 -100.5q0 -41 -36.5 -68t-85.5 -42t-120 -31q-59 -13 -77 -19q77 -104 148.5 -162t149.5 -105q27 -16 38 -24t11 -15t-9 -13q-7 -8 -20 -8zM323 773.5q39 -25.5 39 -63.5
q0 -10 -7.5 -17t-20.5 -8h-3q-18 0 -15 15q1 3 1 9q0 23 -22 36.5t-57 13.5q-32 0 -55 -10t-23 -29q0 -4 -6.5 -6.5t-14.5 -2.5q-20 0 -21 7q0 36 33 58.5t83 22.5t89 -25.5z" />
    <glyph glyph-name="S" unicode="S" horiz-adv-x="642" 
d="M493 61q45 23 45 67q0 39 -27 67.5t-67 48.5t-109 47q-6 2 -29 11q-94 38 -144.5 76t-50.5 98q0 67 53 101t136 34q61 0 112.5 -15.5t82 -42.5t30.5 -61q-12 -6 -23 -6q-12 0 -24.5 5.5t-36.5 18.5q-39 21 -73 33.5t-80 12.5q-58 0 -94 -20t-36 -56q0 -28 24.5 -51
t62 -40.5t100.5 -41.5q80 -31 132 -58t88.5 -68.5t36.5 -98.5q0 -67 -64 -103.5t-159 -36.5q-75 0 -148 22t-125 65.5t-66 104.5q0 27 15 46.5t37 19.5q0 -65 36.5 -110.5t99 -68.5t138.5 -23q82 0 127 23z" />
    <glyph glyph-name="Sacute" unicode="&#x15a;" horiz-adv-x="642" 
d="M493 61q45 23 45 67q0 39 -27 67.5t-67 48.5t-109 47q-6 2 -29 11q-94 38 -144.5 76t-50.5 98q0 67 53 101t136 34q61 0 112.5 -15.5t82 -42.5t30.5 -61q-12 -6 -23 -6q-12 0 -24.5 5.5t-36.5 18.5q-39 21 -73 33.5t-80 12.5q-58 0 -94 -20t-36 -56q0 -28 24.5 -51
t62 -40.5t100.5 -41.5q80 -31 132 -58t88.5 -68.5t36.5 -98.5q0 -67 -64 -103.5t-159 -36.5q-75 0 -148 22t-125 65.5t-66 104.5q0 27 15 46.5t37 19.5q0 -65 36.5 -110.5t99 -68.5t138.5 -23q82 0 127 23zM252.5 659q-4.5 4 -4.5 19q0 20 32 49t82 66l22 17q18 -9 18 -21
t-14.5 -28t-48.5 -45q-40 -34 -67 -61q-15 0 -19.5 4z" />
    <glyph glyph-name="Scaron" unicode="&#x160;" horiz-adv-x="642" 
d="M493 61q45 23 45 67q0 39 -27 67.5t-67 48.5t-109 47q-6 2 -29 11q-94 38 -144.5 76t-50.5 98q0 67 53 101t136 34q61 0 112.5 -15.5t82 -42.5t30.5 -61q-12 -6 -23 -6q-12 0 -24.5 5.5t-36.5 18.5q-39 21 -73 33.5t-80 12.5q-58 0 -94 -20t-36 -56q0 -28 24.5 -51
t62 -40.5t100.5 -41.5q80 -31 132 -58t88.5 -68.5t36.5 -98.5q0 -67 -64 -103.5t-159 -36.5q-75 0 -148 22t-125 65.5t-66 104.5q0 27 15 46.5t37 19.5q0 -65 36.5 -110.5t99 -68.5t138.5 -23q82 0 127 23zM309 661q-13 31 -28.5 43.5t-53.5 31.5q-30 15 -37 19q11 21 33 21
q25 0 57.5 -20.5t59.5 -50.5q11 8 33 26q26 22 42 32.5t25 10.5q12 0 15.5 -4t3.5 -13t-2 -13t-7.5 -9t-9.5 -9q-6 -6 -19.5 -15t-18.5 -12q-28 -18 -37 -27q-10 -9 -17 -12.5t-21 -3.5t-18 5z" />
    <glyph glyph-name="Scedilla" unicode="&#x15e;" horiz-adv-x="642" 
d="M538 18.5q-64 -36.5 -159 -36.5q-30 0 -68 5q2 -32 19 -49t53 -28q44 -16 67 -32.5t23 -51.5q0 -29 -17.5 -53t-43.5 -37t-52 -13q-88 0 -138 96q6 6 15 10t18 4q12 0 19.5 -7.5t17.5 -22.5q12 -22 26.5 -34t42.5 -12q26 0 42.5 15.5t16.5 41.5q0 29 -12.5 41t-30 18.5
t-24.5 9.5q-36 13 -59 38t-26 73q-87 19 -149.5 65.5t-78.5 114.5q0 27 15 46.5t37 19.5q0 -65 36.5 -110.5t99 -68.5t138.5 -23q82 0 127 23t45 67q0 39 -27 67.5t-67 48.5t-109 47q-6 2 -29 11q-94 38 -144.5 76t-50.5 98q0 67 53 101t136 34q61 0 112.5 -15.5t82 -42.5
t30.5 -61q-12 -6 -23 -6q-12 0 -24.5 5.5t-36.5 18.5q-39 21 -73 33.5t-80 12.5q-58 0 -94 -20t-36 -56q0 -28 24.5 -51t62 -40.5t100.5 -41.5q80 -31 132 -58t88.5 -68.5t36.5 -98.5q0 -67 -64 -103.5z" />
    <glyph glyph-name="Scircumflex" unicode="&#x15c;" horiz-adv-x="642" 
d="M493 61q45 23 45 67q0 39 -27 67.5t-67 48.5t-109 47q-6 2 -29 11q-94 38 -144.5 76t-50.5 98q0 67 53 101t136 34q61 0 112.5 -15.5t82 -42.5t30.5 -61q-12 -6 -23 -6q-12 0 -24.5 5.5t-36.5 18.5q-39 21 -73 33.5t-80 12.5q-58 0 -94 -20t-36 -56q0 -28 24.5 -51
t62 -40.5t100.5 -41.5q80 -31 132 -58t88.5 -68.5t36.5 -98.5q0 -67 -64 -103.5t-159 -36.5q-75 0 -148 22t-125 65.5t-66 104.5q0 27 15 46.5t37 19.5q0 -65 36.5 -110.5t99 -68.5t138.5 -23q82 0 127 23zM419 670q-10 13 -25 41q-26 48 -53 82q-12 -35 -34.5 -67.5
t-47 -52.5t-41.5 -20q-19 0 -29 27l36 31q28 24 41 37.5t23 35t19 59.5q3 9 16 9q16 0 23.5 -5t17.5 -22q8 -14 43 -53q6 -8 17 -21t16 -20q13 -20 17 -31t4 -24q0 -11 -5.5 -15t-16.5 -4t-21 13z" />
    <glyph glyph-name="Scommaaccent" unicode="&#x218;" horiz-adv-x="642" 
d="M493 61q45 23 45 67q0 39 -27 67.5t-67 48.5t-109 47q-6 2 -29 11q-94 38 -144.5 76t-50.5 98q0 67 53 101t136 34q61 0 112.5 -15.5t82 -42.5t30.5 -61q-12 -6 -23 -6q-12 0 -24.5 5.5t-36.5 18.5q-39 21 -73 33.5t-80 12.5q-58 0 -94 -20t-36 -56q0 -28 24.5 -51
t62 -40.5t100.5 -41.5q80 -31 132 -58t88.5 -68.5t36.5 -98.5q0 -67 -64 -103.5t-159 -36.5q-75 0 -148 22t-125 65.5t-66 104.5q0 27 15 46.5t37 19.5q0 -65 36.5 -110.5t99 -68.5t138.5 -23q82 0 127 23zM246 -303q0 20 9 47q14 38 14 80l-1 38h-3q-11 0 -14 4.5t-3 13.5
q0 48 35 48q25 0 33.5 -22.5t8.5 -57.5l-1 -33q0 -54 -17 -95t-41 -41q-20 0 -20 18z" />
    <glyph glyph-name="uni1E9E" unicode="&#x1e9e;" horiz-adv-x="515" 
d="M437.5 236q27.5 -46 27.5 -99q0 -66 -31.5 -101.5t-81.5 -35.5q-80 0 -96 78q7 6 12.5 7.5t15.5 1.5q8 0 17 -14q10 -13 20 -20t29 -7q35 0 50.5 18t15.5 59q0 106 -82 138q-54 18 -78.5 58t-24.5 92q0 58 30 106t82 62q-21 42 -43 58t-59 16q-69 0 -104 -76t-35 -203
q0 -74 16.5 -133t37.5 -96.5t50 -78.5q11 -14 18.5 -27t7.5 -20q0 -20 -17 -20q-34 0 -68.5 46.5t-60 121t-32.5 151.5q-4 44 -4 77q0 124 43.5 216.5t152.5 92.5q61 0 103.5 -39t48.5 -102v-3q0 -14 -18 -17q-39 -7 -69 -42.5t-30 -84.5q0 -89 86 -116q43 -18 70.5 -64z
" />
    <glyph glyph-name="uni018F" unicode="&#x18f;" horiz-adv-x="580" 
d="M414 649.5q53 -43.5 84.5 -124t31.5 -185.5q0 -93 -33 -171t-97 -125t-153 -47q-85 0 -132 47t-44 139q0 66 39.5 116t102 77.5t128.5 27.5q43 0 65.5 -9t22.5 -34q0 -8 -3.5 -10t-18.5 -2l-67 1q-60 0 -111.5 -20t-82 -58.5t-30.5 -91.5q0 -67 35 -102.5t91 -35.5
q64 0 118 41t85 109.5t31 148.5q0 88 -24 156t-67.5 105.5t-100.5 37.5q-37 0 -64 -5.5t-69 -18.5q-8 -2 -32.5 -9t-48.5 -12q38 51 101.5 74.5t126.5 23.5t116 -43.5z" />
    <glyph glyph-name="T" unicode="T" horiz-adv-x="573" 
d="M310 28q-11 29 -18 78l-3 25q-15 80 -24 159.5t-18 192.5l-6 74q-60 -1 -171 5l-20 1q-14 1 -19.5 13.5t-5.5 34.5h69q174 0 314 -13t140 -53q0 -11 -3.5 -15t-14.5 -4q-40 3 -124 17l-46 7t-61 8q0 -145 43 -446q2 -15 14 -43q5 -12 9.5 -25.5t4.5 -24.5q0 -14 -4 -17
t-9.5 -3h-7.5q-28 0 -39 29z" />
    <glyph glyph-name="Tbar" unicode="&#x166;" horiz-adv-x="573" 
d="M94 611q174 0 314 -13t140 -53q0 -11 -3.5 -15t-14.5 -4q-40 3 -124 17l-46 7t-61 8q0 -80 15 -232q10 0 30 2q11 1 31 1q40 0 61 -8t21 -19q0 -20 -19 -20q-15 0 -32 5q-24 6 -48 6q-19 0 -40 -3q14 -112 24 -178q2 -15 14 -43q5 -12 9.5 -25.5t4.5 -24.5q0 -14 -4 -17
t-9.5 -3h-7.5q-28 0 -39 29t-18 78l-3 25q-13 66 -23 150l-20 -4q-39 -8 -63 -12t-49 -4q0 23 33 37t95 22q-12 128 -17 188l-4 49q-60 -1 -171 5l-20 1q-14 1 -19.5 13.5t-5.5 34.5h69z" />
    <glyph glyph-name="Tcaron" unicode="&#x164;" horiz-adv-x="573" 
d="M310 28q-11 29 -18 78l-3 25q-15 80 -24 159.5t-18 192.5l-6 74q-60 -1 -171 5l-20 1q-14 1 -19.5 13.5t-5.5 34.5h69q174 0 314 -13t140 -53q0 -11 -3.5 -15t-14.5 -4q-40 3 -124 17l-46 7t-61 8q0 -145 43 -446q2 -15 14 -43q5 -12 9.5 -25.5t4.5 -24.5q0 -14 -4 -17
t-9.5 -3h-7.5q-28 0 -39 29zM255 657q-13 31 -28.5 43.5t-53.5 31.5q-30 15 -37 19q11 21 33 21q25 0 57.5 -20.5t59.5 -50.5q11 8 33 26q26 22 42 32.5t25 10.5q12 0 15.5 -4t3.5 -13t-2 -13t-7.5 -9t-9.5 -9q-6 -6 -19.5 -15t-18.5 -12q-28 -18 -37 -27q-10 -9 -17 -12.5
t-21 -3.5t-18 5z" />
    <glyph glyph-name="uni0162" unicode="&#x162;" horiz-adv-x="573" 
d="M544.5 530q-3.5 -4 -14.5 -4q-40 3 -124 17l-46 7t-61 8q0 -145 43 -446q2 -15 14 -43q5 -12 9.5 -25.5t4.5 -24.5q0 -7 -1 -10q6 -9 6 -24q0 -37 17 -55.5t55 -30.5q44 -16 67 -32.5t23 -51.5q0 -29 -17.5 -53t-43.5 -37t-52 -13q-88 0 -138 96q6 6 15 10t18 4
q12 0 19.5 -7.5t17.5 -22.5q12 -22 26.5 -34t42.5 -12q26 0 42.5 15.5t16.5 41.5q0 29 -12.5 41t-30 18.5t-24.5 9.5q-39 14 -62.5 42t-23.5 84v5q-18 10 -25.5 36t-13.5 68l-3 24q-15 80 -24 159.5t-18 192.5l-6 74q-60 -1 -171 5l-20 1q-14 1 -19.5 13.5t-5.5 34.5h69
q174 0 314 -13t140 -53q0 -11 -3.5 -15z" />
    <glyph glyph-name="uni021A" unicode="&#x21a;" horiz-adv-x="573" 
d="M310 28q-11 29 -18 78l-3 25q-15 80 -24 159.5t-18 192.5l-6 74q-60 -1 -171 5l-20 1q-14 1 -19.5 13.5t-5.5 34.5h69q174 0 314 -13t140 -53q0 -11 -3.5 -15t-14.5 -4q-40 3 -124 17l-46 7t-61 8q0 -145 43 -446q2 -15 14 -43q5 -12 9.5 -25.5t4.5 -24.5q0 -14 -4 -17
t-9.5 -3h-7.5q-28 0 -39 29zM310 -314q0 20 9 47q14 38 14 80l-1 38h-3q-11 0 -14 4.5t-3 13.5q0 48 35 48q25 0 33.5 -22.5t8.5 -57.5l-1 -33q0 -54 -17 -95t-41 -41q-20 0 -20 18z" />
    <glyph glyph-name="U" unicode="U" horiz-adv-x="632" 
d="M118.5 105q-49.5 106 -57.5 276q-1 15 -1 43q0 57 14.5 88.5t54.5 31.5q11 0 17 -5.5t6 -14.5q0 -19 -23 -37q-13 0 -17.5 -17t-4.5 -52q0 -32 1 -51q6 -149 55 -235.5t136 -86.5q50 0 90 24t62.5 64.5t22.5 87.5q-10 82 -16 115t-22 107q-7 29 -7 51q0 23 9 32t27 9
q11 0 17 -13t11 -51t13 -124q5 -49 19.5 -96t38.5 -108q2 -6 11 -29.5t13 -38.5t4 -24q0 -23 -24 -23q-8 0 -59 123q-11 -45 -45 -79.5t-81 -53.5t-97 -19q-118 0 -167.5 106z" />
    <glyph glyph-name="Uacute" unicode="&#xda;" horiz-adv-x="632" 
d="M118.5 105q-49.5 106 -57.5 276q-1 15 -1 43q0 57 14.5 88.5t54.5 31.5q11 0 17 -5.5t6 -14.5q0 -19 -23 -37q-13 0 -17.5 -17t-4.5 -52q0 -32 1 -51q6 -149 55 -235.5t136 -86.5q50 0 90 24t62.5 64.5t22.5 87.5q-10 82 -16 115t-22 107q-7 29 -7 51q0 23 9 32t27 9
q11 0 17 -13t11 -51t13 -124q5 -49 19.5 -96t38.5 -108q2 -6 11 -29.5t13 -38.5t4 -24q0 -23 -24 -23q-8 0 -59 123q-11 -45 -45 -79.5t-81 -53.5t-97 -19q-118 0 -167.5 106zM193.5 601q-4.5 4 -4.5 19q0 20 32 49t82 66l22 17q18 -9 18 -21t-14.5 -28t-48.5 -45
q-40 -34 -67 -61q-15 0 -19.5 4z" />
    <glyph glyph-name="Ubreve" unicode="&#x16c;" horiz-adv-x="632" 
d="M118.5 105q-49.5 106 -57.5 276q-1 15 -1 43q0 57 14.5 88.5t54.5 31.5q11 0 17 -5.5t6 -14.5q0 -19 -23 -37q-13 0 -17.5 -17t-4.5 -52q0 -32 1 -51q6 -149 55 -235.5t136 -86.5q50 0 90 24t62.5 64.5t22.5 87.5q-10 82 -16 115t-22 107q-7 29 -7 51q0 23 9 32t27 9
q11 0 17 -13t11 -51t13 -124q5 -49 19.5 -96t38.5 -108q2 -6 11 -29.5t13 -38.5t4 -24q0 -23 -24 -23q-8 0 -59 123q-11 -45 -45 -79.5t-81 -53.5t-97 -19q-118 0 -167.5 106zM177 657.5q-33 22.5 -33 58.5q1 7 21 7q8 0 14.5 -2.5t6.5 -6.5q0 -19 23 -29t55 -10
q35 0 57 13.5t22 36.5q0 6 -1 9v4q0 11 15 11q14 0 22.5 -7.5t8.5 -17.5q0 -38 -39 -63.5t-89 -25.5t-83 22.5z" />
    <glyph glyph-name="Ucircumflex" unicode="&#xdb;" horiz-adv-x="632" 
d="M118.5 105q-49.5 106 -57.5 276q-1 15 -1 43q0 57 14.5 88.5t54.5 31.5q11 0 17 -5.5t6 -14.5q0 -19 -23 -37q-13 0 -17.5 -17t-4.5 -52q0 -32 1 -51q6 -149 55 -235.5t136 -86.5q50 0 90 24t62.5 64.5t22.5 87.5q-10 82 -16 115t-22 107q-7 29 -7 51q0 23 9 32t27 9
q11 0 17 -13t11 -51t13 -124q5 -49 19.5 -96t38.5 -108q2 -6 11 -29.5t13 -38.5t4 -24q0 -23 -24 -23q-8 0 -59 123q-11 -45 -45 -79.5t-81 -53.5t-97 -19q-118 0 -167.5 106zM360 612q-10 13 -25 41q-26 48 -53 82q-12 -35 -34.5 -67.5t-47 -52.5t-41.5 -20q-19 0 -29 27
l36 31q28 24 41 37.5t23 35t19 59.5q3 9 16 9q16 0 23.5 -5t17.5 -22q8 -14 43 -53q6 -8 17 -21t16 -20q13 -20 17 -31t4 -24q0 -11 -5.5 -15t-16.5 -4t-21 13z" />
    <glyph glyph-name="uni0214" unicode="&#x214;" horiz-adv-x="632" 
d="M141 679q-14 12 -18.5 23t0.5 16q5 6 13 6q15 0 43 -24q2 -2 34 -27t32 -32q0 -17 -5.5 -21.5t-19.5 -4.5q-13 0 -79 64zM240 679q-14 12 -18.5 23t0.5 16q5 6 13 6q15 0 43 -24q2 -2 34 -27t32 -32q0 -17 -5.5 -21.5t-19.5 -4.5q-13 0 -79 64zM118.5 105
q-49.5 106 -57.5 276q-1 15 -1 43q0 57 14.5 88.5t54.5 31.5q11 0 17 -5.5t6 -14.5q0 -19 -23 -37q-13 0 -17.5 -17t-4.5 -52q0 -32 1 -51q6 -149 55 -235.5t136 -86.5q50 0 90 24t62.5 64.5t22.5 87.5q-10 82 -16 115t-22 107q-7 29 -7 51q0 23 9 32t27 9q11 0 17 -13
t11 -51t13 -124q5 -49 19.5 -96t38.5 -108q2 -6 11 -29.5t13 -38.5t4 -24q0 -23 -24 -23q-8 0 -59 123q-11 -45 -45 -79.5t-81 -53.5t-97 -19q-118 0 -167.5 106z" />
    <glyph glyph-name="Udieresis" unicode="&#xdc;" horiz-adv-x="632" 
d="M118.5 105q-49.5 106 -57.5 276q-1 15 -1 43q0 57 14.5 88.5t54.5 31.5q11 0 17 -5.5t6 -14.5q0 -19 -23 -37q-13 0 -17.5 -17t-4.5 -52q0 -32 1 -51q6 -149 55 -235.5t136 -86.5q50 0 90 24t62.5 64.5t22.5 87.5q-10 82 -16 115t-22 107q-7 29 -7 51q0 23 9 32t27 9
q11 0 17 -13t11 -51t13 -124q5 -49 19.5 -96t38.5 -108q2 -6 11 -29.5t13 -38.5t4 -24q0 -23 -24 -23q-8 0 -59 123q-11 -45 -45 -79.5t-81 -53.5t-97 -19q-118 0 -167.5 106zM151 625.5q-14 16.5 -14 30.5q0 9 16.5 29t25.5 20q29 0 44 -17t15 -37q0 -13 -17.5 -27.5
t-36.5 -14.5t-33 16.5zM307 625.5q-13 16.5 -13 30.5q0 9 16.5 29t26.5 20q27 0 42 -17t15 -37q0 -13 -17.5 -27.5t-35.5 -14.5q-21 0 -34 16.5z" />
    <glyph glyph-name="uni1EE4" unicode="&#x1ee4;" horiz-adv-x="632" 
d="M118.5 105q-49.5 106 -57.5 276q-1 15 -1 43q0 57 14.5 88.5t54.5 31.5q11 0 17 -5.5t6 -14.5q0 -19 -23 -37q-13 0 -17.5 -17t-4.5 -52q0 -32 1 -51q6 -149 55 -235.5t136 -86.5q50 0 90 24t62.5 64.5t22.5 87.5q-10 82 -16 115t-22 107q-7 29 -7 51q0 23 9 32t27 9
q11 0 17 -13t11 -51t13 -124q5 -49 19.5 -96t38.5 -108q2 -6 11 -29.5t13 -38.5t4 -24q0 -23 -24 -23q-8 0 -59 123q-11 -45 -45 -79.5t-81 -53.5t-97 -19q-118 0 -167.5 106zM258.5 -154q-10.5 17 -10.5 42q0 11 1 16q-1 16 18 16q14 0 28.5 -6.5t8.5 -9.5q10 -26 10 -41
q0 -13 -6 -20.5t-17 -13.5q-22 0 -32.5 17z" />
    <glyph glyph-name="Ugrave" unicode="&#xd9;" horiz-adv-x="632" 
d="M118.5 105q-49.5 106 -57.5 276q-1 15 -1 43q0 57 14.5 88.5t54.5 31.5q11 0 17 -5.5t6 -14.5q0 -19 -23 -37q-13 0 -17.5 -17t-4.5 -52q0 -32 1 -51q6 -149 55 -235.5t136 -86.5q50 0 90 24t62.5 64.5t22.5 87.5q-10 82 -16 115t-22 107q-7 29 -7 51q0 23 9 32t27 9
q11 0 17 -13t11 -51t13 -124q5 -49 19.5 -96t38.5 -108q2 -6 11 -29.5t13 -38.5t4 -24q0 -23 -24 -23q-8 0 -59 123q-11 -45 -45 -79.5t-81 -53.5t-97 -19q-118 0 -167.5 106zM218 680q-15 14 -20 26t0 17q7 7 15 7q17 0 47 -27q2 -2 38 -30t36 -36q0 -18 -6 -23t-22 -5
q-15 0 -88 71z" />
    <glyph glyph-name="uni1EE6" unicode="&#x1ee6;" horiz-adv-x="632" 
d="M118.5 105q-49.5 106 -57.5 276q-1 15 -1 43q0 57 14.5 88.5t54.5 31.5q11 0 17 -5.5t6 -14.5q0 -19 -23 -37q-13 0 -17.5 -17t-4.5 -52q0 -32 1 -51q6 -149 55 -235.5t136 -86.5q50 0 90 24t62.5 64.5t22.5 87.5q-10 82 -16 115t-22 107q-7 29 -7 51q0 23 9 32t27 9
q11 0 17 -13t11 -51t13 -124q5 -49 19.5 -96t38.5 -108q2 -6 11 -29.5t13 -38.5t4 -24q0 -23 -24 -23q-8 0 -59 123q-11 -45 -45 -79.5t-81 -53.5t-97 -19q-118 0 -167.5 106zM250 582q0 6 10 16l22 21q21 18 33 31.5t12 26.5q0 20 -9 31t-39 11q-13 0 -28 -7t-22 -19
q-8 1 -12.5 7.5t-4.5 16.5q0 19 25.5 29t49.5 10q46 0 65 -22t19 -49q0 -22 -11 -36t-33 -32q-10 -7 -18.5 -15t-12.5 -16q1 -5 -3.5 -12t-15.5 -7q-8 0 -20 6q-7 3 -7 9z" />
    <glyph glyph-name="Uhorn" unicode="&#x1af;" horiz-adv-x="632" 
d="M525.5 251q14.5 -47 38.5 -108q2 -6 11 -29.5t13 -38.5t4 -24q0 -23 -24 -23q-8 0 -59 123q-11 -45 -45 -79.5t-81 -53.5t-97 -19q-118 0 -167.5 106t-57.5 276q-1 15 -1 43q0 57 14.5 88.5t54.5 31.5q11 0 17 -5.5t6 -14.5q0 -19 -23 -37q-13 0 -17.5 -17t-4.5 -52
q0 -32 1 -51q6 -149 55 -235.5t136 -86.5q50 0 90 24t62.5 64.5t22.5 87.5q-10 82 -16 115t-22 107q-7 29 -7 51q0 23 9 32t27 9q5 0 7 -1q23 4 37.5 15.5t14.5 29.5q0 9 -5 21q2 5 8 8t16 2q15 -1 23.5 -8t8.5 -15q0 -37 -24 -64.5t-60 -37.5q7 -47 15 -138q5 -49 19.5 -96
z" />
    <glyph glyph-name="uni1EE8" unicode="&#x1ee8;" horiz-adv-x="632" 
d="M525.5 251q14.5 -47 38.5 -108q2 -6 11 -29.5t13 -38.5t4 -24q0 -23 -24 -23q-8 0 -59 123q-11 -45 -45 -79.5t-81 -53.5t-97 -19q-118 0 -167.5 106t-57.5 276q-1 15 -1 43q0 57 14.5 88.5t54.5 31.5q11 0 17 -5.5t6 -14.5q0 -19 -23 -37q-13 0 -17.5 -17t-4.5 -52
q0 -32 1 -51q6 -149 55 -235.5t136 -86.5q50 0 90 24t62.5 64.5t22.5 87.5q-10 82 -16 115t-22 107q-7 29 -7 51q0 23 9 32t27 9q5 0 7 -1q23 4 37.5 15.5t14.5 29.5q0 9 -5 21q2 5 8 8t16 2q15 -1 23.5 -8t8.5 -15q0 -37 -24 -64.5t-60 -37.5q7 -47 15 -138q5 -49 19.5 -96
zM189.5 606q-4.5 4 -4.5 19q0 20 32 49t82 66l22 17q18 -9 18 -21t-14.5 -28t-48.5 -45q-40 -34 -67 -61q-15 0 -19.5 4z" />
    <glyph glyph-name="uni1EF0" unicode="&#x1ef0;" horiz-adv-x="632" 
d="M525.5 251q14.5 -47 38.5 -108q2 -6 11 -29.5t13 -38.5t4 -24q0 -23 -24 -23q-8 0 -59 123q-11 -45 -45 -79.5t-81 -53.5t-97 -19q-118 0 -167.5 106t-57.5 276q-1 15 -1 43q0 57 14.5 88.5t54.5 31.5q11 0 17 -5.5t6 -14.5q0 -19 -23 -37q-13 0 -17.5 -17t-4.5 -52
q0 -32 1 -51q6 -149 55 -235.5t136 -86.5q50 0 90 24t62.5 64.5t22.5 87.5q-10 82 -16 115t-22 107q-7 29 -7 51q0 23 9 32t27 9q5 0 7 -1q23 4 37.5 15.5t14.5 29.5q0 9 -5 21q2 5 8 8t16 2q15 -1 23.5 -8t8.5 -15q0 -37 -24 -64.5t-60 -37.5q7 -47 15 -138q5 -49 19.5 -96
zM263.5 -154q-10.5 17 -10.5 42q0 11 1 16q-1 16 18 16q14 0 28.5 -6.5t8.5 -9.5q10 -26 10 -41q0 -13 -6 -20.5t-17 -13.5q-22 0 -32.5 17z" />
    <glyph glyph-name="uni1EEA" unicode="&#x1eea;" horiz-adv-x="632" 
d="M525.5 251q14.5 -47 38.5 -108q2 -6 11 -29.5t13 -38.5t4 -24q0 -23 -24 -23q-8 0 -59 123q-11 -45 -45 -79.5t-81 -53.5t-97 -19q-118 0 -167.5 106t-57.5 276q-1 15 -1 43q0 57 14.5 88.5t54.5 31.5q11 0 17 -5.5t6 -14.5q0 -19 -23 -37q-13 0 -17.5 -17t-4.5 -52
q0 -32 1 -51q6 -149 55 -235.5t136 -86.5q50 0 90 24t62.5 64.5t22.5 87.5q-10 82 -16 115t-22 107q-7 29 -7 51q0 23 9 32t27 9q5 0 7 -1q23 4 37.5 15.5t14.5 29.5q0 9 -5 21q2 5 8 8t16 2q15 -1 23.5 -8t8.5 -15q0 -37 -24 -64.5t-60 -37.5q7 -47 15 -138q5 -49 19.5 -96
zM214 685q-15 14 -20 26t0 17q7 7 15 7q17 0 47 -27q2 -2 38 -30t36 -36q0 -18 -6 -23t-22 -5q-15 0 -88 71z" />
    <glyph glyph-name="uni1EEC" unicode="&#x1eec;" horiz-adv-x="632" 
d="M525.5 251q14.5 -47 38.5 -108q2 -6 11 -29.5t13 -38.5t4 -24q0 -23 -24 -23q-8 0 -59 123q-11 -45 -45 -79.5t-81 -53.5t-97 -19q-118 0 -167.5 106t-57.5 276q-1 15 -1 43q0 57 14.5 88.5t54.5 31.5q11 0 17 -5.5t6 -14.5q0 -19 -23 -37q-13 0 -17.5 -17t-4.5 -52
q0 -32 1 -51q6 -149 55 -235.5t136 -86.5q50 0 90 24t62.5 64.5t22.5 87.5q-10 82 -16 115t-22 107q-7 29 -7 51q0 23 9 32t27 9q5 0 7 -1q23 4 37.5 15.5t14.5 29.5q0 9 -5 21q2 5 8 8t16 2q15 -1 23.5 -8t8.5 -15q0 -37 -24 -64.5t-60 -37.5q7 -47 15 -138q5 -49 19.5 -96
zM246 587q0 6 10 16l22 21q21 18 33 31.5t12 26.5q0 20 -9 31t-39 11q-13 0 -28 -7t-22 -19q-8 1 -12.5 7.5t-4.5 16.5q0 19 25.5 29t49.5 10q46 0 65 -22t19 -49q0 -22 -11 -36t-33 -32q-10 -7 -18.5 -15t-12.5 -16q1 -5 -3.5 -12t-15.5 -7q-8 0 -20 6q-7 3 -7 9z" />
    <glyph glyph-name="uni1EEE" unicode="&#x1eee;" horiz-adv-x="632" 
d="M525.5 251q14.5 -47 38.5 -108q2 -6 11 -29.5t13 -38.5t4 -24q0 -23 -24 -23q-8 0 -59 123q-11 -45 -45 -79.5t-81 -53.5t-97 -19q-118 0 -167.5 106t-57.5 276q-1 15 -1 43q0 57 14.5 88.5t54.5 31.5q11 0 17 -5.5t6 -14.5q0 -19 -23 -37q-13 0 -17.5 -17t-4.5 -52
q0 -32 1 -51q6 -149 55 -235.5t136 -86.5q50 0 90 24t62.5 64.5t22.5 87.5q-10 82 -16 115t-22 107q-7 29 -7 51q0 23 9 32t27 9q5 0 7 -1q23 4 37.5 15.5t14.5 29.5q0 9 -5 21q2 5 8 8t16 2q15 -1 23.5 -8t8.5 -15q0 -37 -24 -64.5t-60 -37.5q7 -47 15 -138q5 -49 19.5 -96
zM88 663q0 35 25.5 60t58.5 25q27 0 49 -8.5t57 -32.5q34 -23 63 -23q25 0 43 17t27 46q12 1 18 -3.5t6 -13.5q0 -3 -2 -11q-11 -30 -24.5 -45.5t-35.5 -22.5q-17 -5 -30 -5q-20 0 -38 7.5t-47 23.5q-25 14 -42 21t-34 7q-29 0 -42 -13t-13 -40q0 -7 2 -25v-3q0 -6 -5.5 -8
t-10.5 0q-15 3 -20 17q-5 13 -5 30z" />
    <glyph glyph-name="Uhungarumlaut" unicode="&#x170;" horiz-adv-x="632" 
d="M118.5 105q-49.5 106 -57.5 276q-1 15 -1 43q0 57 14.5 88.5t54.5 31.5q11 0 17 -5.5t6 -14.5q0 -19 -23 -37q-13 0 -17.5 -17t-4.5 -52q0 -32 1 -51q6 -149 55 -235.5t136 -86.5q50 0 90 24t62.5 64.5t22.5 87.5q-10 82 -16 115t-22 107q-7 29 -7 51q0 23 9 32t27 9
q11 0 17 -13t11 -51t13 -124q5 -49 19.5 -96t38.5 -108q2 -6 11 -29.5t13 -38.5t4 -24q0 -23 -24 -23q-8 0 -59 123q-11 -45 -45 -79.5t-81 -53.5t-97 -19q-118 0 -167.5 106zM156 635.5q-5 4.5 -5 19.5q0 28 15.5 44.5t46.5 36.5q10 6 30 20q26 -12 26 -24q0 -9 -10 -20.5
t-39 -38.5l-44 -42q-15 0 -20 4.5zM268 620.5q-5 4.5 -5 18.5q0 28 15.5 45.5t46.5 37.5q14 9 29 20q14 -7 20.5 -12.5t6.5 -12.5q0 -8 -10 -19.5t-35 -34.5l-49 -47q-14 0 -19 4.5z" />
    <glyph glyph-name="uni0216" unicode="&#x216;" horiz-adv-x="632" 
d="M118.5 105q-49.5 106 -57.5 276q-1 15 -1 43q0 57 14.5 88.5t54.5 31.5q11 0 17 -5.5t6 -14.5q0 -19 -23 -37q-13 0 -17.5 -17t-4.5 -52q0 -32 1 -51q6 -149 55 -235.5t136 -86.5q50 0 90 24t62.5 64.5t22.5 87.5q-10 82 -16 115t-22 107q-7 29 -7 51q0 23 9 32t27 9
q11 0 17 -13t11 -51t13 -124q5 -49 19.5 -96t38.5 -108q2 -6 11 -29.5t13 -38.5t4 -24q0 -23 -24 -23q-8 0 -59 123q-11 -45 -45 -79.5t-81 -53.5t-97 -19q-118 0 -167.5 106zM357 697.5q39 -25.5 39 -63.5q0 -10 -7.5 -17t-20.5 -8h-3q-18 0 -15 15q1 3 1 9q0 23 -22 36.5
t-57 13.5q-32 0 -55 -10t-23 -29q0 -4 -6.5 -6.5t-14.5 -2.5q-20 0 -21 7q0 36 33 58.5t83 22.5t89 -25.5z" />
    <glyph glyph-name="Umacron" unicode="&#x16a;" horiz-adv-x="632" 
d="M118.5 105q-49.5 106 -57.5 276q-1 15 -1 43q0 57 14.5 88.5t54.5 31.5q11 0 17 -5.5t6 -14.5q0 -19 -23 -37q-13 0 -17.5 -17t-4.5 -52q0 -32 1 -51q6 -149 55 -235.5t136 -86.5q50 0 90 24t62.5 64.5t22.5 87.5q-10 82 -16 115t-22 107q-7 29 -7 51q0 23 9 32t27 9
q11 0 17 -13t11 -51t13 -124q5 -49 19.5 -96t38.5 -108q2 -6 11 -29.5t13 -38.5t4 -24q0 -23 -24 -23q-8 0 -59 123q-11 -45 -45 -79.5t-81 -53.5t-97 -19q-118 0 -167.5 106zM157 686q20 13 46.5 16.5t79.5 5.5q50 2 61 2q31 0 41 -6.5t10 -27.5q0 -20 -18 -20t-38 5
q-5 1 -18 3t-25 2q-25 0 -42 -2.5t-38 -7.5q-42 -10 -79 -10q0 27 20 40z" />
    <glyph glyph-name="Uogonek" unicode="&#x172;" horiz-adv-x="632" 
d="M632.5 -112q-4.5 -11 -12.5 -14q-36 -14 -73 -14q-48 0 -79 23.5t-31 57.5q0 40 33 72.5t79 45.5q-14 29 -40 92q-11 -45 -45 -79.5t-81 -53.5t-97 -19q-118 0 -167.5 106t-57.5 276q-1 15 -1 43q0 57 14.5 88.5t54.5 31.5q11 0 17 -5.5t6 -14.5q0 -19 -23 -37
q-13 0 -17.5 -17t-4.5 -52q0 -32 1 -51q6 -149 55 -235.5t136 -86.5q50 0 90 24t62.5 64.5t22.5 87.5q-10 82 -16 115t-22 107q-7 29 -7 51q0 23 9 32t27 9q11 0 17 -13t11 -51t13 -124q5 -49 19.5 -96t38.5 -108q2 -6 11 -29.5t13 -38.5t4 -24q0 -19 -17 -22
q-89 -36 -89 -87q0 -20 14.5 -33.5t48.5 -13.5q32 0 86 15q2 -11 -2.5 -22z" />
    <glyph glyph-name="Uring" unicode="&#x16e;" horiz-adv-x="632" 
d="M118.5 105q-49.5 106 -57.5 276q-1 15 -1 43q0 57 14.5 88.5t54.5 31.5q11 0 17 -5.5t6 -14.5q0 -19 -23 -37q-13 0 -17.5 -17t-4.5 -52q0 -32 1 -51q6 -149 55 -235.5t136 -86.5q50 0 90 24t62.5 64.5t22.5 87.5q-10 82 -16 115t-22 107q-7 29 -7 51q0 23 9 32t27 9
q11 0 17 -13t11 -51t13 -124q5 -49 19.5 -96t38.5 -108q2 -6 11 -29.5t13 -38.5t4 -24q0 -23 -24 -23q-8 0 -59 123q-11 -45 -45 -79.5t-81 -53.5t-97 -19q-118 0 -167.5 106zM199 627.5q-24 22.5 -24 58.5q0 41 30 61.5t73 20.5q37 0 58 -25t21 -53q0 -38 -28.5 -61.5
t-67.5 -23.5q-38 0 -62 22.5zM304.5 656q17.5 16 17.5 37q0 16 -8.5 29t-32.5 14q-29 2 -49 -8.5t-20 -38.5q0 -23 14.5 -35t40.5 -12q20 -2 37.5 14z" />
    <glyph glyph-name="Utilde" unicode="&#x168;" horiz-adv-x="632" 
d="M118.5 105q-49.5 106 -57.5 276q-1 15 -1 43q0 57 14.5 88.5t54.5 31.5q11 0 17 -5.5t6 -14.5q0 -19 -23 -37q-13 0 -17.5 -17t-4.5 -52q0 -32 1 -51q6 -149 55 -235.5t136 -86.5q50 0 90 24t62.5 64.5t22.5 87.5q-10 82 -16 115t-22 107q-7 29 -7 51q0 23 9 32t27 9
q11 0 17 -13t11 -51t13 -124q5 -49 19.5 -96t38.5 -108q2 -6 11 -29.5t13 -38.5t4 -24q0 -23 -24 -23q-8 0 -59 123q-11 -45 -45 -79.5t-81 -53.5t-97 -19q-118 0 -167.5 106zM92 658q0 35 25.5 60t58.5 25q27 0 49 -8.5t57 -32.5q34 -23 63 -23q25 0 43 17t27 46
q12 1 18 -3.5t6 -13.5q0 -3 -2 -11q-11 -30 -24.5 -45.5t-35.5 -22.5q-17 -5 -30 -5q-20 0 -38 7.5t-47 23.5q-25 14 -42 21t-34 7q-29 0 -42 -13t-13 -40q0 -7 2 -25v-3q0 -6 -5.5 -8t-10.5 0q-15 3 -20 17q-5 13 -5 30z" />
    <glyph glyph-name="V" unicode="V" horiz-adv-x="470" 
d="M246 -3q-5 0 -11 3q-26 40 -40.5 68.5t-47.5 99.5q-36 84 -92 237t-56 187q0 9 4 13.5t10 4.5q5 0 8 -2q12 -7 38.5 -69.5t73.5 -186.5q77 -204 122 -302q22 21 62 124.5t73.5 229.5t39.5 214q44 3 44 -35q0 -64 -36 -200t-87 -250.5t-95 -133.5q-6 -2 -10 -2z" />
    <glyph glyph-name="W" unicode="W" horiz-adv-x="775" 
d="M441 46.5q-49 46.5 -84 126.5q-20 -79 -64 -117.5t-97 -38.5q-75 0 -110.5 129t-35.5 309q0 52 8 82.5t30 30.5q9 0 14.5 -34t5.5 -86q0 -374 96 -374q36 0 61 20t47 65q11 27 11 89l-1 63q5 9 18 9q9 0 17.5 -4.5t11.5 -14.5q7 -53 28.5 -107.5t58 -92t86.5 -37.5
q69 0 98 30.5t29 82.5q0 113 -15.5 181.5t-40.5 129.5q-11 29 -15.5 43t-4.5 29q7 16 19 16q22 0 48.5 -53t45.5 -142.5t19 -192.5q0 -57 -23.5 -99.5t-63 -65.5t-85.5 -23q-63 0 -112 46.5z" />
    <glyph glyph-name="Wacute" unicode="&#x1e82;" horiz-adv-x="775" 
d="M441 46.5q-49 46.5 -84 126.5q-20 -79 -64 -117.5t-97 -38.5q-75 0 -110.5 129t-35.5 309q0 52 8 82.5t30 30.5q9 0 14.5 -34t5.5 -86q0 -374 96 -374q36 0 61 20t47 65q11 27 11 89l-1 63q5 9 18 9q9 0 17.5 -4.5t11.5 -14.5q7 -53 28.5 -107.5t58 -92t86.5 -37.5
q69 0 98 30.5t29 82.5q0 113 -15.5 181.5t-40.5 129.5q-11 29 -15.5 43t-4.5 29q7 16 19 16q22 0 48.5 -53t45.5 -142.5t19 -192.5q0 -57 -23.5 -99.5t-63 -65.5t-85.5 -23q-63 0 -112 46.5zM263.5 508q-4.5 4 -4.5 19q0 20 32 49t82 66l22 17q18 -9 18 -21t-14.5 -28
t-48.5 -45q-40 -34 -67 -61q-15 0 -19.5 4z" />
    <glyph glyph-name="Wcircumflex" unicode="&#x174;" horiz-adv-x="775" 
d="M441 46.5q-49 46.5 -84 126.5q-20 -79 -64 -117.5t-97 -38.5q-75 0 -110.5 129t-35.5 309q0 52 8 82.5t30 30.5q9 0 14.5 -34t5.5 -86q0 -374 96 -374q36 0 61 20t47 65q11 27 11 89l-1 63q5 9 18 9q9 0 17.5 -4.5t11.5 -14.5q7 -53 28.5 -107.5t58 -92t86.5 -37.5
q69 0 98 30.5t29 82.5q0 113 -15.5 181.5t-40.5 129.5q-11 29 -15.5 43t-4.5 29q7 16 19 16q22 0 48.5 -53t45.5 -142.5t19 -192.5q0 -57 -23.5 -99.5t-63 -65.5t-85.5 -23q-63 0 -112 46.5zM430 519q-10 13 -25 41q-26 48 -53 82q-12 -35 -34.5 -67.5t-47 -52.5t-41.5 -20
q-19 0 -29 27l36 31q28 24 41 37.5t23 35t19 59.5q3 9 16 9q16 0 23.5 -5t17.5 -22q8 -14 43 -53q6 -8 17 -21t16 -20q13 -20 17 -31t4 -24q0 -11 -5.5 -15t-16.5 -4t-21 13z" />
    <glyph glyph-name="Wdieresis" unicode="&#x1e84;" horiz-adv-x="775" 
d="M441 46.5q-49 46.5 -84 126.5q-20 -79 -64 -117.5t-97 -38.5q-75 0 -110.5 129t-35.5 309q0 52 8 82.5t30 30.5q9 0 14.5 -34t5.5 -86q0 -374 96 -374q36 0 61 20t47 65q11 27 11 89l-1 63q5 9 18 9q9 0 17.5 -4.5t11.5 -14.5q7 -53 28.5 -107.5t58 -92t86.5 -37.5
q69 0 98 30.5t29 82.5q0 113 -15.5 181.5t-40.5 129.5q-11 29 -15.5 43t-4.5 29q7 16 19 16q22 0 48.5 -53t45.5 -142.5t19 -192.5q0 -57 -23.5 -99.5t-63 -65.5t-85.5 -23q-63 0 -112 46.5zM221 532.5q-14 16.5 -14 30.5q0 9 16.5 29t25.5 20q29 0 44 -17t15 -37
q0 -13 -17.5 -27.5t-36.5 -14.5t-33 16.5zM377 532.5q-13 16.5 -13 30.5q0 9 16.5 29t26.5 20q27 0 42 -17t15 -37q0 -13 -17.5 -27.5t-35.5 -14.5q-21 0 -34 16.5z" />
    <glyph glyph-name="Wgrave" unicode="&#x1e80;" horiz-adv-x="775" 
d="M441 46.5q-49 46.5 -84 126.5q-20 -79 -64 -117.5t-97 -38.5q-75 0 -110.5 129t-35.5 309q0 52 8 82.5t30 30.5q9 0 14.5 -34t5.5 -86q0 -374 96 -374q36 0 61 20t47 65q11 27 11 89l-1 63q5 9 18 9q9 0 17.5 -4.5t11.5 -14.5q7 -53 28.5 -107.5t58 -92t86.5 -37.5
q69 0 98 30.5t29 82.5q0 113 -15.5 181.5t-40.5 129.5q-11 29 -15.5 43t-4.5 29q7 16 19 16q22 0 48.5 -53t45.5 -142.5t19 -192.5q0 -57 -23.5 -99.5t-63 -65.5t-85.5 -23q-63 0 -112 46.5zM288 587q-15 14 -20 26t0 17q7 7 15 7q17 0 47 -27q2 -2 38 -30t36 -36
q0 -18 -6 -23t-22 -5q-15 0 -88 71z" />
    <glyph glyph-name="X" unicode="X" horiz-adv-x="576" 
d="M48.5 -53.5q-3.5 7.5 -3.5 23.5q0 54 41.5 119.5t108.5 147.5q18 21 27 34l-34 54q-41 64 -60.5 103t-19.5 74q0 13 4.5 18t16.5 5q10 0 31 -32.5t57 -94.5q7 -13 23.5 -40.5t22.5 -32.5q47 43 78 66t94 63q25 15 47.5 26.5t42.5 11.5q22 0 26 -21q-67 -42 -139 -100
t-114 -111q9 -26 33 -60t62 -82q37 -48 53 -71.5t16 -36.5q0 -11 -15 -11q-8 0 -20 3q-28 22 -53 53.5t-58 79.5q-50 69 -65 86q-42 -49 -100 -135l-22 -32q-10 -15 -28 -55q-13 -29 -21 -43t-17 -17q-11 0 -14.5 7.5z" />
    <glyph glyph-name="Y" unicode="Y" horiz-adv-x="459" 
d="M407 584.5q12 4.5 23 4.5q8 0 12 -3.5t0 -10.5q-8 -16 -36 -68q-42 -78 -67 -136t-43 -141t-18 -190l1 -57q0 -10 -8.5 -15t-21.5 -5q-10 0 -12.5 3t-2.5 9v9q-3 39 -3 74q0 79 14 151q-60 74 -97.5 126.5t-70.5 116.5t-62 148q2 -1 20 1t20 2l32 -61q57 -108 91 -164.5
t80 -109.5q21 80 51.5 144.5t72.5 139.5l13 23q0 5 12 9.5z" />
    <glyph glyph-name="Yacute" unicode="&#xdd;" horiz-adv-x="459" 
d="M407 584.5q12 4.5 23 4.5q8 0 12 -3.5t0 -10.5q-8 -16 -36 -68q-42 -78 -67 -136t-43 -141t-18 -190l1 -57q0 -10 -8.5 -15t-21.5 -5q-10 0 -12.5 3t-2.5 9v9q-3 39 -3 74q0 79 14 151q-60 74 -97.5 126.5t-70.5 116.5t-62 148q2 -1 20 1t20 2l32 -61q57 -108 91 -164.5
t80 -109.5q21 80 51.5 144.5t72.5 139.5l13 23q0 5 12 9.5zM206.5 601q-4.5 4 -4.5 19q0 20 32 49t82 66l22 17q18 -9 18 -21t-14.5 -28t-48.5 -45q-40 -34 -67 -61q-15 0 -19.5 4z" />
    <glyph glyph-name="Ycircumflex" unicode="&#x176;" horiz-adv-x="459" 
d="M407 584.5q12 4.5 23 4.5q8 0 12 -3.5t0 -10.5q-8 -16 -36 -68q-42 -78 -67 -136t-43 -141t-18 -190l1 -57q0 -10 -8.5 -15t-21.5 -5q-10 0 -12.5 3t-2.5 9v9q-3 39 -3 74q0 79 14 151q-60 74 -97.5 126.5t-70.5 116.5t-62 148q2 -1 20 1t20 2l32 -61q57 -108 91 -164.5
t80 -109.5q21 80 51.5 144.5t72.5 139.5l13 23q0 5 12 9.5zM373 612q-10 13 -25 41q-26 48 -53 82q-12 -35 -34.5 -67.5t-47 -52.5t-41.5 -20q-19 0 -29 27l36 31q28 24 41 37.5t23 35t19 59.5q3 9 16 9q16 0 23.5 -5t17.5 -22q8 -14 43 -53q6 -8 17 -21t16 -20
q13 -20 17 -31t4 -24q0 -11 -5.5 -15t-16.5 -4t-21 13z" />
    <glyph glyph-name="Ydieresis" unicode="&#x178;" horiz-adv-x="459" 
d="M407 584.5q12 4.5 23 4.5q8 0 12 -3.5t0 -10.5q-8 -16 -36 -68q-42 -78 -67 -136t-43 -141t-18 -190l1 -57q0 -10 -8.5 -15t-21.5 -5q-10 0 -12.5 3t-2.5 9v9q-3 39 -3 74q0 79 14 151q-60 74 -97.5 126.5t-70.5 116.5t-62 148q2 -1 20 1t20 2l32 -61q57 -108 91 -164.5
t80 -109.5q21 80 51.5 144.5t72.5 139.5l13 23q0 5 12 9.5zM164 625.5q-14 16.5 -14 30.5q0 9 16.5 29t25.5 20q29 0 44 -17t15 -37q0 -13 -17.5 -27.5t-36.5 -14.5t-33 16.5zM320 625.5q-13 16.5 -13 30.5q0 9 16.5 29t26.5 20q27 0 42 -17t15 -37q0 -13 -17.5 -27.5
t-35.5 -14.5q-21 0 -34 16.5z" />
    <glyph glyph-name="uni1EF4" unicode="&#x1ef4;" horiz-adv-x="459" 
d="M407 584.5q12 4.5 23 4.5q8 0 12 -3.5t0 -10.5q-8 -16 -36 -68q-42 -78 -67 -136t-43 -141t-18 -190l1 -57q0 -10 -8.5 -15t-21.5 -5q-10 0 -12.5 3t-2.5 9v9q-3 39 -3 74q0 79 14 151q-60 74 -97.5 126.5t-70.5 116.5t-62 148q2 -1 20 1t20 2l32 -61q57 -108 91 -164.5
t80 -109.5q21 80 51.5 144.5t72.5 139.5l13 23q0 5 12 9.5zM392.5 -77q-10.5 17 -10.5 42q0 11 1 16q-1 16 18 16q14 0 28.5 -6.5t8.5 -9.5q10 -26 10 -41q0 -13 -6 -20.5t-17 -13.5q-22 0 -32.5 17z" />
    <glyph glyph-name="Ygrave" unicode="&#x1ef2;" horiz-adv-x="459" 
d="M407 584.5q12 4.5 23 4.5q8 0 12 -3.5t0 -10.5q-8 -16 -36 -68q-42 -78 -67 -136t-43 -141t-18 -190l1 -57q0 -10 -8.5 -15t-21.5 -5q-10 0 -12.5 3t-2.5 9v9q-3 39 -3 74q0 79 14 151q-60 74 -97.5 126.5t-70.5 116.5t-62 148q2 -1 20 1t20 2l32 -61q57 -108 91 -164.5
t80 -109.5q21 80 51.5 144.5t72.5 139.5l13 23q0 5 12 9.5zM231 680q-15 14 -20 26t0 17q7 7 15 7q17 0 47 -27q2 -2 38 -30t36 -36q0 -18 -6 -23t-22 -5q-15 0 -88 71z" />
    <glyph glyph-name="uni1EF6" unicode="&#x1ef6;" horiz-adv-x="459" 
d="M407 584.5q12 4.5 23 4.5q8 0 12 -3.5t0 -10.5q-8 -16 -36 -68q-42 -78 -67 -136t-43 -141t-18 -190l1 -57q0 -10 -8.5 -15t-21.5 -5q-10 0 -12.5 3t-2.5 9v9q-3 39 -3 74q0 79 14 151q-60 74 -97.5 126.5t-70.5 116.5t-62 148q2 -1 20 1t20 2l32 -61q57 -108 91 -164.5
t80 -109.5q21 80 51.5 144.5t72.5 139.5l13 23q0 5 12 9.5zM263 582q0 6 10 16l22 21q21 18 33 31.5t12 26.5q0 20 -9 31t-39 11q-13 0 -28 -7t-22 -19q-8 1 -12.5 7.5t-4.5 16.5q0 19 25.5 29t49.5 10q46 0 65 -22t19 -49q0 -22 -11 -36t-33 -32q-10 -7 -18.5 -15
t-12.5 -16q1 -5 -3.5 -12t-15.5 -7q-8 0 -20 6q-7 3 -7 9z" />
    <glyph glyph-name="uni0232" unicode="&#x232;" horiz-adv-x="459" 
d="M407 584.5q12 4.5 23 4.5q8 0 12 -3.5t0 -10.5q-8 -16 -36 -68q-42 -78 -67 -136t-43 -141t-18 -190l1 -57q0 -10 -8.5 -15t-21.5 -5q-10 0 -12.5 3t-2.5 9v9q-3 39 -3 74q0 79 14 151q-60 74 -97.5 126.5t-70.5 116.5t-62 148q2 -1 20 1t20 2l32 -61q57 -108 91 -164.5
t80 -109.5q21 80 51.5 144.5t72.5 139.5l13 23q0 5 12 9.5zM170 686q20 13 46.5 16.5t79.5 5.5q50 2 61 2q31 0 41 -6.5t10 -27.5q0 -20 -18 -20t-38 5q-5 1 -18 3t-25 2q-25 0 -42 -2.5t-38 -7.5q-42 -10 -79 -10q0 27 20 40z" />
    <glyph glyph-name="uni1EF8" unicode="&#x1ef8;" horiz-adv-x="459" 
d="M407 584.5q12 4.5 23 4.5q8 0 12 -3.5t0 -10.5q-8 -16 -36 -68q-42 -78 -67 -136t-43 -141t-18 -190l1 -57q0 -10 -8.5 -15t-21.5 -5q-10 0 -12.5 3t-2.5 9v9q-3 39 -3 74q0 79 14 151q-60 74 -97.5 126.5t-70.5 116.5t-62 148q2 -1 20 1t20 2l32 -61q57 -108 91 -164.5
t80 -109.5q21 80 51.5 144.5t72.5 139.5l13 23q0 5 12 9.5zM105 658q0 35 25.5 60t58.5 25q27 0 49 -8.5t57 -32.5q34 -23 63 -23q25 0 43 17t27 46q12 1 18 -3.5t6 -13.5q0 -3 -2 -11q-11 -30 -24.5 -45.5t-35.5 -22.5q-17 -5 -30 -5q-20 0 -38 7.5t-47 23.5q-25 14 -42 21
t-34 7q-29 0 -42 -13t-13 -40q0 -7 2 -25v-3q0 -6 -5.5 -8t-10.5 0q-15 3 -20 17q-5 13 -5 30z" />
    <glyph glyph-name="Z" unicode="Z" horiz-adv-x="568" 
d="M204 0q-23 7 -35.5 20t-12.5 30q0 26 37 85.5l92 141.5q-42 -6 -60 -8q-102 -15 -131 -18q0 39 25 49q62 13 95 18t101 12q62 82 62 143q0 48 -40 73.5t-112 25.5q-44 0 -73.5 -7.5t-59.5 -19.5q-27 -11 -38 -11q-4 0 -6.5 4.5t-2.5 10.5q0 18 20.5 34t58 26t85.5 10
q96 0 155 -39t59 -106q0 -63 -57 -142l37 1q46 0 71 -7.5t31 -25.5q-12 -19 -27.5 -23.5t-44.5 -4.5q-4 0 -25 3t-69 3l-67 -107q-23 -34 -40 -62.5t-17 -36.5q0 -16 34 -16q42 0 76.5 4t74.5 12q25 5 51.5 8.5t50.5 3.5q12 0 16.5 -6.5t4.5 -18.5q0 -14 -3.5 -20.5
t-17.5 -10.5q-36 -10 -107 -19.5t-126 -9.5z" />
    <glyph glyph-name="Zacute" unicode="&#x179;" horiz-adv-x="568" 
d="M204 0q-23 7 -35.5 20t-12.5 30q0 26 37 85.5l92 141.5q-42 -6 -60 -8q-102 -15 -131 -18q0 39 25 49q62 13 95 18t101 12q62 82 62 143q0 48 -40 73.5t-112 25.5q-44 0 -73.5 -7.5t-59.5 -19.5q-27 -11 -38 -11q-4 0 -6.5 4.5t-2.5 10.5q0 18 20.5 34t58 26t85.5 10
q96 0 155 -39t59 -106q0 -63 -57 -142l37 1q46 0 71 -7.5t31 -25.5q-12 -19 -27.5 -23.5t-44.5 -4.5q-4 0 -25 3t-69 3l-67 -107q-23 -34 -40 -62.5t-17 -36.5q0 -16 34 -16q42 0 76.5 4t74.5 12q25 5 51.5 8.5t50.5 3.5q12 0 16.5 -6.5t4.5 -18.5q0 -14 -3.5 -20.5
t-17.5 -10.5q-36 -10 -107 -19.5t-126 -9.5zM150.5 682q-4.5 4 -4.5 19q0 20 32 49t82 66l22 17q18 -9 18 -21t-14.5 -28t-48.5 -45q-40 -34 -67 -61q-15 0 -19.5 4z" />
    <glyph glyph-name="Zcaron" unicode="&#x17d;" horiz-adv-x="568" 
d="M204 0q-23 7 -35.5 20t-12.5 30q0 26 37 85.5l92 141.5q-42 -6 -60 -8q-102 -15 -131 -18q0 39 25 49q62 13 95 18t101 12q62 82 62 143q0 48 -40 73.5t-112 25.5q-44 0 -73.5 -7.5t-59.5 -19.5q-27 -11 -38 -11q-4 0 -6.5 4.5t-2.5 10.5q0 18 20.5 34t58 26t85.5 10
q96 0 155 -39t59 -106q0 -63 -57 -142l37 1q46 0 71 -7.5t31 -25.5q-12 -19 -27.5 -23.5t-44.5 -4.5q-4 0 -25 3t-69 3l-67 -107q-23 -34 -40 -62.5t-17 -36.5q0 -16 34 -16q42 0 76.5 4t74.5 12q25 5 51.5 8.5t50.5 3.5q12 0 16.5 -6.5t4.5 -18.5q0 -14 -3.5 -20.5
t-17.5 -10.5q-36 -10 -107 -19.5t-126 -9.5zM207 684q-13 31 -28.5 43.5t-53.5 31.5q-30 15 -37 19q11 21 33 21q25 0 57.5 -20.5t59.5 -50.5q11 8 33 26q26 22 42 32.5t25 10.5q12 0 15.5 -4t3.5 -13t-2 -13t-7.5 -9t-9.5 -9q-6 -6 -19.5 -15t-18.5 -12q-28 -18 -37 -27
q-10 -9 -17 -12.5t-21 -3.5t-18 5z" />
    <glyph glyph-name="Zdotaccent" unicode="&#x17b;" horiz-adv-x="568" 
d="M204 0q-23 7 -35.5 20t-12.5 30q0 26 37 85.5l92 141.5q-42 -6 -60 -8q-102 -15 -131 -18q0 39 25 49q62 13 95 18t101 12q62 82 62 143q0 48 -40 73.5t-112 25.5q-44 0 -73.5 -7.5t-59.5 -19.5q-27 -11 -38 -11q-4 0 -6.5 4.5t-2.5 10.5q0 18 20.5 34t58 26t85.5 10
q96 0 155 -39t59 -106q0 -63 -57 -142l37 1q46 0 71 -7.5t31 -25.5q-12 -19 -27.5 -23.5t-44.5 -4.5q-4 0 -25 3t-69 3l-67 -107q-23 -34 -40 -62.5t-17 -36.5q0 -16 34 -16q42 0 76.5 4t74.5 12q25 5 51.5 8.5t50.5 3.5q12 0 16.5 -6.5t4.5 -18.5q0 -14 -3.5 -20.5
t-17.5 -10.5q-36 -10 -107 -19.5t-126 -9.5zM200.5 720q-10.5 17 -10.5 42q0 11 1 16q-1 16 18 16q14 0 28.5 -6.5t8.5 -9.5q10 -26 10 -41q0 -13 -6 -20.5t-17 -13.5q-22 0 -32.5 17z" />
    <glyph glyph-name="R.alt" horiz-adv-x="579" 
d="M524 -42q-47 0 -149.5 86.5t-181.5 172.5q3 -37 9.5 -70l7.5 -38q9 -45 9 -62t-7.5 -26.5t-25.5 -13.5q-5 -14 -19.5 83t-27 218t-12.5 173q12 11 23 11q19 0 25.5 -33.5t12.5 -116.5q106 6 166.5 19t88 37.5t27.5 65.5q0 35 -38 62.5t-97.5 42.5t-121.5 15
q-84 0 -137.5 -28.5t-47.5 -85.5q-10 -2 -14 -2q-17 0 -27 12.5t-10 31.5q0 60 65 92.5t160 32.5q79 0 153.5 -22.5t122 -66t47.5 -103.5q0 -75 -90.5 -113t-238.5 -38q76 -103 149 -162.5t153 -108.5q31 -19 43 -28.5t12 -16.5q0 -6 -9 -12q-7 -8 -20 -8z" />
    <glyph glyph-name="a" unicode="a" horiz-adv-x="540" 
d="M116.5 36.5q-76.5 36.5 -76.5 128.5q0 33 20 64t59 50.5t95 19.5q43 0 73 -4t69 -22t81 -57q-16 69 -48 121t-71.5 80.5t-77.5 28.5q-18 0 -33.5 -6.5t-37.5 -18.5q-25 -16 -37 -16q-5 0 -8.5 3.5t-3.5 8.5q0 40 35.5 62t86.5 20q70 -4 128 -59.5t91.5 -137.5t33.5 -161
q0 -13 -2 -37l-32 2q-38 77 -97.5 109.5t-119.5 32.5q-77 0 -110 -23t-33 -67q0 -46 46 -74t118 -28q40 0 64 4.5t50 12.5q21 7 37 10t41 3q28 0 35.5 -4t7.5 -18q0 -10 -41 -25t-92 -27t-70 -12q-104 0 -180.5 36.5z" />
    <glyph glyph-name="aacute" unicode="&#xe1;" horiz-adv-x="506" 
d="M116.5 36.5q-76.5 36.5 -76.5 128.5q0 33 20 64t59 50.5t95 19.5q43 0 73 -4t69 -22t81 -57q-16 69 -48 121t-71.5 80.5t-77.5 28.5q-18 0 -33.5 -6.5t-37.5 -18.5q-25 -16 -37 -16q-5 0 -8.5 3.5t-3.5 8.5q0 40 35.5 62t86.5 20q70 -4 128 -59.5t91.5 -137.5t33.5 -161
q0 -13 -2 -37l-32 2q-38 77 -97.5 109.5t-119.5 32.5q-77 0 -110 -23t-33 -67q0 -46 46 -74t118 -28q40 0 64 4.5t50 12.5q21 7 37 10t41 3q28 0 35.5 -4t7.5 -18q0 -10 -41 -25t-92 -27t-70 -12q-104 0 -180.5 36.5zM160.5 541q-4.5 4 -4.5 19q0 20 32 49t82 66l22 17
q18 -9 18 -21t-14.5 -28t-48.5 -45q-40 -34 -67 -61q-15 0 -19.5 4z" />
    <glyph glyph-name="abreve" unicode="&#x103;" horiz-adv-x="506" 
d="M116.5 36.5q-76.5 36.5 -76.5 128.5q0 33 20 64t59 50.5t95 19.5q43 0 73 -4t69 -22t81 -57q-16 69 -48 121t-71.5 80.5t-77.5 28.5q-18 0 -33.5 -6.5t-37.5 -18.5q-25 -16 -37 -16q-5 0 -8.5 3.5t-3.5 8.5q0 40 35.5 62t86.5 20q70 -4 128 -59.5t91.5 -137.5t33.5 -161
q0 -13 -2 -37l-32 2q-38 77 -97.5 109.5t-119.5 32.5q-77 0 -110 -23t-33 -67q0 -46 46 -74t118 -28q40 0 64 4.5t50 12.5q21 7 37 10t41 3q28 0 35.5 -4t7.5 -18q0 -10 -41 -25t-92 -27t-70 -12q-104 0 -180.5 36.5zM146 574.5q-33 22.5 -33 58.5q1 7 21 7q8 0 14.5 -2.5
t6.5 -6.5q0 -19 23 -29t55 -10q35 0 57 13.5t22 36.5q0 6 -1 9v4q0 11 15 11q14 0 22.5 -7.5t8.5 -17.5q0 -38 -39 -63.5t-89 -25.5t-83 22.5z" />
    <glyph glyph-name="uni1EAF" unicode="&#x1eaf;" horiz-adv-x="540" 
d="M116.5 36.5q-76.5 36.5 -76.5 128.5q0 33 20 64t59 50.5t95 19.5q43 0 73 -4t69 -22t81 -57q-16 69 -48 121t-71.5 80.5t-77.5 28.5q-18 0 -33.5 -6.5t-37.5 -18.5q-25 -16 -37 -16q-5 0 -8.5 3.5t-3.5 8.5q0 40 35.5 62t86.5 20q70 -4 128 -59.5t91.5 -137.5t33.5 -161
q0 -13 -2 -37l-32 2q-38 77 -97.5 109.5t-119.5 32.5q-77 0 -110 -23t-33 -67q0 -46 46 -74t118 -28q40 0 64 4.5t50 12.5q21 7 37 10t41 3q28 0 35.5 -4t7.5 -18q0 -10 -41 -25t-92 -27t-70 -12q-104 0 -180.5 36.5zM165 594.5q-33 22.5 -33 58.5q1 7 21 7q8 0 14.5 -2.5
t6.5 -6.5q0 -19 23 -29t55 -10q35 0 57 13.5t22 36.5q0 6 -1 9v4q0 11 15 11q14 0 22.5 -7.5t8.5 -17.5q0 -38 -39 -63.5t-89 -25.5t-83 22.5zM181.5 695q-4.5 4 -4.5 19q0 20 32 49t82 66l22 17q18 -9 18 -21t-14.5 -28t-48.5 -45q-40 -34 -67 -61q-15 0 -19.5 4z" />
    <glyph glyph-name="uni1EB7" unicode="&#x1eb7;" horiz-adv-x="506" 
d="M116.5 36.5q-76.5 36.5 -76.5 128.5q0 33 20 64t59 50.5t95 19.5q43 0 73 -4t69 -22t81 -57q-16 69 -48 121t-71.5 80.5t-77.5 28.5q-18 0 -33.5 -6.5t-37.5 -18.5q-25 -16 -37 -16q-5 0 -8.5 3.5t-3.5 8.5q0 40 35.5 62t86.5 20q70 -4 128 -59.5t91.5 -137.5t33.5 -161
q0 -13 -2 -37l-32 2q-38 77 -97.5 109.5t-119.5 32.5q-77 0 -110 -23t-33 -67q0 -46 46 -74t118 -28q40 0 64 4.5t50 12.5q21 7 37 10t41 3q28 0 35.5 -4t7.5 -18q0 -10 -41 -25t-92 -27t-70 -12q-104 0 -180.5 36.5zM251.5 -154q-10.5 17 -10.5 42q0 11 1 16q-1 16 18 16
q14 0 28.5 -6.5t8.5 -9.5q10 -26 10 -41q0 -13 -6 -20.5t-17 -13.5q-22 0 -32.5 17zM222 574.5q-33 22.5 -33 58.5q1 7 21 7q8 0 14.5 -2.5t6.5 -6.5q0 -19 23 -29t55 -10q35 0 57 13.5t22 36.5q0 6 -1 9v4q0 11 15 11q14 0 22.5 -7.5t8.5 -17.5q0 -38 -39 -63.5t-89 -25.5
t-83 22.5z" />
    <glyph glyph-name="uni1EB1" unicode="&#x1eb1;" horiz-adv-x="540" 
d="M116.5 36.5q-76.5 36.5 -76.5 128.5q0 33 20 64t59 50.5t95 19.5q43 0 73 -4t69 -22t81 -57q-16 69 -48 121t-71.5 80.5t-77.5 28.5q-18 0 -33.5 -6.5t-37.5 -18.5q-25 -16 -37 -16q-5 0 -8.5 3.5t-3.5 8.5q0 40 35.5 62t86.5 20q70 -4 128 -59.5t91.5 -137.5t33.5 -161
q0 -13 -2 -37l-32 2q-38 77 -97.5 109.5t-119.5 32.5q-77 0 -110 -23t-33 -67q0 -46 46 -74t118 -28q40 0 64 4.5t50 12.5q21 7 37 10t41 3q28 0 35.5 -4t7.5 -18q0 -10 -41 -25t-92 -27t-70 -12q-104 0 -180.5 36.5zM173 594.5q-33 22.5 -33 58.5q1 7 21 7q8 0 14.5 -2.5
t6.5 -6.5q0 -19 23 -29t55 -10q35 0 57 13.5t22 36.5q0 6 -1 9v4q0 11 15 11q14 0 22.5 -7.5t8.5 -17.5q0 -38 -39 -63.5t-89 -25.5t-83 22.5zM90 773q-15 14 -20 26t0 17q7 7 15 7q17 0 47 -27q2 -2 38 -30t36 -36q0 -18 -6 -23t-22 -5q-15 0 -88 71z" />
    <glyph glyph-name="uni1EB3" unicode="&#x1eb3;" horiz-adv-x="540" 
d="M116.5 36.5q-76.5 36.5 -76.5 128.5q0 33 20 64t59 50.5t95 19.5q43 0 73 -4t69 -22t81 -57q-16 69 -48 121t-71.5 80.5t-77.5 28.5q-18 0 -33.5 -6.5t-37.5 -18.5q-25 -16 -37 -16q-5 0 -8.5 3.5t-3.5 8.5q0 40 35.5 62t86.5 20q70 -4 128 -59.5t91.5 -137.5t33.5 -161
q0 -13 -2 -37l-32 2q-38 77 -97.5 109.5t-119.5 32.5q-77 0 -110 -23t-33 -67q0 -46 46 -74t118 -28q40 0 64 4.5t50 12.5q21 7 37 10t41 3q28 0 35.5 -4t7.5 -18q0 -10 -41 -25t-92 -27t-70 -12q-104 0 -180.5 36.5zM223 594.5q-33 22.5 -33 58.5q1 7 21 7q8 0 14.5 -2.5
t6.5 -6.5q0 -19 23 -29t55 -10q35 0 57 13.5t22 36.5q0 6 -1 9v4q0 11 15 11q14 0 22.5 -7.5t8.5 -17.5q0 -38 -39 -63.5t-89 -25.5t-83 22.5zM217 697q0 6 10 16l22 21q21 18 33 31.5t12 26.5q0 20 -9 31t-39 11q-13 0 -28 -7t-22 -19q-8 1 -12.5 7.5t-4.5 16.5
q0 19 25.5 29t49.5 10q46 0 65 -22t19 -49q0 -22 -11 -36t-33 -32q-10 -7 -18.5 -15t-12.5 -16q1 -5 -3.5 -12t-15.5 -7q-8 0 -20 6q-7 3 -7 9z" />
    <glyph glyph-name="uni1EB5" unicode="&#x1eb5;" horiz-adv-x="540" 
d="M116.5 36.5q-76.5 36.5 -76.5 128.5q0 33 20 64t59 50.5t95 19.5q43 0 73 -4t69 -22t81 -57q-16 69 -48 121t-71.5 80.5t-77.5 28.5q-18 0 -33.5 -6.5t-37.5 -18.5q-25 -16 -37 -16q-5 0 -8.5 3.5t-3.5 8.5q0 40 35.5 62t86.5 20q70 -4 128 -59.5t91.5 -137.5t33.5 -161
q0 -13 -2 -37l-32 2q-38 77 -97.5 109.5t-119.5 32.5q-77 0 -110 -23t-33 -67q0 -46 46 -74t118 -28q40 0 64 4.5t50 12.5q21 7 37 10t41 3q28 0 35.5 -4t7.5 -18q0 -10 -41 -25t-92 -27t-70 -12q-104 0 -180.5 36.5zM224 594.5q-33 22.5 -33 58.5q1 7 21 7q8 0 14.5 -2.5
t6.5 -6.5q0 -19 23 -29t55 -10q35 0 57 13.5t22 36.5q0 6 -1 9v4q0 11 15 11q14 0 22.5 -7.5t8.5 -17.5q0 -38 -39 -63.5t-89 -25.5t-83 22.5zM29 732q0 34 23 57t52 23q25 0 42.5 -10.5t36.5 -28.5q11 -10 18.5 -15t14.5 -5q14 0 18.5 6.5t10.5 29.5q1 5 7 28q29 3 25 -29
t-19.5 -50t-40.5 -18q-17 0 -28 7t-26 21t-25.5 20.5t-26.5 6.5q-22 0 -32.5 -13t-10.5 -39q0 -8 2 -26v-3q0 -11 -16 -8q-15 3 -20 17q-5 17 -5 29z" />
    <glyph glyph-name="acircumflex" unicode="&#xe2;" horiz-adv-x="540" 
d="M116.5 36.5q-76.5 36.5 -76.5 128.5q0 33 20 64t59 50.5t95 19.5q43 0 73 -4t69 -22t81 -57q-16 69 -48 121t-71.5 80.5t-77.5 28.5q-18 0 -33.5 -6.5t-37.5 -18.5q-25 -16 -37 -16q-5 0 -8.5 3.5t-3.5 8.5q0 40 35.5 62t86.5 20q70 -4 128 -59.5t91.5 -137.5t33.5 -161
q0 -13 -2 -37l-32 2q-38 77 -97.5 109.5t-119.5 32.5q-77 0 -110 -23t-33 -67q0 -46 46 -74t118 -28q40 0 64 4.5t50 12.5q21 7 37 10t41 3q28 0 35.5 -4t7.5 -18q0 -10 -41 -25t-92 -27t-70 -12q-104 0 -180.5 36.5zM348 549q-10 13 -25 41q-26 48 -53 82
q-12 -35 -34.5 -67.5t-47 -52.5t-41.5 -20q-19 0 -29 27l36 31q28 24 41 37.5t23 35t19 59.5q3 9 16 9q16 0 23.5 -5t17.5 -22q8 -14 43 -53q6 -8 17 -21t16 -20q13 -20 17 -31t4 -24q0 -11 -5.5 -15t-16.5 -4t-21 13z" />
    <glyph glyph-name="uni1EA5" unicode="&#x1ea5;" horiz-adv-x="540" 
d="M116.5 36.5q-76.5 36.5 -76.5 128.5q0 33 20 64t59 50.5t95 19.5q43 0 73 -4t69 -22t81 -57q-16 69 -48 121t-71.5 80.5t-77.5 28.5q-18 0 -33.5 -6.5t-37.5 -18.5q-25 -16 -37 -16q-5 0 -8.5 3.5t-3.5 8.5q0 40 35.5 62t86.5 20q70 -4 128 -59.5t91.5 -137.5t33.5 -161
q0 -13 -2 -37l-32 2q-38 77 -97.5 109.5t-119.5 32.5q-77 0 -110 -23t-33 -67q0 -46 46 -74t118 -28q40 0 64 4.5t50 12.5q21 7 37 10t41 3q28 0 35.5 -4t7.5 -18q0 -10 -41 -25t-92 -27t-70 -12q-104 0 -180.5 36.5zM323 549q-10 13 -25 41q-26 48 -53 82
q-12 -35 -34.5 -67.5t-47 -52.5t-41.5 -20q-19 0 -29 27l36 31q28 24 41 37.5t23 35t19 59.5q3 9 16 9q16 0 23.5 -5t17.5 -22q8 -14 43 -53q6 -8 17 -21t16 -20q13 -20 17 -31t4 -24q0 -11 -5.5 -15t-16.5 -4t-21 13zM368.5 652q-4.5 4 -4.5 19q0 20 32 49t82 66l22 17
q18 -9 18 -21t-14.5 -28t-48.5 -45q-40 -34 -67 -61q-15 0 -19.5 4z" />
    <glyph glyph-name="uni1EAD" unicode="&#x1ead;" horiz-adv-x="506" 
d="M116.5 36.5q-76.5 36.5 -76.5 128.5q0 33 20 64t59 50.5t95 19.5q43 0 73 -4t69 -22t81 -57q-16 69 -48 121t-71.5 80.5t-77.5 28.5q-18 0 -33.5 -6.5t-37.5 -18.5q-25 -16 -37 -16q-5 0 -8.5 3.5t-3.5 8.5q0 40 35.5 62t86.5 20q70 -4 128 -59.5t91.5 -137.5t33.5 -161
q0 -13 -2 -37l-32 2q-38 77 -97.5 109.5t-119.5 32.5q-77 0 -110 -23t-33 -67q0 -46 46 -74t118 -28q40 0 64 4.5t50 12.5q21 7 37 10t41 3q28 0 35.5 -4t7.5 -18q0 -10 -41 -25t-92 -27t-70 -12q-104 0 -180.5 36.5zM251.5 -154q-10.5 17 -10.5 42q0 11 1 16q-1 16 18 16
q14 0 28.5 -6.5t8.5 -9.5q10 -26 10 -41q0 -13 -6 -20.5t-17 -13.5q-22 0 -32.5 17zM347 556q-10 13 -25 41q-26 48 -53 82q-12 -35 -34.5 -67.5t-47 -52.5t-41.5 -20q-19 0 -29 27l36 31q28 24 41 37.5t23 35t19 59.5q3 9 16 9q16 0 23.5 -5t17.5 -22q8 -14 43 -53
q6 -8 17 -21t16 -20q13 -20 17 -31t4 -24q0 -11 -5.5 -15t-16.5 -4t-21 13z" />
    <glyph glyph-name="uni1EA7" unicode="&#x1ea7;" horiz-adv-x="540" 
d="M116.5 36.5q-76.5 36.5 -76.5 128.5q0 33 20 64t59 50.5t95 19.5q43 0 73 -4t69 -22t81 -57q-16 69 -48 121t-71.5 80.5t-77.5 28.5q-18 0 -33.5 -6.5t-37.5 -18.5q-25 -16 -37 -16q-5 0 -8.5 3.5t-3.5 8.5q0 40 35.5 62t86.5 20q70 -4 128 -59.5t91.5 -137.5t33.5 -161
q0 -13 -2 -37l-32 2q-38 77 -97.5 109.5t-119.5 32.5q-77 0 -110 -23t-33 -67q0 -46 46 -74t118 -28q40 0 64 4.5t50 12.5q21 7 37 10t41 3q28 0 35.5 -4t7.5 -18q0 -10 -41 -25t-92 -27t-70 -12q-104 0 -180.5 36.5zM324 549q-10 13 -25 41q-26 48 -53 82
q-12 -35 -34.5 -67.5t-47 -52.5t-41.5 -20q-19 0 -29 27l36 31q28 24 41 37.5t23 35t19 59.5q3 9 16 9q16 0 23.5 -5t17.5 -22q8 -14 43 -53q6 -8 17 -21t16 -20q13 -20 17 -31t4 -24q0 -11 -5.5 -15t-16.5 -4t-21 13zM200 828q-15 14 -20 26t0 17q7 7 15 7q17 0 47 -27
q2 -2 38 -30t36 -36q0 -18 -6 -23t-22 -5q-15 0 -88 71z" />
    <glyph glyph-name="uni1EA9" unicode="&#x1ea9;" horiz-adv-x="540" 
d="M116.5 36.5q-76.5 36.5 -76.5 128.5q0 33 20 64t59 50.5t95 19.5q43 0 73 -4t69 -22t81 -57q-16 69 -48 121t-71.5 80.5t-77.5 28.5q-18 0 -33.5 -6.5t-37.5 -18.5q-25 -16 -37 -16q-5 0 -8.5 3.5t-3.5 8.5q0 40 35.5 62t86.5 20q70 -4 128 -59.5t91.5 -137.5t33.5 -161
q0 -13 -2 -37l-32 2q-38 77 -97.5 109.5t-119.5 32.5q-77 0 -110 -23t-33 -67q0 -46 46 -74t118 -28q40 0 64 4.5t50 12.5q21 7 37 10t41 3q28 0 35.5 -4t7.5 -18q0 -10 -41 -25t-92 -27t-70 -12q-104 0 -180.5 36.5zM335 549q-10 13 -25 41q-26 48 -53 82
q-12 -35 -34.5 -67.5t-47 -52.5t-41.5 -20q-19 0 -29 27l36 31q28 24 41 37.5t23 35t19 59.5q3 9 16 9q16 0 23.5 -5t17.5 -22q8 -14 43 -53q6 -8 17 -21t16 -20q13 -20 17 -31t4 -24q0 -11 -5.5 -15t-16.5 -4t-21 13zM356 674q0 6 10 16l22 21q21 18 33 31.5t12 26.5
q0 20 -9 31t-39 11q-13 0 -28 -7t-22 -19q-8 1 -12.5 7.5t-4.5 16.5q0 19 25.5 29t49.5 10q46 0 65 -22t19 -49q0 -22 -11 -36t-33 -32q-10 -7 -18.5 -15t-12.5 -16q1 -5 -3.5 -12t-15.5 -7q-8 0 -20 6q-7 3 -7 9z" />
    <glyph glyph-name="uni1EAB" unicode="&#x1eab;" horiz-adv-x="540" 
d="M116.5 36.5q-76.5 36.5 -76.5 128.5q0 33 20 64t59 50.5t95 19.5q43 0 73 -4t69 -22t81 -57q-16 69 -48 121t-71.5 80.5t-77.5 28.5q-18 0 -33.5 -6.5t-37.5 -18.5q-25 -16 -37 -16q-5 0 -8.5 3.5t-3.5 8.5q0 40 35.5 62t86.5 20q70 -4 128 -59.5t91.5 -137.5t33.5 -161
q0 -13 -2 -37l-32 2q-38 77 -97.5 109.5t-119.5 32.5q-77 0 -110 -23t-33 -67q0 -46 46 -74t118 -28q40 0 64 4.5t50 12.5q21 7 37 10t41 3q28 0 35.5 -4t7.5 -18q0 -10 -41 -25t-92 -27t-70 -12q-104 0 -180.5 36.5zM332 549q-10 13 -25 41q-26 48 -53 82
q-12 -35 -34.5 -67.5t-47 -52.5t-41.5 -20q-19 0 -29 27l36 31q28 24 41 37.5t23 35t19 59.5q3 9 16 9q16 0 23.5 -5t17.5 -22q8 -14 43 -53q6 -8 17 -21t16 -20q13 -20 17 -31t4 -24q0 -11 -5.5 -15t-16.5 -4t-21 13zM19 762q0 34 23 57t52 23q25 0 42.5 -10.5t36.5 -28.5
q11 -10 18.5 -15t14.5 -5q14 0 18.5 6.5t10.5 29.5q1 5 7 28q29 3 25 -29t-19.5 -50t-40.5 -18q-17 0 -28 7t-26 21t-25.5 20.5t-26.5 6.5q-22 0 -32.5 -13t-10.5 -39q0 -8 2 -26v-3q0 -11 -16 -8q-15 3 -20 17q-5 17 -5 29z" />
    <glyph glyph-name="uni0201" unicode="&#x201;" horiz-adv-x="540" 
d="M129 616q-14 12 -18.5 23t0.5 16q5 6 13 6q15 0 43 -24q2 -2 34 -27t32 -32q0 -17 -5.5 -21.5t-19.5 -4.5q-13 0 -79 64zM228 616q-14 12 -18.5 23t0.5 16q5 6 13 6q15 0 43 -24q2 -2 34 -27t32 -32q0 -17 -5.5 -21.5t-19.5 -4.5q-13 0 -79 64zM116.5 36.5
q-76.5 36.5 -76.5 128.5q0 33 20 64t59 50.5t95 19.5q43 0 73 -4t69 -22t81 -57q-16 69 -48 121t-71.5 80.5t-77.5 28.5q-18 0 -33.5 -6.5t-37.5 -18.5q-25 -16 -37 -16q-5 0 -8.5 3.5t-3.5 8.5q0 40 35.5 62t86.5 20q70 -4 128 -59.5t91.5 -137.5t33.5 -161q0 -13 -2 -37
l-32 2q-38 77 -97.5 109.5t-119.5 32.5q-77 0 -110 -23t-33 -67q0 -46 46 -74t118 -28q40 0 64 4.5t50 12.5q21 7 37 10t41 3q28 0 35.5 -4t7.5 -18q0 -10 -41 -25t-92 -27t-70 -12q-104 0 -180.5 36.5z" />
    <glyph glyph-name="adieresis" unicode="&#xe4;" horiz-adv-x="506" 
d="M116.5 36.5q-76.5 36.5 -76.5 128.5q0 33 20 64t59 50.5t95 19.5q43 0 73 -4t69 -22t81 -57q-16 69 -48 121t-71.5 80.5t-77.5 28.5q-18 0 -33.5 -6.5t-37.5 -18.5q-25 -16 -37 -16q-5 0 -8.5 3.5t-3.5 8.5q0 40 35.5 62t86.5 20q70 -4 128 -59.5t91.5 -137.5t33.5 -161
q0 -13 -2 -37l-32 2q-38 77 -97.5 109.5t-119.5 32.5q-77 0 -110 -23t-33 -67q0 -46 46 -74t118 -28q40 0 64 4.5t50 12.5q21 7 37 10t41 3q28 0 35.5 -4t7.5 -18q0 -10 -41 -25t-92 -27t-70 -12q-104 0 -180.5 36.5zM141 562.5q-14 16.5 -14 30.5q0 9 16.5 29t25.5 20
q29 0 44 -17t15 -37q0 -13 -17.5 -27.5t-36.5 -14.5t-33 16.5zM297 562.5q-13 16.5 -13 30.5q0 9 16.5 29t26.5 20q27 0 42 -17t15 -37q0 -13 -17.5 -27.5t-35.5 -14.5q-21 0 -34 16.5z" />
    <glyph glyph-name="uni1EA1" unicode="&#x1ea1;" horiz-adv-x="540" 
d="M116.5 36.5q-76.5 36.5 -76.5 128.5q0 33 20 64t59 50.5t95 19.5q43 0 73 -4t69 -22t81 -57q-16 69 -48 121t-71.5 80.5t-77.5 28.5q-18 0 -33.5 -6.5t-37.5 -18.5q-25 -16 -37 -16q-5 0 -8.5 3.5t-3.5 8.5q0 40 35.5 62t86.5 20q70 -4 128 -59.5t91.5 -137.5t33.5 -161
q0 -13 -2 -37l-32 2q-38 77 -97.5 109.5t-119.5 32.5q-77 0 -110 -23t-33 -67q0 -46 46 -74t118 -28q40 0 64 4.5t50 12.5q21 7 37 10t41 3q28 0 35.5 -4t7.5 -18q0 -10 -41 -25t-92 -27t-70 -12q-104 0 -180.5 36.5zM251.5 -154q-10.5 17 -10.5 42q0 11 1 16q-1 16 18 16
q14 0 28.5 -6.5t8.5 -9.5q10 -26 10 -41q0 -13 -6 -20.5t-17 -13.5q-22 0 -32.5 17z" />
    <glyph glyph-name="agrave" unicode="&#xe0;" horiz-adv-x="506" 
d="M116.5 36.5q-76.5 36.5 -76.5 128.5q0 33 20 64t59 50.5t95 19.5q43 0 73 -4t69 -22t81 -57q-16 69 -48 121t-71.5 80.5t-77.5 28.5q-18 0 -33.5 -6.5t-37.5 -18.5q-25 -16 -37 -16q-5 0 -8.5 3.5t-3.5 8.5q0 40 35.5 62t86.5 20q70 -4 128 -59.5t91.5 -137.5t33.5 -161
q0 -13 -2 -37l-32 2q-38 77 -97.5 109.5t-119.5 32.5q-77 0 -110 -23t-33 -67q0 -46 46 -74t118 -28q40 0 64 4.5t50 12.5q21 7 37 10t41 3q28 0 35.5 -4t7.5 -18q0 -10 -41 -25t-92 -27t-70 -12q-104 0 -180.5 36.5zM187 599q-15 14 -20 26t0 17q7 7 15 7q17 0 47 -27
q2 -2 38 -30t36 -36q0 -18 -6 -23t-22 -5q-15 0 -88 71z" />
    <glyph glyph-name="uni1EA3" unicode="&#x1ea3;" horiz-adv-x="506" 
d="M116.5 36.5q-76.5 36.5 -76.5 128.5q0 33 20 64t59 50.5t95 19.5q43 0 73 -4t69 -22t81 -57q-16 69 -48 121t-71.5 80.5t-77.5 28.5q-18 0 -33.5 -6.5t-37.5 -18.5q-25 -16 -37 -16q-5 0 -8.5 3.5t-3.5 8.5q0 40 35.5 62t86.5 20q70 -4 128 -59.5t91.5 -137.5t33.5 -161
q0 -13 -2 -37l-32 2q-38 77 -97.5 109.5t-119.5 32.5q-77 0 -110 -23t-33 -67q0 -46 46 -74t118 -28q40 0 64 4.5t50 12.5q21 7 37 10t41 3q28 0 35.5 -4t7.5 -18q0 -10 -41 -25t-92 -27t-70 -12q-104 0 -180.5 36.5zM217 575q0 6 10 16l22 21q21 18 33 31.5t12 26.5
q0 20 -9 31t-39 11q-13 0 -28 -7t-22 -19q-8 1 -12.5 7.5t-4.5 16.5q0 19 25.5 29t49.5 10q46 0 65 -22t19 -49q0 -22 -11 -36t-33 -32q-10 -7 -18.5 -15t-12.5 -16q1 -5 -3.5 -12t-15.5 -7q-8 0 -20 6q-7 3 -7 9z" />
    <glyph glyph-name="uni0203" unicode="&#x203;" horiz-adv-x="540" 
d="M116.5 36.5q-76.5 36.5 -76.5 128.5q0 33 20 64t59 50.5t95 19.5q43 0 73 -4t69 -22t81 -57q-16 69 -48 121t-71.5 80.5t-77.5 28.5q-18 0 -33.5 -6.5t-37.5 -18.5q-25 -16 -37 -16q-5 0 -8.5 3.5t-3.5 8.5q0 40 35.5 62t86.5 20q70 -4 128 -59.5t91.5 -137.5t33.5 -161
q0 -13 -2 -37l-32 2q-38 77 -97.5 109.5t-119.5 32.5q-77 0 -110 -23t-33 -67q0 -46 46 -74t118 -28q40 0 64 4.5t50 12.5q21 7 37 10t41 3q28 0 35.5 -4t7.5 -18q0 -10 -41 -25t-92 -27t-70 -12q-104 0 -180.5 36.5zM345 634.5q39 -25.5 39 -63.5q0 -10 -7.5 -17t-20.5 -8
h-3q-18 0 -15 15q1 3 1 9q0 23 -22 36.5t-57 13.5q-32 0 -55 -10t-23 -29q0 -4 -6.5 -6.5t-14.5 -2.5q-20 0 -21 7q0 36 33 58.5t83 22.5t89 -25.5z" />
    <glyph glyph-name="amacron" unicode="&#x101;" horiz-adv-x="506" 
d="M116.5 36.5q-76.5 36.5 -76.5 128.5q0 33 20 64t59 50.5t95 19.5q43 0 73 -4t69 -22t81 -57q-16 69 -48 121t-71.5 80.5t-77.5 28.5q-18 0 -33.5 -6.5t-37.5 -18.5q-25 -16 -37 -16q-5 0 -8.5 3.5t-3.5 8.5q0 40 35.5 62t86.5 20q70 -4 128 -59.5t91.5 -137.5t33.5 -161
q0 -13 -2 -37l-32 2q-38 77 -97.5 109.5t-119.5 32.5q-77 0 -110 -23t-33 -67q0 -46 46 -74t118 -28q40 0 64 4.5t50 12.5q21 7 37 10t41 3q28 0 35.5 -4t7.5 -18q0 -10 -41 -25t-92 -27t-70 -12q-104 0 -180.5 36.5zM132 614q20 13 46.5 16.5t79.5 5.5q50 2 61 2
q31 0 41 -6.5t10 -27.5q0 -20 -18 -20t-38 5q-5 1 -18 3t-25 2q-37 0 -79 -10q-21 -5 -38 -7.5t-42 -2.5q0 27 20 40z" />
    <glyph glyph-name="aogonek" unicode="&#x105;" horiz-adv-x="540" 
d="M527.5 -98q-4.5 -11 -12.5 -14q-36 -14 -73 -14q-48 0 -79 23.5t-31 57.5q0 28 17 53q-37 -8 -52 -8q-104 0 -180.5 36.5t-76.5 128.5q0 33 20 64t59 50.5t95 19.5q43 0 73 -4t69 -22t81 -57q-16 69 -48 121t-71.5 80.5t-77.5 28.5q-18 0 -33.5 -6.5t-37.5 -18.5
q-25 -16 -37 -16q-5 0 -8.5 3.5t-3.5 8.5q0 40 35.5 62t86.5 20q70 -4 128 -59.5t91.5 -137.5t33.5 -161q0 -13 -2 -37l-32 2q-38 77 -97.5 109.5t-119.5 32.5q-77 0 -110 -23t-33 -67q0 -46 46 -74t118 -28q40 0 64 4.5t50 12.5q21 7 37 10t41 3q28 0 35.5 -4t7.5 -18
q0 -8 -27 -19l1 -1q-93 -36 -93 -88q0 -20 14.5 -33.5t48.5 -13.5q32 0 86 15q2 -11 -2.5 -22z" />
    <glyph glyph-name="aring" unicode="&#xe5;" horiz-adv-x="540" 
d="M116.5 36.5q-76.5 36.5 -76.5 128.5q0 33 20 64t59 50.5t95 19.5q43 0 73 -4t69 -22t81 -57q-16 69 -48 121t-71.5 80.5t-77.5 28.5q-18 0 -33.5 -6.5t-37.5 -18.5q-25 -16 -37 -16q-5 0 -8.5 3.5t-3.5 8.5q0 40 35.5 62t86.5 20q70 -4 128 -59.5t91.5 -137.5t33.5 -161
q0 -13 -2 -37l-32 2q-38 77 -97.5 109.5t-119.5 32.5q-77 0 -110 -23t-33 -67q0 -46 46 -74t118 -28q40 0 64 4.5t50 12.5q21 7 37 10t41 3q28 0 35.5 -4t7.5 -18q0 -10 -41 -25t-92 -27t-70 -12q-104 0 -180.5 36.5zM187 564.5q-24 22.5 -24 58.5q0 41 30 61.5t73 20.5
q37 0 58 -25t21 -53q0 -38 -28.5 -61.5t-67.5 -23.5q-38 0 -62 22.5zM292.5 593q17.5 16 17.5 37q0 16 -8.5 29t-32.5 14q-29 2 -49 -8.5t-20 -38.5q0 -23 14.5 -35t40.5 -12q20 -2 37.5 14z" />
    <glyph glyph-name="aringacute" unicode="&#x1fb;" horiz-adv-x="540" 
d="M187 564.5q-24 22.5 -24 58.5q0 30 18 51q-4 4 -4 18q0 20 32 49t82 66l22 17q18 -9 18 -21q0 -11 -14.5 -27t-49.5 -47q-11 -9 -31 -27q15 3 30 3q37 0 58 -25t21 -53q0 -38 -28.5 -61.5t-67.5 -23.5q-38 0 -62 22.5zM217 662.5q-17 -10.5 -17 -36.5q0 -23 14.5 -35
t40.5 -12q20 -2 37.5 14t17.5 37q0 43 -50 43q-26 0 -43 -10.5zM492.5 82q7.5 -4 7.5 -18q0 -10 -41 -25t-92 -27t-70 -12q-104 0 -180.5 36.5t-76.5 128.5q0 33 20 64t59 50.5t95 19.5q43 0 73 -4t69 -22t81 -57q-16 69 -48 121t-71.5 80.5t-77.5 28.5q-18 0 -33.5 -6.5
t-37.5 -18.5q-25 -16 -37 -16q-5 0 -8.5 3.5t-3.5 8.5q0 40 35.5 62t86.5 20q70 -4 128 -59.5t91.5 -137.5t33.5 -161q0 -13 -2 -37l-32 2q-38 77 -97.5 109.5t-119.5 32.5q-77 0 -110 -23t-33 -67q0 -46 46 -74t118 -28q40 0 64 4.5t50 12.5q21 7 37 10t41 3q28 0 35.5 -4z
" />
    <glyph glyph-name="atilde" unicode="&#xe3;" horiz-adv-x="506" 
d="M116.5 36.5q-76.5 36.5 -76.5 128.5q0 33 20 64t59 50.5t95 19.5q43 0 73 -4t69 -22t81 -57q-16 69 -48 121t-71.5 80.5t-77.5 28.5q-18 0 -33.5 -6.5t-37.5 -18.5q-25 -16 -37 -16q-5 0 -8.5 3.5t-3.5 8.5q0 40 35.5 62t86.5 20q70 -4 128 -59.5t91.5 -137.5t33.5 -161
q0 -13 -2 -37l-32 2q-38 77 -97.5 109.5t-119.5 32.5q-77 0 -110 -23t-33 -67q0 -46 46 -74t118 -28q40 0 64 4.5t50 12.5q21 7 37 10t41 3q28 0 35.5 -4t7.5 -18q0 -10 -41 -25t-92 -27t-70 -12q-104 0 -180.5 36.5zM70 605q0 35 25.5 60t58.5 25q27 0 49 -8.5t57 -32.5
q34 -23 63 -23q25 0 43 17t27 46q12 1 18 -3.5t6 -13.5q0 -3 -2 -11q-11 -30 -24.5 -45.5t-35.5 -22.5q-17 -5 -30 -5q-20 0 -38 7.5t-47 23.5q-25 14 -42 21t-34 7q-29 0 -42 -13t-13 -40q0 -7 2 -25v-3q0 -6 -5.5 -8t-10.5 0q-15 3 -20 17q-5 13 -5 30z" />
    <glyph glyph-name="ae" unicode="&#xe6;" horiz-adv-x="843" 
d="M734 59q16 5 23 7q43 15 63 15q15 0 23 -8q-25 -38 -74.5 -55.5t-97.5 -17.5q-50 0 -95 15.5t-78 44.5q-7 -11 -48 -25t-88 -24.5t-65 -10.5q-104 0 -180.5 36.5t-76.5 128.5q0 33 20 64t59 50.5t95 19.5q43 0 73 -3.5t68.5 -21.5t79.5 -56l1 4q-16 67 -48 118
t-71.5 78.5t-76.5 27.5q-18 0 -33.5 -6.5t-37.5 -18.5q-25 -16 -37 -16q-5 0 -8.5 3.5t-3.5 8.5q0 38 32.5 60t80.5 22q69 0 128 -51.5t95 -131.5q24 64 73.5 102.5t117.5 38.5t103 -43.5t33 -109.5q0 -59 -46.5 -90t-118.5 -31q-11 0 -33 2q-36 4 -51 11t-15 28q0 7 4 10.5
t16 3.5q13 0 46 -6q32 -6 57 -6q92 0 92 80q0 48 -17.5 76t-61.5 28q-48 0 -86 -25.5t-58.5 -66.5t-20.5 -87q0 -79 44 -129.5t136 -50.5q11 0 37 2q11 1 27 6zM329 60.5q24 4.5 50 12.5q21 7 37 10t41 3h17q-16 21 -24 40q-39 66 -94.5 94t-111.5 28q-77 0 -110 -23
t-33 -67q0 -46 46 -74t118 -28q40 0 64 4.5z" />
    <glyph glyph-name="aeacute" unicode="&#x1fd;" horiz-adv-x="843" 
d="M734 59q16 5 23 7q43 15 63 15q15 0 23 -8q-25 -38 -74.5 -55.5t-97.5 -17.5q-50 0 -95 15.5t-78 44.5q-7 -11 -48 -25t-88 -24.5t-65 -10.5q-104 0 -180.5 36.5t-76.5 128.5q0 33 20 64t59 50.5t95 19.5q43 0 73 -3.5t68.5 -21.5t79.5 -56l1 4q-16 67 -48 118
t-71.5 78.5t-76.5 27.5q-18 0 -33.5 -6.5t-37.5 -18.5q-25 -16 -37 -16q-5 0 -8.5 3.5t-3.5 8.5q0 38 32.5 60t80.5 22q69 0 128 -51.5t95 -131.5q24 64 73.5 102.5t117.5 38.5t103 -43.5t33 -109.5q0 -59 -46.5 -90t-118.5 -31q-11 0 -33 2q-36 4 -51 11t-15 28q0 7 4 10.5
t16 3.5q13 0 46 -6q32 -6 57 -6q92 0 92 80q0 48 -17.5 76t-61.5 28q-48 0 -86 -25.5t-58.5 -66.5t-20.5 -87q0 -79 44 -129.5t136 -50.5q11 0 37 2q11 1 27 6zM329 60.5q24 4.5 50 12.5q21 7 37 10t41 3h17q-16 21 -24 40q-39 66 -94.5 94t-111.5 28q-77 0 -110 -23
t-33 -67q0 -46 46 -74t118 -28q40 0 64 4.5zM383.5 538q-4.5 4 -4.5 19q0 20 32 49t82 66l22 17q18 -9 18 -21t-14.5 -28t-48.5 -45q-40 -34 -67 -61q-15 0 -19.5 4z" />
    <glyph glyph-name="b" unicode="b" horiz-adv-x="528" 
d="M183 30.5q-46 31.5 -68 96t-29 173.5l-29 169q-4 37 -11 72t-7 50q0 21 12 31.5t43 14.5q6 -50 8 -75q11 -97 18.5 -148.5t19.5 -107.5q77 34 148 34q64 0 114 -26.5t78 -74t28 -106.5q0 -69 -60.5 -101.5t-138.5 -32.5q-80 0 -126 31.5zM453 151q0 71 -48.5 106
t-137.5 35q-55 0 -85.5 -21.5t-30.5 -58.5q0 -85 46.5 -124t142.5 -39q46 0 77 21t35 61q1 7 1 20z" />
    <glyph glyph-name="c" unicode="c" horiz-adv-x="444" 
d="M104.5 52.5q-64.5 53.5 -64.5 165.5q0 57 28.5 108.5t77 83t104.5 31.5q57 0 97 -24.5t40 -70.5q0 -32 -11.5 -45.5t-25.5 -13.5q0 48 -26 78t-74 30t-83 -25.5t-53.5 -67t-18.5 -86.5q0 -95 64.5 -129t170.5 -34q36 0 94 4q2 0 9 -4t11 -5v-6q0 -29 -51 -36t-107 -7
q-117 0 -181.5 53.5z" />
    <glyph glyph-name="cacute" unicode="&#x107;" horiz-adv-x="444" 
d="M104.5 52.5q-64.5 53.5 -64.5 165.5q0 57 28.5 108.5t77 83t104.5 31.5q57 0 97 -24.5t40 -70.5q0 -32 -11.5 -45.5t-25.5 -13.5q0 48 -26 78t-74 30t-83 -25.5t-53.5 -67t-18.5 -86.5q0 -95 64.5 -129t170.5 -34q36 0 94 4q2 0 9 -4t11 -5v-6q0 -29 -51 -36t-107 -7
q-117 0 -181.5 53.5zM182.5 509q-4.5 4 -4.5 19q0 20 32 49t82 66l22 17q18 -9 18 -21t-14.5 -28t-48.5 -45q-40 -34 -67 -61q-15 0 -19.5 4z" />
    <glyph glyph-name="ccaron" unicode="&#x10d;" horiz-adv-x="444" 
d="M104.5 52.5q-64.5 53.5 -64.5 165.5q0 57 28.5 108.5t77 83t104.5 31.5q57 0 97 -24.5t40 -70.5q0 -32 -11.5 -45.5t-25.5 -13.5q0 48 -26 78t-74 30t-83 -25.5t-53.5 -67t-18.5 -86.5q0 -95 64.5 -129t170.5 -34q36 0 94 4q2 0 9 -4t11 -5v-6q0 -29 -51 -36t-107 -7
q-117 0 -181.5 53.5zM239 511q-13 31 -28.5 43.5t-53.5 31.5q-30 15 -37 19q11 21 33 21q25 0 57.5 -20.5t59.5 -50.5q11 8 33 26q26 22 42 32.5t25 10.5q12 0 15.5 -4t3.5 -13t-2 -13t-7.5 -9t-9.5 -9q-6 -6 -19.5 -15t-18.5 -12q-28 -18 -37 -27q-10 -9 -17 -12.5
t-21 -3.5t-18 5z" />
    <glyph glyph-name="ccedilla" unicode="&#xe7;" horiz-adv-x="444" 
d="M433 53q7 -4 11 -5v-6q0 -27 -46 -35t-100 -8q-20 0 -58 2q2 -8 2 -15q0 -37 17 -55.5t55 -30.5q44 -16 67 -32.5t23 -51.5q0 -29 -17.5 -53t-43.5 -37t-52 -13q-88 0 -138 96q6 6 15 10t18 4q12 0 19.5 -7.5t17.5 -22.5q12 -22 26.5 -34t42.5 -12q26 0 42.5 15.5
t16.5 41.5q0 29 -12.5 41t-30 18.5t-24.5 9.5q-39 14 -62.5 42t-23.5 84q0 6 1 9q-159 35 -159 210q0 57 28.5 108.5t77 83t104.5 31.5q57 0 97 -24.5t40 -70.5q0 -32 -11.5 -45.5t-25.5 -13.5q0 48 -26 78t-74 30t-83 -25.5t-53.5 -67t-18.5 -86.5q0 -95 64.5 -129
t170.5 -34q36 0 94 4q2 0 9 -4z" />
    <glyph glyph-name="ccircumflex" unicode="&#x109;" horiz-adv-x="449" 
d="M104.5 52.5q-64.5 53.5 -64.5 165.5q0 57 28.5 108.5t77 83t104.5 31.5q57 0 97 -24.5t40 -70.5q0 -32 -11.5 -45.5t-25.5 -13.5q0 48 -26 78t-74 30t-83 -25.5t-53.5 -67t-18.5 -86.5q0 -95 64.5 -129t170.5 -34q36 0 94 4q2 0 9 -4t11 -5v-6q0 -29 -51 -36t-107 -7
q-117 0 -181.5 53.5zM319 549q-10 13 -25 41q-26 48 -53 82q-12 -35 -34.5 -67.5t-47 -52.5t-41.5 -20q-19 0 -29 27l36 31q28 24 41 37.5t23 35t19 59.5q3 9 16 9q16 0 23.5 -5t17.5 -22q8 -14 43 -53q6 -8 17 -21t16 -20q13 -20 17 -31t4 -24q0 -11 -5.5 -15t-16.5 -4
t-21 13z" />
    <glyph glyph-name="cdotaccent" unicode="&#x10b;" horiz-adv-x="444" 
d="M104.5 52.5q-64.5 53.5 -64.5 165.5q0 57 28.5 108.5t77 83t104.5 31.5q57 0 97 -24.5t40 -70.5q0 -32 -11.5 -45.5t-25.5 -13.5q0 48 -26 78t-74 30t-83 -25.5t-53.5 -67t-18.5 -86.5q0 -95 64.5 -129t170.5 -34q36 0 94 4q2 0 9 -4t11 -5v-6q0 -29 -51 -36t-107 -7
q-117 0 -181.5 53.5zM232.5 547q-10.5 17 -10.5 42q0 11 1 16q-1 16 18 16q14 0 28.5 -6.5t8.5 -9.5q10 -26 10 -41q0 -13 -6 -20.5t-17 -13.5q-22 0 -32.5 17z" />
    <glyph glyph-name="d" unicode="d" horiz-adv-x="562" 
d="M129.5 33q-34.5 32 -52 83t-17.5 106q0 96 40.5 162t123.5 66q50 0 87.5 -17.5t98.5 -58.5l26 -18q-5 33 -15 76t-13 59q-17 78 -24.5 116.5t-7.5 68.5q0 53 30 53q11 -24 26 -102.5t38 -214.5q24 -144 42 -235t30 -114q0 -23 -34 -23q-26 0 -35.5 30t-11.5 105h-8
q-42 -76 -109 -125t-133 -49q-47 0 -81.5 32zM312.5 84.5q47.5 34.5 80.5 84t33 89.5v30q-103 108 -190 108q-61 0 -94 -44.5t-33 -116.5l1 -21q6 -76 34 -120t80 -44q41 0 88.5 34.5z" />
    <glyph glyph-name="eth" unicode="&#xf0;" horiz-adv-x="408" 
d="M368 315.5q26 -69.5 26 -140.5q0 -74 -44.5 -126t-134.5 -52q-83 0 -137.5 40.5t-54.5 108.5t48 107t128 39q42 0 78 -10.5t66 -38.5q-20 95 -90 167q-1 -2 -5 -4l-29 -21q-21 -16 -32 -21.5t-19 -2.5q-9 3 -14.5 10t-8.5 21q30 15 76 47q-31 23 -61.5 35t-55.5 11
q-18 -1 -37 -20q-12 -14 -22 -14q-27 0 -27 26q0 23 21.5 37t54.5 14q91 0 166 -59l14 10q20 14 32.5 20.5t22.5 6.5q16 0 26 -22q-13 -17 -60 -48q47 -51 73 -120.5zM304.5 74q43.5 29 43.5 87q0 42 -43.5 66t-95.5 24q-62 0 -98 -28.5t-36 -76.5q0 -52 32.5 -76.5
t90.5 -24.5q63 0 106.5 29z" />
    <glyph glyph-name="dcaron" unicode="&#x10f;" horiz-adv-x="582" 
d="M129.5 33q-34.5 32 -52 83t-17.5 106q0 96 40.5 162t123.5 66q50 0 87.5 -17.5t98.5 -58.5l26 -18q-5 33 -15 76t-13 59q-17 78 -24.5 116.5t-7.5 68.5q0 53 30 53q11 -24 26 -102.5t38 -214.5q24 -144 42 -235t30 -114q0 -23 -34 -23q-26 0 -35.5 30t-11.5 105h-8
q-42 -76 -109 -125t-133 -49q-47 0 -81.5 32zM312.5 84.5q47.5 34.5 80.5 84t33 89.5v30q-103 108 -190 108q-61 0 -94 -44.5t-33 -116.5l1 -21q6 -76 34 -120t80 -44q41 0 88.5 34.5zM505.5 513q10.5 26 10.5 65q0 24 -6 55q-1 4 -1 13q0 19 10.5 33.5t31.5 14.5
q13 0 18.5 -17.5t5.5 -51.5q0 -32 -11 -68t-27 -60.5t-30 -24.5q-12 0 -12 11q0 4 10.5 30z" />
    <glyph glyph-name="dcroat" unicode="&#x111;" horiz-adv-x="562" 
d="M499 538q-24 6 -48 6h-4l24 -139q25 -145 42 -232t29 -110q0 -23 -34 -23q-26 0 -35.5 30t-11.5 105h-8q-42 -76 -109 -125t-133 -49q-47 0 -81.5 32t-52 83t-17.5 106q0 96 40.5 162t123.5 66q50 0 87.5 -17.5t98.5 -58.5l26 -18q-8 45 -27 128l-12 55q-19 -3 -57 -11
q-39 -8 -63.5 -12t-49.5 -4q0 25 42 40t121 23q-14 70 -14 102q0 52 30 52q11 -25 35 -150q10 1 27 1q40 0 61 -8t21 -19q0 -20 -19 -20q-15 0 -32 5zM426 288q-103 108 -190 108q-61 0 -94 -44.5t-33 -116.5l1 -21q6 -76 34 -120t80 -44q41 0 88.5 34.5t80.5 84t33 89.5v30
z" />
    <glyph glyph-name="e" unicode="e" horiz-adv-x="448" 
d="M158 25q-54 25 -86 71t-32 106q0 67 25 125.5t73.5 94t113.5 35.5q68 0 103 -43.5t33 -109.5q0 -59 -46.5 -90t-118.5 -31q-11 0 -33 2q-36 4 -51 11t-15 28q0 7 4 10.5t16 3.5q13 0 46 -6q32 -6 57 -6q92 0 92 80q0 48 -17.5 76t-61.5 28q-48 0 -86 -25.5t-58.5 -66.5
t-20.5 -87q0 -79 44 -129.5t136 -50.5q11 0 37 2q11 1 27 6t23 7q43 15 63 15q15 0 23 -8q-25 -38 -74.5 -55.5t-97.5 -17.5q-64 0 -118 25z" />
    <glyph glyph-name="eacute" unicode="&#xe9;" horiz-adv-x="448" 
d="M158 25q-54 25 -86 71t-32 106q0 67 25 125.5t73.5 94t113.5 35.5q68 0 103 -43.5t33 -109.5q0 -59 -46.5 -90t-118.5 -31q-11 0 -33 2q-36 4 -51 11t-15 28q0 7 4 10.5t16 3.5q13 0 46 -6q32 -6 57 -6q92 0 92 80q0 48 -17.5 76t-61.5 28q-48 0 -86 -25.5t-58.5 -66.5
t-20.5 -87q0 -79 44 -129.5t136 -50.5q11 0 37 2q11 1 27 6t23 7q43 15 63 15q15 0 23 -8q-25 -38 -74.5 -55.5t-97.5 -17.5q-64 0 -118 25zM173.5 525q-4.5 4 -4.5 19q0 20 32 49t82 66l22 17q18 -9 18 -21t-14.5 -28t-48.5 -45q-40 -34 -67 -61q-15 0 -19.5 4z" />
    <glyph glyph-name="ebreve" unicode="&#x115;" horiz-adv-x="448" 
d="M158 25q-54 25 -86 71t-32 106q0 67 25 125.5t73.5 94t113.5 35.5q68 0 103 -43.5t33 -109.5q0 -59 -46.5 -90t-118.5 -31q-11 0 -33 2q-36 4 -51 11t-15 28q0 7 4 10.5t16 3.5q13 0 46 -6q32 -6 57 -6q92 0 92 80q0 48 -17.5 76t-61.5 28q-48 0 -86 -25.5t-58.5 -66.5
t-20.5 -87q0 -79 44 -129.5t136 -50.5q11 0 37 2q11 1 27 6t23 7q43 15 63 15q15 0 23 -8q-25 -38 -74.5 -55.5t-97.5 -17.5q-64 0 -118 25zM157 581.5q-33 22.5 -33 58.5q1 7 21 7q8 0 14.5 -2.5t6.5 -6.5q0 -19 23 -29t55 -10q35 0 57 13.5t22 36.5q0 6 -1 9v4q0 11 15 11
q14 0 22.5 -7.5t8.5 -17.5q0 -38 -39 -63.5t-89 -25.5t-83 22.5z" />
    <glyph glyph-name="ecaron" unicode="&#x11b;" horiz-adv-x="448" 
d="M158 25q-54 25 -86 71t-32 106q0 67 25 125.5t73.5 94t113.5 35.5q68 0 103 -43.5t33 -109.5q0 -59 -46.5 -90t-118.5 -31q-11 0 -33 2q-36 4 -51 11t-15 28q0 7 4 10.5t16 3.5q13 0 46 -6q32 -6 57 -6q92 0 92 80q0 48 -17.5 76t-61.5 28q-48 0 -86 -25.5t-58.5 -66.5
t-20.5 -87q0 -79 44 -129.5t136 -50.5q11 0 37 2q11 1 27 6t23 7q43 15 63 15q15 0 23 -8q-25 -38 -74.5 -55.5t-97.5 -17.5q-64 0 -118 25zM230 527q-13 31 -28.5 43.5t-53.5 31.5q-30 15 -37 19q11 21 33 21q25 0 57.5 -20.5t59.5 -50.5q11 8 33 26q26 22 42 32.5t25 10.5
q12 0 15.5 -4t3.5 -13t-2 -13t-7.5 -9t-9.5 -9q-6 -6 -19.5 -15t-18.5 -12q-28 -18 -37 -27q-10 -9 -17 -12.5t-21 -3.5t-18 5z" />
    <glyph glyph-name="ecircumflex" unicode="&#xea;" horiz-adv-x="448" 
d="M158 25q-54 25 -86 71t-32 106q0 67 25 125.5t73.5 94t113.5 35.5q68 0 103 -43.5t33 -109.5q0 -59 -46.5 -90t-118.5 -31q-11 0 -33 2q-36 4 -51 11t-15 28q0 7 4 10.5t16 3.5q13 0 46 -6q32 -6 57 -6q92 0 92 80q0 48 -17.5 76t-61.5 28q-48 0 -86 -25.5t-58.5 -66.5
t-20.5 -87q0 -79 44 -129.5t136 -50.5q11 0 37 2q11 1 27 6t23 7q43 15 63 15q15 0 23 -8q-25 -38 -74.5 -55.5t-97.5 -17.5q-64 0 -118 25zM340 536q-10 13 -25 41q-26 48 -53 82q-12 -35 -34.5 -67.5t-47 -52.5t-41.5 -20q-19 0 -29 27l36 31q28 24 41 37.5t23 35t19 59.5
q3 9 16 9q16 0 23.5 -5t17.5 -22q8 -14 43 -53q6 -8 17 -21t16 -20q13 -20 17 -31t4 -24q0 -11 -5.5 -15t-16.5 -4t-21 13z" />
    <glyph glyph-name="uni1EBF" unicode="&#x1ebf;" horiz-adv-x="448" 
d="M158 25q-54 25 -86 71t-32 106q0 67 25 125.5t73.5 94t113.5 35.5q68 0 103 -43.5t33 -109.5q0 -59 -46.5 -90t-118.5 -31q-11 0 -33 2q-36 4 -51 11t-15 28q0 7 4 10.5t16 3.5q13 0 46 -6q32 -6 57 -6q92 0 92 80q0 48 -17.5 76t-61.5 28q-48 0 -86 -25.5t-58.5 -66.5
t-20.5 -87q0 -79 44 -129.5t136 -50.5q11 0 37 2q11 1 27 6t23 7q43 15 63 15q15 0 23 -8q-25 -38 -74.5 -55.5t-97.5 -17.5q-64 0 -118 25zM315 536q-10 13 -25 41q-26 48 -53 82q-12 -35 -34.5 -67.5t-47 -52.5t-41.5 -20q-19 0 -29 27l36 31q28 24 41 37.5t23 35t19 59.5
q3 9 16 9q16 0 23.5 -5t17.5 -22q8 -14 43 -53q6 -8 17 -21t16 -20q13 -20 17 -31t4 -24q0 -11 -5.5 -15t-16.5 -4t-21 13zM360.5 639q-4.5 4 -4.5 19q0 20 32 49t82 66l22 17q18 -9 18 -21t-14.5 -28t-48.5 -45q-40 -34 -67 -61q-15 0 -19.5 4z" />
    <glyph glyph-name="uni1EC7" unicode="&#x1ec7;" horiz-adv-x="517" 
d="M158 25q-54 25 -86 71t-32 106q0 67 25 125.5t73.5 94t113.5 35.5q68 0 103 -43.5t33 -109.5q0 -59 -46.5 -90t-118.5 -31q-11 0 -33 2q-36 4 -51 11t-15 28q0 7 4 10.5t16 3.5q13 0 46 -6q32 -6 57 -6q92 0 92 80q0 48 -17.5 76t-61.5 28q-48 0 -86 -25.5t-58.5 -66.5
t-20.5 -87q0 -79 44 -129.5t136 -50.5q11 0 37 2q11 1 27 6t23 7q43 15 63 15q15 0 23 -8q-25 -38 -74.5 -55.5t-97.5 -17.5q-64 0 -118 25zM247.5 -134q-10.5 17 -10.5 42q0 11 1 16q-1 16 18 16q14 0 28.5 -6.5t8.5 -9.5q10 -26 10 -41q0 -13 -6 -20.5t-17 -13.5
q-22 0 -32.5 17zM302 557q-10 13 -25 41q-26 48 -53 82q-12 -35 -34.5 -67.5t-47 -52.5t-41.5 -20q-19 0 -29 27l36 31q28 24 41 37.5t23 35t19 59.5q3 9 16 9q16 0 23.5 -5t17.5 -22q8 -14 43 -53q6 -8 17 -21t16 -20q13 -20 17 -31t4 -24q0 -11 -5.5 -15t-16.5 -4t-21 13z
" />
    <glyph glyph-name="uni1EC1" unicode="&#x1ec1;" horiz-adv-x="448" 
d="M158 25q-54 25 -86 71t-32 106q0 67 25 125.5t73.5 94t113.5 35.5q68 0 103 -43.5t33 -109.5q0 -59 -46.5 -90t-118.5 -31q-11 0 -33 2q-36 4 -51 11t-15 28q0 7 4 10.5t16 3.5q13 0 46 -6q32 -6 57 -6q92 0 92 80q0 48 -17.5 76t-61.5 28q-48 0 -86 -25.5t-58.5 -66.5
t-20.5 -87q0 -79 44 -129.5t136 -50.5q11 0 37 2q11 1 27 6t23 7q43 15 63 15q15 0 23 -8q-25 -38 -74.5 -55.5t-97.5 -17.5q-64 0 -118 25zM316 536q-10 13 -25 41q-26 48 -53 82q-12 -35 -34.5 -67.5t-47 -52.5t-41.5 -20q-19 0 -29 27l36 31q28 24 41 37.5t23 35t19 59.5
q3 9 16 9q16 0 23.5 -5t17.5 -22q8 -14 43 -53q6 -8 17 -21t16 -20q13 -20 17 -31t4 -24q0 -11 -5.5 -15t-16.5 -4t-21 13zM192 815q-15 14 -20 26t0 17q7 7 15 7q17 0 47 -27q2 -2 38 -30t36 -36q0 -18 -6 -23t-22 -5q-15 0 -88 71z" />
    <glyph glyph-name="uni1EC3" unicode="&#x1ec3;" horiz-adv-x="448" 
d="M158 25q-54 25 -86 71t-32 106q0 67 25 125.5t73.5 94t113.5 35.5q68 0 103 -43.5t33 -109.5q0 -59 -46.5 -90t-118.5 -31q-11 0 -33 2q-36 4 -51 11t-15 28q0 7 4 10.5t16 3.5q13 0 46 -6q32 -6 57 -6q92 0 92 80q0 48 -17.5 76t-61.5 28q-48 0 -86 -25.5t-58.5 -66.5
t-20.5 -87q0 -79 44 -129.5t136 -50.5q11 0 37 2q11 1 27 6t23 7q43 15 63 15q15 0 23 -8q-25 -38 -74.5 -55.5t-97.5 -17.5q-64 0 -118 25zM327 536q-10 13 -25 41q-26 48 -53 82q-12 -35 -34.5 -67.5t-47 -52.5t-41.5 -20q-19 0 -29 27l36 31q28 24 41 37.5t23 35t19 59.5
q3 9 16 9q16 0 23.5 -5t17.5 -22q8 -14 43 -53q6 -8 17 -21t16 -20q13 -20 17 -31t4 -24q0 -11 -5.5 -15t-16.5 -4t-21 13zM348 661q0 6 10 16l22 21q21 18 33 31.5t12 26.5q0 20 -9 31t-39 11q-13 0 -28 -7t-22 -19q-8 1 -12.5 7.5t-4.5 16.5q0 19 25.5 29t49.5 10
q46 0 65 -22t19 -49q0 -22 -11 -36t-33 -32q-10 -7 -18.5 -15t-12.5 -16q1 -5 -3.5 -12t-15.5 -7q-8 0 -20 6q-7 3 -7 9z" />
    <glyph glyph-name="uni1EC5" unicode="&#x1ec5;" horiz-adv-x="448" 
d="M158 25q-54 25 -86 71t-32 106q0 67 25 125.5t73.5 94t113.5 35.5q68 0 103 -43.5t33 -109.5q0 -59 -46.5 -90t-118.5 -31q-11 0 -33 2q-36 4 -51 11t-15 28q0 7 4 10.5t16 3.5q13 0 46 -6q32 -6 57 -6q92 0 92 80q0 48 -17.5 76t-61.5 28q-48 0 -86 -25.5t-58.5 -66.5
t-20.5 -87q0 -79 44 -129.5t136 -50.5q11 0 37 2q11 1 27 6t23 7q43 15 63 15q15 0 23 -8q-25 -38 -74.5 -55.5t-97.5 -17.5q-64 0 -118 25zM324 536q-10 13 -25 41q-26 48 -53 82q-12 -35 -34.5 -67.5t-47 -52.5t-41.5 -20q-19 0 -29 27l36 31q28 24 41 37.5t23 35t19 59.5
q3 9 16 9q16 0 23.5 -5t17.5 -22q8 -14 43 -53q6 -8 17 -21t16 -20q13 -20 17 -31t4 -24q0 -11 -5.5 -15t-16.5 -4t-21 13zM11 749q0 34 23 57t52 23q25 0 42.5 -10.5t36.5 -28.5q11 -10 18.5 -15t14.5 -5q14 0 18.5 6.5t10.5 29.5q1 5 7 28q29 3 25 -29t-19.5 -50
t-40.5 -18q-17 0 -28 7t-26 21t-25.5 20.5t-26.5 6.5q-22 0 -32.5 -13t-10.5 -39q0 -8 2 -26v-3q0 -11 -16 -8q-15 3 -20 17q-5 17 -5 29z" />
    <glyph glyph-name="uni0205" unicode="&#x205;" horiz-adv-x="448" 
d="M121 603q-14 12 -18.5 23t0.5 16q4 6 13 6q15 0 43 -24q2 -2 34 -27t32 -32q0 -17 -5.5 -21.5t-19.5 -4.5q-13 0 -79 64zM220 603q-14 12 -18.5 23t0.5 16q5 6 13 6q15 0 43 -24q2 -2 34 -27t32 -32q0 -17 -5.5 -21.5t-19.5 -4.5q-13 0 -79 64zM158 25q-54 25 -86 71
t-32 106q0 67 25 125.5t73.5 94t113.5 35.5q68 0 103 -43.5t33 -109.5q0 -59 -46.5 -90t-118.5 -31q-11 0 -33 2q-36 4 -51 11t-15 28q0 7 4 10.5t16 3.5q13 0 46 -6q32 -6 57 -6q92 0 92 80q0 48 -17.5 76t-61.5 28q-48 0 -86 -25.5t-58.5 -66.5t-20.5 -87q0 -79 44 -129.5
t136 -50.5q11 0 37 2q11 1 27 6t23 7q43 15 63 15q15 0 23 -8q-25 -38 -74.5 -55.5t-97.5 -17.5q-64 0 -118 25z" />
    <glyph glyph-name="edieresis" unicode="&#xeb;" horiz-adv-x="448" 
d="M158 25q-54 25 -86 71t-32 106q0 67 25 125.5t73.5 94t113.5 35.5q68 0 103 -43.5t33 -109.5q0 -59 -46.5 -90t-118.5 -31q-11 0 -33 2q-36 4 -51 11t-15 28q0 7 4 10.5t16 3.5q13 0 46 -6q32 -6 57 -6q92 0 92 80q0 48 -17.5 76t-61.5 28q-48 0 -86 -25.5t-58.5 -66.5
t-20.5 -87q0 -79 44 -129.5t136 -50.5q11 0 37 2q11 1 27 6t23 7q43 15 63 15q15 0 23 -8q-25 -38 -74.5 -55.5t-97.5 -17.5q-64 0 -118 25zM131 549.5q-14 16.5 -14 30.5q0 9 16.5 29t25.5 20q29 0 44 -17t15 -37q0 -13 -17.5 -27.5t-36.5 -14.5t-33 16.5zM287 549.5
q-13 16.5 -13 30.5q0 9 16.5 29t26.5 20q27 0 42 -17t15 -37q0 -13 -17.5 -27.5t-35.5 -14.5q-21 0 -34 16.5z" />
    <glyph glyph-name="edotaccent" unicode="&#x117;" horiz-adv-x="448" 
d="M158 25q-54 25 -86 71t-32 106q0 67 25 125.5t73.5 94t113.5 35.5q68 0 103 -43.5t33 -109.5q0 -59 -46.5 -90t-118.5 -31q-11 0 -33 2q-36 4 -51 11t-15 28q0 7 4 10.5t16 3.5q13 0 46 -6q32 -6 57 -6q92 0 92 80q0 48 -17.5 76t-61.5 28q-48 0 -86 -25.5t-58.5 -66.5
t-20.5 -87q0 -79 44 -129.5t136 -50.5q11 0 37 2q11 1 27 6t23 7q43 15 63 15q15 0 23 -8q-25 -38 -74.5 -55.5t-97.5 -17.5q-64 0 -118 25zM223.5 563q-10.5 17 -10.5 42q0 11 1 16q-1 16 18 16q14 0 28.5 -6.5t8.5 -9.5q10 -26 10 -41q0 -13 -6 -20.5t-17 -13.5
q-22 0 -32.5 17z" />
    <glyph glyph-name="uni1EB9" unicode="&#x1eb9;" horiz-adv-x="448" 
d="M158 25q-54 25 -86 71t-32 106q0 67 25 125.5t73.5 94t113.5 35.5q68 0 103 -43.5t33 -109.5q0 -59 -46.5 -90t-118.5 -31q-11 0 -33 2q-36 4 -51 11t-15 28q0 7 4 10.5t16 3.5q13 0 46 -6q32 -6 57 -6q92 0 92 80q0 48 -17.5 76t-61.5 28q-48 0 -86 -25.5t-58.5 -66.5
t-20.5 -87q0 -79 44 -129.5t136 -50.5q11 0 37 2q11 1 27 6t23 7q43 15 63 15q15 0 23 -8q-25 -38 -74.5 -55.5t-97.5 -17.5q-64 0 -118 25zM247.5 -134q-10.5 17 -10.5 42q0 11 1 16q-1 16 18 16q14 0 28.5 -6.5t8.5 -9.5q10 -26 10 -41q0 -13 -6 -20.5t-17 -13.5
q-22 0 -32.5 17z" />
    <glyph glyph-name="egrave" unicode="&#xe8;" horiz-adv-x="448" 
d="M158 25q-54 25 -86 71t-32 106q0 67 25 125.5t73.5 94t113.5 35.5q68 0 103 -43.5t33 -109.5q0 -59 -46.5 -90t-118.5 -31q-11 0 -33 2q-36 4 -51 11t-15 28q0 7 4 10.5t16 3.5q13 0 46 -6q32 -6 57 -6q92 0 92 80q0 48 -17.5 76t-61.5 28q-48 0 -86 -25.5t-58.5 -66.5
t-20.5 -87q0 -79 44 -129.5t136 -50.5q11 0 37 2q11 1 27 6t23 7q43 15 63 15q15 0 23 -8q-25 -38 -74.5 -55.5t-97.5 -17.5q-64 0 -118 25zM198 604q-15 14 -20 26t0 17q7 7 15 7q17 0 47 -27q2 -2 38 -30t36 -36q0 -18 -6 -23t-22 -5q-15 0 -88 71z" />
    <glyph glyph-name="uni1EBB" unicode="&#x1ebb;" horiz-adv-x="448" 
d="M158 25q-54 25 -86 71t-32 106q0 67 25 125.5t73.5 94t113.5 35.5q68 0 103 -43.5t33 -109.5q0 -59 -46.5 -90t-118.5 -31q-11 0 -33 2q-36 4 -51 11t-15 28q0 7 4 10.5t16 3.5q13 0 46 -6q32 -6 57 -6q92 0 92 80q0 48 -17.5 76t-61.5 28q-48 0 -86 -25.5t-58.5 -66.5
t-20.5 -87q0 -79 44 -129.5t136 -50.5q11 0 37 2q11 1 27 6t23 7q43 15 63 15q15 0 23 -8q-25 -38 -74.5 -55.5t-97.5 -17.5q-64 0 -118 25zM230 506q0 6 10 16l22 21q21 18 33 31.5t12 26.5q0 20 -9 31t-39 11q-13 0 -28 -7t-22 -19q-8 1 -12.5 7.5t-4.5 16.5q0 19 25.5 29
t49.5 10q46 0 65 -22t19 -49q0 -22 -11 -36t-33 -32q-10 -7 -18.5 -15t-12.5 -16q1 -5 -3.5 -12t-15.5 -7q-8 0 -20 6q-7 3 -7 9z" />
    <glyph glyph-name="uni0207" unicode="&#x207;" horiz-adv-x="448" 
d="M158 25q-54 25 -86 71t-32 106q0 67 25 125.5t73.5 94t113.5 35.5q68 0 103 -43.5t33 -109.5q0 -59 -46.5 -90t-118.5 -31q-11 0 -33 2q-36 4 -51 11t-15 28q0 7 4 10.5t16 3.5q13 0 46 -6q32 -6 57 -6q92 0 92 80q0 48 -17.5 76t-61.5 28q-48 0 -86 -25.5t-58.5 -66.5
t-20.5 -87q0 -79 44 -129.5t136 -50.5q11 0 37 2q11 1 27 6t23 7q43 15 63 15q15 0 23 -8q-25 -38 -74.5 -55.5t-97.5 -17.5q-64 0 -118 25zM337 621.5q39 -25.5 39 -63.5q0 -10 -7.5 -17t-20.5 -8h-3q-18 0 -15 15q1 3 1 9q0 23 -22 36.5t-57 13.5q-32 0 -55 -10t-23 -29
q0 -4 -6.5 -6.5t-14.5 -2.5q-20 0 -21 7q0 36 33 58.5t83 22.5t89 -25.5z" />
    <glyph glyph-name="emacron" unicode="&#x113;" horiz-adv-x="448" 
d="M158 25q-54 25 -86 71t-32 106q0 67 25 125.5t73.5 94t113.5 35.5q68 0 103 -43.5t33 -109.5q0 -59 -46.5 -90t-118.5 -31q-11 0 -33 2q-36 4 -51 11t-15 28q0 7 4 10.5t16 3.5q13 0 46 -6q32 -6 57 -6q92 0 92 80q0 48 -17.5 76t-61.5 28q-48 0 -86 -25.5t-58.5 -66.5
t-20.5 -87q0 -79 44 -129.5t136 -50.5q11 0 37 2q11 1 27 6t23 7q43 15 63 15q15 0 23 -8q-25 -38 -74.5 -55.5t-97.5 -17.5q-64 0 -118 25zM137 610q20 13 46.5 16.5t79.5 5.5q50 2 61 2q31 0 41 -6.5t10 -27.5q0 -20 -18 -20t-38 5q-5 1 -18 3t-25 2q-25 0 -42 -2.5
t-38 -7.5q-42 -10 -79 -10q0 27 20 40z" />
    <glyph glyph-name="eogonek" unicode="&#x119;" horiz-adv-x="448" 
d="M448.5 -116q-4.5 -11 -12.5 -14q-36 -14 -73 -14q-48 0 -79 23.5t-31 57.5q0 33 25 63h-2q-64 0 -118 25t-86 71t-32 106q0 67 25 125.5t73.5 94t113.5 35.5q68 0 103 -43.5t33 -109.5q0 -59 -46.5 -90t-118.5 -31q-11 0 -33 2q-36 4 -51 11t-15 28q0 7 4 10.5t16 3.5
q13 0 46 -6q32 -6 57 -6q92 0 92 80q0 48 -17.5 76t-61.5 28q-48 0 -86 -25.5t-58.5 -66.5t-20.5 -87q0 -79 44 -129.5t136 -50.5q11 0 37 2q11 1 27 6t23 7q43 15 63 15q15 0 23 -8q-18 -28 -54 -46l1 -1q-93 -36 -93 -88q0 -20 14.5 -33.5t48.5 -13.5q32 0 86 15
q2 -11 -2.5 -22z" />
    <glyph glyph-name="uni1EBD" unicode="&#x1ebd;" horiz-adv-x="448" 
d="M158 25q-54 25 -86 71t-32 106q0 67 25 125.5t73.5 94t113.5 35.5q68 0 103 -43.5t33 -109.5q0 -59 -46.5 -90t-118.5 -31q-11 0 -33 2q-36 4 -51 11t-15 28q0 7 4 10.5t16 3.5q13 0 46 -6q32 -6 57 -6q92 0 92 80q0 48 -17.5 76t-61.5 28q-48 0 -86 -25.5t-58.5 -66.5
t-20.5 -87q0 -79 44 -129.5t136 -50.5q11 0 37 2q11 1 27 6t23 7q43 15 63 15q15 0 23 -8q-25 -38 -74.5 -55.5t-97.5 -17.5q-64 0 -118 25zM72 582q0 35 25.5 60t58.5 25q27 0 49 -8.5t57 -32.5q34 -23 63 -23q25 0 43 17t27 46q12 1 18 -3.5t6 -13.5q0 -3 -2 -11
q-11 -30 -24.5 -45.5t-35.5 -22.5q-17 -5 -30 -5q-20 0 -38 7.5t-47 23.5q-25 14 -42 21t-34 7q-29 0 -42 -13t-13 -40q0 -7 2 -25v-3q0 -6 -5.5 -8t-10.5 0q-15 3 -20 17q-5 13 -5 30z" />
    <glyph glyph-name="uni0259" unicode="&#x259;" horiz-adv-x="427" 
d="M269 429q54 -25 86 -71t32 -106q0 -67 -25 -125.5t-73.5 -94t-113.5 -35.5q-68 0 -103 43.5t-33 109.5q0 59 46.5 90t118.5 31q11 0 33 -2q36 -4 51 -11t15 -28q0 -7 -4 -10.5t-16 -3.5q-13 0 -46 6q-32 6 -57 6q-92 0 -92 -80q0 -48 17.5 -76t61.5 -28q48 0 86 25.5
t58.5 66.5t20.5 87q0 79 -44 129.5t-136 50.5q-11 0 -37 -2q-11 -1 -27 -6t-23 -7q-43 -15 -63 -15q-15 0 -23 8q25 38 74.5 55.5t97.5 17.5q64 0 118 -25z" />
    <glyph glyph-name="f" unicode="f" horiz-adv-x="464" 
d="M372 681.5q41 -22.5 66.5 -57.5t25.5 -70h-22q-15 0 -26.5 9t-29.5 29q-26 28 -46.5 42t-52.5 14q-55 0 -92 -50.5t-44 -118.5q-3 -31 -3 -62q0 -51 7 -94q13 -2 61 -5l79 -5q11 0 43 -2q10 0 14.5 -4.5t4.5 -15.5q0 -27 -61 -27q-53 0 -133 19q11 -45 28 -82.5t44 -89.5
q19 -37 28 -57.5t9 -34.5q0 -11 -7 -15.5t-20 -4.5q-27 0 -50.5 57.5t-53.5 159.5l-18 59q-22 -2 -55 -12q-3 -1 -20.5 -5.5t-31.5 -4.5q-16 0 -16 19q0 25 26 33.5t49 10t29 2.5q-2 38 -2 68q0 129 39.5 223.5t144.5 94.5q45 0 86 -22.5z" />
    <glyph glyph-name="g" unicode="g" horiz-adv-x="450" 
d="M67.5 -440.5q-56.5 47.5 -67.5 159.5q-1 17 5.5 26t17.5 9q12 0 21 -9.5t8 -25.5q0 -66 45.5 -104.5t116.5 -38.5q41 0 72.5 30t48.5 83.5t17 122.5q0 121 3 235l1 51q-39 -41 -70.5 -60t-75.5 -19q-77 0 -113.5 41.5t-36.5 127.5q0 49 26.5 102.5t73 89.5t105.5 36
q20 0 37 -4q64 -14 86 -119t22 -272q0 -46 -2 -122l-1 -95q0 -57 -18 -124.5t-63 -117.5t-118 -50q-84 0 -140.5 47.5zM307 120.5q38 35.5 38 104.5q0 9 -2 31q-5 46 -23.5 72.5t-57.5 26.5q-41 0 -75 -29t-53 -71.5t-19 -79.5t22 -63.5t58 -26.5q74 0 112 35.5z" />
    <glyph glyph-name="gbreve" unicode="&#x11f;" horiz-adv-x="450" 
d="M67.5 -440.5q-56.5 47.5 -67.5 159.5q-1 17 5.5 26t17.5 9q12 0 21 -9.5t8 -25.5q0 -66 45.5 -104.5t116.5 -38.5q41 0 72.5 30t48.5 83.5t17 122.5q0 121 3 235l1 51q-39 -41 -70.5 -60t-75.5 -19q-77 0 -113.5 41.5t-36.5 127.5q0 49 26.5 102.5t73 89.5t105.5 36
q20 0 37 -4q64 -14 86 -119t22 -272q0 -46 -2 -122l-1 -95q0 -57 -18 -124.5t-63 -117.5t-118 -50q-84 0 -140.5 47.5zM307 120.5q38 35.5 38 104.5q0 9 -2 31q-5 46 -23.5 72.5t-57.5 26.5q-41 0 -75 -29t-53 -71.5t-19 -79.5t22 -63.5t58 -26.5q74 0 112 35.5zM135 545.5
q-33 22.5 -33 58.5q1 7 21 7q8 0 14.5 -2.5t6.5 -6.5q0 -19 23 -29t55 -10q35 0 57 13.5t22 36.5q0 6 -1 9v4q0 11 15 11q14 0 22.5 -7.5t8.5 -17.5q0 -38 -39 -63.5t-89 -25.5t-83 22.5z" />
    <glyph glyph-name="gcaron" unicode="&#x1e7;" horiz-adv-x="450" 
d="M67.5 -440.5q-56.5 47.5 -67.5 159.5q-1 17 5.5 26t17.5 9q12 0 21 -9.5t8 -25.5q0 -66 45.5 -104.5t116.5 -38.5q41 0 72.5 30t48.5 83.5t17 122.5q0 121 3 235l1 51q-39 -41 -70.5 -60t-75.5 -19q-77 0 -113.5 41.5t-36.5 127.5q0 49 26.5 102.5t73 89.5t105.5 36
q20 0 37 -4q64 -14 86 -119t22 -272q0 -46 -2 -122l-1 -95q0 -57 -18 -124.5t-63 -117.5t-118 -50q-84 0 -140.5 47.5zM307 120.5q38 35.5 38 104.5q0 9 -2 31q-5 46 -23.5 72.5t-57.5 26.5q-41 0 -75 -29t-53 -71.5t-19 -79.5t22 -63.5t58 -26.5q74 0 112 35.5zM208 491
q-13 31 -28.5 43.5t-53.5 31.5q-30 15 -37 19q11 21 33 21q25 0 57.5 -20.5t59.5 -50.5q11 8 33 26q26 22 42 32.5t25 10.5q12 0 15.5 -4t3.5 -13t-2 -13t-7.5 -9t-9.5 -9q-6 -6 -19.5 -15t-18.5 -12q-28 -18 -37 -27q-10 -9 -17 -12.5t-21 -3.5t-18 5z" />
    <glyph glyph-name="gcircumflex" unicode="&#x11d;" horiz-adv-x="450" 
d="M67.5 -440.5q-56.5 47.5 -67.5 159.5q-1 17 5.5 26t17.5 9q12 0 21 -9.5t8 -25.5q0 -66 45.5 -104.5t116.5 -38.5q41 0 72.5 30t48.5 83.5t17 122.5q0 121 3 235l1 51q-39 -41 -70.5 -60t-75.5 -19q-77 0 -113.5 41.5t-36.5 127.5q0 49 26.5 102.5t73 89.5t105.5 36
q20 0 37 -4q64 -14 86 -119t22 -272q0 -46 -2 -122l-1 -95q0 -57 -18 -124.5t-63 -117.5t-118 -50q-84 0 -140.5 47.5zM307 120.5q38 35.5 38 104.5q0 9 -2 31q-5 46 -23.5 72.5t-57.5 26.5q-41 0 -75 -29t-53 -71.5t-19 -79.5t22 -63.5t58 -26.5q74 0 112 35.5zM318 500
q-10 13 -25 41q-26 48 -53 82q-12 -35 -34.5 -67.5t-47 -52.5t-41.5 -20q-19 0 -29 27l36 31q28 24 41 37.5t23 35t19 59.5q3 9 16 9q16 0 23.5 -5t17.5 -22q8 -14 43 -53q6 -8 17 -21t16 -20q13 -20 17 -31t4 -24q0 -11 -5.5 -15t-16.5 -4t-21 13z" />
    <glyph glyph-name="gcommaaccent" unicode="&#x123;" horiz-adv-x="450" 
d="M67.5 -440.5q-56.5 47.5 -67.5 159.5q-1 17 5.5 26t17.5 9q12 0 21 -9.5t8 -25.5q0 -66 45.5 -104.5t116.5 -38.5q41 0 72.5 30t48.5 83.5t17 122.5q0 121 3 235l1 51q-39 -41 -70.5 -60t-75.5 -19q-77 0 -113.5 41.5t-36.5 127.5q0 49 26.5 102.5t73 89.5t105.5 36
q20 0 37 -4q64 -14 86 -119t22 -272q0 -46 -2 -122l-1 -95q0 -57 -18 -124.5t-63 -117.5t-118 -50q-84 0 -140.5 47.5zM307 120.5q38 35.5 38 104.5q0 9 -2 31q-5 46 -23.5 72.5t-57.5 26.5q-41 0 -75 -29t-53 -71.5t-19 -79.5t22 -63.5t58 -26.5q74 0 112 35.5zM266 747
q0 -20 -9 -47q-14 -38 -14 -80l1 -38h3q11 0 14 -4.5t3 -13.5q0 -48 -35 -48q-25 0 -33.5 22.5t-8.5 57.5l1 33q0 54 17 95t41 41q20 0 20 -18z" />
    <glyph glyph-name="gdotaccent" unicode="&#x121;" horiz-adv-x="450" 
d="M67.5 -440.5q-56.5 47.5 -67.5 159.5q-1 17 5.5 26t17.5 9q12 0 21 -9.5t8 -25.5q0 -66 45.5 -104.5t116.5 -38.5q41 0 72.5 30t48.5 83.5t17 122.5q0 121 3 235l1 51q-39 -41 -70.5 -60t-75.5 -19q-77 0 -113.5 41.5t-36.5 127.5q0 49 26.5 102.5t73 89.5t105.5 36
q20 0 37 -4q64 -14 86 -119t22 -272q0 -46 -2 -122l-1 -95q0 -57 -18 -124.5t-63 -117.5t-118 -50q-84 0 -140.5 47.5zM307 120.5q38 35.5 38 104.5q0 9 -2 31q-5 46 -23.5 72.5t-57.5 26.5q-41 0 -75 -29t-53 -71.5t-19 -79.5t22 -63.5t58 -26.5q74 0 112 35.5zM201.5 527
q-10.5 17 -10.5 42q0 11 1 16q-1 16 18 16q14 0 28.5 -6.5t8.5 -9.5q10 -26 10 -41q0 -13 -6 -20.5t-17 -13.5q-22 0 -32.5 17z" />
    <glyph glyph-name="h" unicode="h" horiz-adv-x="475" 
d="M139.5 40q-5.5 39 -14.5 134q-14 156 -31.5 286t-43.5 225q-2 8 6 14t22 6q7 0 11 -1q25 -68 35.5 -120t19.5 -128l5 -39q60 36 110 36q91 0 129.5 -82.5t38.5 -234.5q0 -58 -7 -97.5t-17 -39.5q-13 0 -29 19v33l1 109q0 31 -2 77q-3 78 -31.5 118t-97.5 40
q-46 0 -86 -34q0 -38 3.5 -78t8.5 -78q7 -53 10.5 -93.5t3.5 -89.5q-6 -12 -13.5 -16t-20.5 -4q-5 -1 -10.5 38z" />
    <glyph glyph-name="hbar" unicode="&#x127;" horiz-adv-x="475" 
d="M388.5 370.5q38.5 -82.5 38.5 -234.5q0 -58 -7 -97.5t-17 -39.5q-13 0 -29 19v33l1 109q0 31 -2 77q-3 78 -31.5 118t-97.5 40q-46 0 -86 -34q0 -38 3.5 -78t8.5 -78q7 -53 10.5 -93.5t3.5 -89.5q-6 -12 -13.5 -16t-20.5 -4q-5 -1 -10 38t-14 133q-23 235 -43 356
q-61 -13 -98 -13q0 35 91 53q-14 75 -26 116q-2 8 6 14t22 6q7 0 11 -1q23 -62 37 -127l69 6q11 1 31 1q40 0 61 -8t21 -19q0 -20 -19 -20q-15 0 -32 5q-24 6 -48 6q-31 0 -76 -9q7 -38 14 -102q0 -6 2 -20q60 36 110 36q91 0 129.5 -82.5z" />
    <glyph glyph-name="hcircumflex" unicode="&#x125;" horiz-adv-x="475" 
d="M139.5 40q-5.5 39 -14.5 134q-14 156 -31.5 286t-43.5 225q-2 8 6 14t22 6q7 0 11 -1q25 -68 35.5 -120t19.5 -128l5 -39q60 36 110 36q91 0 129.5 -82.5t38.5 -234.5q0 -58 -7 -97.5t-17 -39.5q-13 0 -29 19v33l1 109q0 31 -2 77q-3 78 -31.5 118t-97.5 40
q-46 0 -86 -34q0 -38 3.5 -78t8.5 -78q7 -53 10.5 -93.5t3.5 -89.5q-6 -12 -13.5 -16t-20.5 -4q-5 -1 -10.5 38zM363 549q-10 13 -25 41q-26 48 -53 82q-12 -35 -34.5 -67.5t-47 -52.5t-41.5 -20q-19 0 -29 27l36 31q28 24 41 37.5t23 35t19 59.5q3 9 16 9q16 0 23.5 -5
t17.5 -22q8 -14 43 -53q6 -8 17 -21t16 -20q13 -20 17 -31t4 -24q0 -11 -5.5 -15t-16.5 -4t-21 13z" />
    <glyph glyph-name="i" unicode="i" horiz-adv-x="180" 
d="M70 66.5q-14 67.5 -18 116.5t-11 155q-1 17 -1 44q0 34 5.5 47t18.5 13q11 0 17.5 -4.5t11.5 -14.5l-1 -40q0 -64 6.5 -121t20.5 -153q8 -42 11 -69q2 -14 -5 -27.5t-18 -13.5q-23 0 -37 67.5zM49.5 566q-10.5 17 -10.5 42q0 11 1 16q-1 16 18 16q14 0 28.5 -6.5
t8.5 -9.5q10 -26 10 -41q0 -13 -6 -20.5t-17 -13.5q-22 0 -32.5 17z" />
    <glyph glyph-name="dotlessi" unicode="&#x131;" horiz-adv-x="180" 
d="M70 66.5q-14 67.5 -18 116.5t-11 155q-1 17 -1 44q0 34 5.5 47t18.5 13q11 0 17.5 -4.5t11.5 -14.5l-1 -40q0 -64 6.5 -121t20.5 -153q8 -42 11 -69q2 -14 -5 -27.5t-18 -13.5q-23 0 -37 67.5z" />
    <glyph glyph-name="iacute" unicode="&#xed;" horiz-adv-x="180" 
d="M70 66.5q-14 67.5 -18 116.5t-11 155q-1 17 -1 44q0 34 5.5 47t18.5 13q11 0 17.5 -4.5t11.5 -14.5l-1 -40q0 -64 6.5 -121t20.5 -153q8 -42 11 -69q2 -14 -5 -27.5t-18 -13.5q-23 0 -37 67.5zM-0.5 528q-4.5 4 -4.5 19q0 20 32 49t82 66l22 17q18 -9 18 -21t-14.5 -28
t-48.5 -45q-40 -34 -67 -61q-15 0 -19.5 4z" />
    <glyph glyph-name="ibreve" unicode="&#x12d;" horiz-adv-x="180" 
d="M70 66.5q-14 67.5 -18 116.5t-11 155q-1 17 -1 44q0 34 5.5 47t18.5 13q11 0 17.5 -4.5t11.5 -14.5l-1 -40q0 -64 6.5 -121t20.5 -153q8 -42 11 -69q2 -14 -5 -27.5t-18 -13.5q-23 0 -37 67.5zM4.5 584.5q-24.5 22.5 -24.5 58.5v7q32 0 32 -9q0 -18 15 -27t36 -9
q23 0 41 10.5t18 28.5q0 9 -4 17q4 9 17 9q14 0 21.5 -6t7.5 -13q0 -38 -30 -63.5t-68 -25.5q-37 0 -61.5 22.5z" />
    <glyph glyph-name="icircumflex" unicode="&#xee;" horiz-adv-x="180" 
d="M70 66.5q-14 67.5 -18 116.5t-11 155q-1 17 -1 44q0 34 5.5 47t18.5 13q11 0 17.5 -4.5t11.5 -14.5l-1 -40q0 -64 6.5 -121t20.5 -153q8 -42 11 -69q2 -14 -5 -27.5t-18 -13.5q-23 0 -37 67.5zM166 539q-10 13 -25 41q-26 48 -53 82q-12 -35 -34.5 -67.5t-47 -52.5
t-41.5 -20q-19 0 -29 27l36 31q28 24 41 37.5t23 35t19 59.5q3 9 16 9q16 0 23.5 -5t17.5 -22q8 -14 43 -53q6 -8 17 -21t16 -20q13 -20 17 -31t4 -24q0 -11 -5.5 -15t-16.5 -4t-21 13z" />
    <glyph glyph-name="uni0209" unicode="&#x209;" horiz-adv-x="180" 
d="M-53 606q-14 12 -18.5 23t0.5 16q5 6 13 6q15 0 43 -24q2 -2 34 -27t32 -32q0 -17 -5.5 -21.5t-19.5 -4.5q-13 0 -79 64zM46 606q-14 12 -18.5 23t0.5 16q5 6 13 6q15 0 43 -24q2 -2 34 -27t32 -32q0 -17 -5.5 -21.5t-19.5 -4.5q-13 0 -79 64zM70 66.5
q-14 67.5 -18 116.5t-11 155q-1 17 -1 44q0 34 5.5 47t18.5 13q11 0 17.5 -4.5t11.5 -14.5l-1 -40q0 -64 6.5 -121t20.5 -153q8 -42 11 -69q2 -14 -5 -27.5t-18 -13.5q-23 0 -37 67.5z" />
    <glyph glyph-name="idieresis" unicode="&#xef;" horiz-adv-x="180" 
d="M70 66.5q-14 67.5 -18 116.5t-11 155q-1 17 -1 44q0 34 5.5 47t18.5 13q11 0 17.5 -4.5t11.5 -14.5l-1 -40q0 -64 6.5 -121t20.5 -153q8 -42 11 -69q2 -14 -5 -27.5t-18 -13.5q-23 0 -37 67.5zM-43 552.5q-14 16.5 -14 30.5q0 9 16.5 29t25.5 20q29 0 44 -17t15 -37
q0 -13 -17.5 -27.5t-36.5 -14.5t-33 16.5zM113 552.5q-13 16.5 -13 30.5q0 9 16.5 29t26.5 20q27 0 42 -17t15 -37q0 -13 -17.5 -27.5t-35.5 -14.5q-21 0 -34 16.5z" />
    <glyph glyph-name="i.loclTRK" horiz-adv-x="180" 
d="M70 66.5q-14 67.5 -18 116.5t-11 155q-1 17 -1 44q0 34 5.5 47t18.5 13q11 0 17.5 -4.5t11.5 -14.5l-1 -40q0 -64 6.5 -121t20.5 -153q8 -42 11 -69q2 -14 -5 -27.5t-18 -13.5q-23 0 -37 67.5zM49.5 566q-10.5 17 -10.5 42q0 11 1 16q-1 16 18 16q14 0 28.5 -6.5
t8.5 -9.5q10 -26 10 -41q0 -13 -6 -20.5t-17 -13.5q-22 0 -32.5 17z" />
    <glyph glyph-name="uni1ECB" unicode="&#x1ecb;" horiz-adv-x="180" 
d="M70 66.5q-14 67.5 -18 116.5t-11 155q-1 17 -1 44q0 34 5.5 47t18.5 13q11 0 17.5 -4.5t11.5 -14.5l-1 -40q0 -64 6.5 -121t20.5 -153q8 -42 11 -69q2 -14 -5 -27.5t-18 -13.5q-23 0 -37 67.5zM49.5 566q-10.5 17 -10.5 42q0 11 1 16q-1 16 18 16q14 0 28.5 -6.5
t8.5 -9.5q10 -26 10 -41q0 -13 -6 -20.5t-17 -13.5q-22 0 -32.5 17zM95.5 -154q-10.5 17 -10.5 42q0 11 1 16q-1 16 18 16q14 0 28.5 -6.5t8.5 -9.5q10 -26 10 -41q0 -13 -6 -20.5t-17 -13.5q-22 0 -32.5 17z" />
    <glyph glyph-name="igrave" unicode="&#xec;" horiz-adv-x="180" 
d="M70 66.5q-14 67.5 -18 116.5t-11 155q-1 17 -1 44q0 34 5.5 47t18.5 13q11 0 17.5 -4.5t11.5 -14.5l-1 -40q0 -64 6.5 -121t20.5 -153q8 -42 11 -69q2 -14 -5 -27.5t-18 -13.5q-23 0 -37 67.5zM24 607q-15 14 -20 26t0 17q7 7 15 7q17 0 47 -27q2 -2 38 -30t36 -36
q0 -18 -6 -23t-22 -5q-15 0 -88 71z" />
    <glyph glyph-name="uni1EC9" unicode="&#x1ec9;" horiz-adv-x="180" 
d="M70 66.5q-14 67.5 -18 116.5t-11 155q-1 17 -1 44q0 34 5.5 47t18.5 13q11 0 17.5 -4.5t11.5 -14.5l-1 -40q0 -64 6.5 -121t20.5 -153q8 -42 11 -69q2 -14 -5 -27.5t-18 -13.5q-23 0 -37 67.5zM56 509q0 6 10 16l22 21q21 18 33 31.5t12 26.5q0 20 -9 31t-39 11
q-13 0 -28 -7t-22 -19q-8 1 -12.5 7.5t-4.5 16.5q0 19 25.5 29t49.5 10q46 0 65 -22t19 -49q0 -22 -11 -36t-33 -32q-10 -7 -18.5 -15t-12.5 -16q1 -5 -3.5 -12t-15.5 -7q-8 0 -20 6q-7 3 -7 9z" />
    <glyph glyph-name="uni020B" unicode="&#x20b;" horiz-adv-x="180" 
d="M70 66.5q-14 67.5 -18 116.5t-11 155q-1 17 -1 44q0 34 5.5 47t18.5 13q11 0 17.5 -4.5t11.5 -14.5l-1 -40q0 -64 6.5 -121t20.5 -153q8 -42 11 -69q2 -14 -5 -27.5t-18 -13.5q-23 0 -37 67.5zM163 624.5q39 -25.5 39 -63.5q0 -10 -7.5 -17t-20.5 -8h-3q-18 0 -15 15
q1 3 1 9q0 23 -22 36.5t-57 13.5q-32 0 -55 -10t-23 -29q0 -4 -6.5 -6.5t-14.5 -2.5q-20 0 -21 7q0 36 33 58.5t83 22.5t89 -25.5z" />
    <glyph glyph-name="imacron" unicode="&#x12b;" horiz-adv-x="180" 
d="M70 66.5q-14 67.5 -18 116.5t-11 155q-1 17 -1 44q0 34 5.5 47t18.5 13q11 0 17.5 -4.5t11.5 -14.5l-1 -40q0 -64 6.5 -121t20.5 -153q8 -42 11 -69q2 -14 -5 -27.5t-18 -13.5q-23 0 -37 67.5zM-37 613q20 13 46.5 16.5t79.5 5.5q50 2 61 2q31 0 41 -6.5t10 -27.5
q0 -20 -18 -20t-38 5q-5 1 -18 3t-25 2q-25 0 -42 -2.5t-38 -7.5q-42 -10 -79 -10q0 27 20 40z" />
    <glyph glyph-name="iogonek" unicode="&#x12f;" horiz-adv-x="180" 
d="M49.5 566q-10.5 17 -10.5 42q0 11 1 16q-1 16 18 16q14 0 28.5 -6.5t8.5 -9.5q10 -26 10 -41q0 -13 -6 -20.5t-17 -13.5q-22 0 -32.5 17zM173.5 -140q-4.5 -11 -12.5 -14q-36 -14 -73 -14q-48 0 -79 23.5t-31 57.5q0 38 30 69.5t73 45.5q-27 71 -40 310q-1 17 -1 44
q0 34 5.5 47t18.5 13q11 0 17.5 -4.5t11.5 -14.5l-1 -40q0 -64 6.5 -121t20.5 -153q8 -42 11 -69q1 -9 -2 -19.5t-9 -16.5l1 -2q-93 -36 -93 -88q0 -20 14.5 -33.5t48.5 -13.5q32 0 86 15q2 -11 -2.5 -22z" />
    <glyph glyph-name="itilde" unicode="&#x129;" horiz-adv-x="180" 
d="M70 66.5q-14 67.5 -18 116.5t-11 155q-1 17 -1 44q0 34 5.5 47t18.5 13q11 0 17.5 -4.5t11.5 -14.5l-1 -40q0 -64 6.5 -121t20.5 -153q8 -42 11 -69q2 -14 -5 -27.5t-18 -13.5q-23 0 -37 67.5zM-67 584q0 34 23 57t52 23q25 0 42.5 -10.5t36.5 -28.5q11 -10 18.5 -15
t14.5 -5q14 0 18.5 6.5t10.5 29.5q1 5 7 28q29 3 25 -29t-19.5 -50t-40.5 -18q-17 0 -28 7t-26 21t-25.5 20.5t-26.5 6.5q-22 0 -32.5 -13t-10.5 -39q0 -8 2 -26v-3q0 -11 -16 -8q-15 3 -20 17q-5 17 -5 29z" />
    <glyph glyph-name="j" unicode="j" horiz-adv-x="200" 
d="M-40 -348.5q-57 69.5 -70 199.5q0 3 -0.5 14t4 18.5t14.5 9.5q5 -1 9.5 -13t10.5 -41q13 -57 29 -99t49 -75t85 -33q42 0 58.5 23t18.5 73l1 42q0 132 -23.5 272.5t-66.5 324.5q1 4 2 12.5t6.5 11.5t18.5 3q22 -13 48.5 -128.5t45 -267t18.5 -263.5q0 -81 -32 -117
t-83 -36q-86 0 -143 69.5zM76.5 504q-10.5 17 -10.5 42q0 11 1 16q-1 16 18 16q14 0 28.5 -6.5t8.5 -9.5q10 -26 10 -41q0 -13 -6 -20.5t-17 -13.5q-22 0 -32.5 17z" />
    <glyph glyph-name="uni0237" unicode="&#x237;" horiz-adv-x="200" 
d="M-40 -348.5q-57 69.5 -70 199.5q0 3 -0.5 14t4 18.5t14.5 9.5q5 -1 9.5 -13t10.5 -41q13 -57 29 -99t49 -75t85 -33q42 0 58.5 23t18.5 73l1 42q0 132 -23.5 272.5t-66.5 324.5q1 4 2 12.5t6.5 11.5t18.5 3q22 -13 48.5 -128.5t45 -267t18.5 -263.5q0 -81 -32 -117
t-83 -36q-86 0 -143 69.5z" />
    <glyph glyph-name="jcircumflex" unicode="&#x135;" horiz-adv-x="200" 
d="M-40 -348.5q-57 69.5 -70 199.5q0 3 -0.5 14t4 18.5t14.5 9.5q5 -1 9.5 -13t10.5 -41q13 -57 29 -99t49 -75t85 -33q42 0 58.5 23t18.5 73l1 42q0 132 -23.5 272.5t-66.5 324.5q1 4 2 12.5t6.5 11.5t18.5 3q22 -13 48.5 -128.5t45 -267t18.5 -263.5q0 -81 -32 -117
t-83 -36q-86 0 -143 69.5zM193 477q-10 13 -25 41q-26 48 -53 82q-12 -35 -34.5 -67.5t-47 -52.5t-41.5 -20q-19 0 -29 27l36 31q28 24 41 37.5t23 35t19 59.5q3 9 16 9q16 0 23.5 -5t17.5 -22q8 -14 43 -53q6 -8 17 -21t16 -20q13 -20 17 -31t4 -24q0 -11 -5.5 -15
t-16.5 -4t-21 13z" />
    <glyph glyph-name="k" unicode="k" horiz-adv-x="438" 
d="M90 28q0 6 4.5 25t4.5 42v49v72q-5 71 -25 173q-22 112 -34 208q3 17 16 17q17 0 41 -89.5t49 -295.5q20 50 55 101.5t74 85.5t68 34q12 0 15.5 -7t2.5 -20q-59 -52 -119 -121t-60 -107q0 -23 38 -52.5t94 -52t105 -25.5q19 -3 19 -23q0 -34 -64 -34q-51 0 -111.5 41
t-104.5 86q-3 -17 -4 -29.5t-2 -21.5q-4 -44 -10.5 -64.5t-26.5 -20.5q-25 0 -25 29z" />
    <glyph glyph-name="kcommaaccent" unicode="&#x137;" horiz-adv-x="438" 
d="M90 28q0 6 4.5 25t4.5 42v49v72q-5 71 -25 173q-22 112 -34 208q3 17 16 17q17 0 41 -89.5t49 -295.5q20 50 55 101.5t74 85.5t68 34q12 0 15.5 -7t2.5 -20q-59 -52 -119 -121t-60 -107q0 -23 38 -52.5t94 -52t105 -25.5q19 -3 19 -23q0 -34 -64 -34q-51 0 -111.5 41
t-104.5 86q-3 -17 -4 -29.5t-2 -21.5q-4 -44 -10.5 -64.5t-26.5 -20.5q-25 0 -25 29zM175 -333q0 20 9 47q14 38 14 80l-1 38h-3q-11 0 -14 4.5t-3 13.5q0 48 35 48q25 0 33.5 -22.5t8.5 -57.5l-1 -33q0 -54 -17 -95t-41 -41q-20 0 -20 18z" />
    <glyph glyph-name="kgreenlandic" unicode="&#x138;" horiz-adv-x="403" 
d="M48 28q0 6 4.5 25t4.5 42v49v72q-1 44 -8 128q-2 14 -8 95q7 18 19 18q16 0 28.5 -51t15.5 -157q9 4 42 51q50 67 88.5 108.5t66.5 41.5q12 0 15.5 -7t2.5 -20q-59 -52 -119 -121t-60 -107q0 -23 38 -52.5t94 -52t105 -25.5q19 -3 19 -23q0 -34 -64 -34q-51 0 -111.5 41
t-104.5 86q-3 -17 -4 -29.5t-2 -21.5q-4 -44 -10.5 -64.5t-26.5 -20.5q-25 0 -25 29z" />
    <glyph glyph-name="l" unicode="l" horiz-adv-x="168" 
d="M61.5 265.5q-11.5 149.5 -11.5 289.5q0 70 3 124q0 13 20 13q16 0 20.5 -8t4.5 -25q0 -162 6 -276.5t16 -246.5l8 -115q1 -16 -17 -16q-6 0 -16 2q-22 109 -33.5 258.5z" />
    <glyph glyph-name="lacute" unicode="&#x13a;" horiz-adv-x="168" 
d="M61.5 265.5q-11.5 149.5 -11.5 289.5q0 70 3 124q0 13 20 13q16 0 20.5 -8t4.5 -25q0 -162 6 -276.5t16 -246.5l8 -115q1 -16 -17 -16q-6 0 -16 2q-22 109 -33.5 258.5zM22.5 833q-4.5 4 -4.5 19q0 20 32 49t82 66l22 17q18 -9 18 -21t-14.5 -28t-48.5 -45
q-40 -34 -67 -61q-15 0 -19.5 4z" />
    <glyph glyph-name="lcaron" unicode="&#x13e;" horiz-adv-x="204" 
d="M61.5 265.5q-11.5 149.5 -11.5 289.5q0 70 3 124q0 13 20 13q16 0 20.5 -8t4.5 -25q0 -162 6 -276.5t16 -246.5l8 -115q1 -16 -17 -16q-6 0 -16 2q-22 109 -33.5 258.5zM164.5 492q10.5 26 10.5 65q0 24 -6 55q-1 4 -1 13q0 19 10.5 33.5t31.5 14.5q13 0 18.5 -17.5
t5.5 -51.5q0 -32 -11 -68t-27 -60.5t-30 -24.5q-12 0 -12 11q0 4 10.5 30z" />
    <glyph glyph-name="lcommaaccent" unicode="&#x13c;" horiz-adv-x="168" 
d="M61.5 265.5q-11.5 149.5 -11.5 289.5q0 70 3 124q0 13 20 13q16 0 20.5 -8t4.5 -25q0 -162 6 -276.5t16 -246.5l8 -115q1 -16 -17 -16q-6 0 -16 2q-22 109 -33.5 258.5zM56 -333q0 20 9 47q14 38 14 80l-1 38h-3q-11 0 -14 4.5t-3 13.5q0 48 35 48q25 0 33.5 -22.5
t8.5 -57.5l-1 -33q0 -54 -17 -95t-41 -41q-20 0 -20 18z" />
    <glyph glyph-name="ldot" unicode="&#x140;" horiz-adv-x="236" 
d="M61.5 265.5q-11.5 149.5 -11.5 289.5q0 70 3 124q0 13 20 13q16 0 20.5 -8t4.5 -25q0 -162 6 -276.5t16 -246.5l8 -115q1 -16 -17 -16q-6 0 -16 2q-22 109 -33.5 258.5zM149 357.5q-16 19.5 -16 36.5q0 18 11 38.5t40 20.5q34 0 53 -20.5t19 -43.5q0 -15 -22 -33t-45 -18
q-24 0 -40 19.5z" />
    <glyph glyph-name="lslash" unicode="&#x142;" horiz-adv-x="227" 
d="M150 487q4 -149 19 -345q6 -67 9 -121q1 -16 -17 -16q-6 0 -16 2q-17 87 -28 202t-15 234q-37 -33 -67.5 -52.5t-39.5 -15.5q-7 4 -11 11.5t-4 16.5q0 8 3 14q15 33 113 109l4 4q0 85 3 149q0 13 20 13q16 0 20.5 -8t4.5 -25q0 -59 1 -86q38 36 56.5 51t31.5 14
q10 -9 10 -18q0 -8 -5 -17.5l-7 -13.5q-17 -34 -85 -102z" />
    <glyph glyph-name="m" unicode="m" horiz-adv-x="776" 
d="M671 7.5q-3 8.5 -3 26.5q1 7 1 16.5t1 14.5q6 48 6 91q0 95 -32 148.5t-101 53.5q-38 0 -75.5 -19t-61 -47t-23.5 -51q5 -29 18 -71q1 -5 8.5 -31t7.5 -47l1 -19q0 -16 -16 -16q-20 0 -32.5 26t-27.5 81q-15 54 -29 89t-38 60t-61 25q-51 0 -79.5 -35t-28.5 -86
q0 -34 6 -90q5 -42 5 -72q0 -18 -4 -27t-19 -9q-20 0 -28 13.5t-8 41.5q0 55 -6 133q-1 10 -4 51.5t-1 83.5l1 33q6 6 14 6q11 0 18.5 -13.5t7.5 -40.5q15 26 44 47t61 21q55 0 91.5 -22.5t66.5 -72.5q28 51 84.5 87t116.5 36q62 0 103.5 -47t61 -113t19.5 -122
q0 -50 -8.5 -96t-38.5 -46q-15 0 -18 8.5z" />
    <glyph glyph-name="n" unicode="n" horiz-adv-x="493" 
d="M119 -8q-8 0 -17 8q-33 49 -47.5 171t-14.5 210q0 14 20 14q30 0 30 -33q0 -9 -1 -15q9 21 34 43t58 37t67 15q107 0 156 -94.5t49 -234.5q0 -48 -10 -76.5t-27 -28.5q-18 0 -18 11q7 53 7 104q0 129 -45 195.5t-119 66.5q-36 0 -69.5 -18t-54 -50t-20.5 -73q0 -46 5 -80
t16 -82q12 -47 17 -86q-14 -4 -16 -4z" />
    <glyph glyph-name="nacute" unicode="&#x144;" horiz-adv-x="493" 
d="M119 -8q-8 0 -17 8q-33 49 -47.5 171t-14.5 210q0 14 20 14q30 0 30 -33q0 -9 -1 -15q9 21 34 43t58 37t67 15q107 0 156 -94.5t49 -234.5q0 -48 -10 -76.5t-27 -28.5q-18 0 -18 11q7 53 7 104q0 129 -45 195.5t-119 66.5q-36 0 -69.5 -18t-54 -50t-20.5 -73q0 -46 5 -80
t16 -82q12 -47 17 -86q-14 -4 -16 -4zM149.5 538q-4.5 4 -4.5 19q0 20 32 49t82 66l22 17q18 -9 18 -21t-14.5 -28t-48.5 -45q-40 -34 -67 -61q-15 0 -19.5 4z" />
    <glyph glyph-name="napostrophe" unicode="&#x149;" horiz-adv-x="460" 
d="M0 467q0 20 9 47q14 38 14 80l-1 38h-3q-11 0 -14 4.5t-3 13.5q0 48 35 48q25 0 33.5 -22.5t8.5 -57.5l-1 -33q0 -54 -17 -95t-41 -41q-20 0 -20 18zM119 -8q-8 0 -17 8q-33 49 -47.5 171t-14.5 210q0 14 20 14q30 0 30 -33q0 -9 -1 -15q9 21 34 43t58 37t67 15
q107 0 156 -94.5t49 -234.5q0 -48 -10 -76.5t-27 -28.5q-18 0 -18 11q7 53 7 104q0 129 -45 195.5t-119 66.5q-36 0 -69.5 -18t-54 -50t-20.5 -73q0 -46 5 -80t16 -82q12 -47 17 -86q-14 -4 -16 -4z" />
    <glyph glyph-name="ncaron" unicode="&#x148;" horiz-adv-x="493" 
d="M119 -8q-8 0 -17 8q-33 49 -47.5 171t-14.5 210q0 14 20 14q30 0 30 -33q0 -9 -1 -15q9 21 34 43t58 37t67 15q107 0 156 -94.5t49 -234.5q0 -48 -10 -76.5t-27 -28.5q-18 0 -18 11q7 53 7 104q0 129 -45 195.5t-119 66.5q-36 0 -69.5 -18t-54 -50t-20.5 -73q0 -46 5 -80
t16 -82q12 -47 17 -86q-14 -4 -16 -4zM206 540q-13 31 -28.5 43.5t-53.5 31.5q-30 15 -37 19q11 21 33 21q25 0 57.5 -20.5t59.5 -50.5q11 8 33 26q26 22 42 32.5t25 10.5q12 0 15.5 -4t3.5 -13t-2 -13t-7.5 -9t-9.5 -9q-6 -6 -19.5 -15t-18.5 -12q-28 -18 -37 -27
q-10 -9 -17 -12.5t-21 -3.5t-18 5z" />
    <glyph glyph-name="ncommaaccent" unicode="&#x146;" horiz-adv-x="493" 
d="M119 -8q-8 0 -17 8q-33 49 -47.5 171t-14.5 210q0 14 20 14q30 0 30 -33q0 -9 -1 -15q9 21 34 43t58 37t67 15q107 0 156 -94.5t49 -234.5q0 -48 -10 -76.5t-27 -28.5q-18 0 -18 11q7 53 7 104q0 129 -45 195.5t-119 66.5q-36 0 -69.5 -18t-54 -50t-20.5 -73q0 -46 5 -80
t16 -82q12 -47 17 -86q-14 -4 -16 -4zM223 -333q0 20 9 47q14 38 14 80l-1 38h-3q-11 0 -14 4.5t-3 13.5q0 48 35 48q25 0 33.5 -22.5t8.5 -57.5l-1 -33q0 -54 -17 -95t-41 -41q-20 0 -20 18z" />
    <glyph glyph-name="eng" unicode="&#x14b;" horiz-adv-x="460" 
d="M105.5 -376.5q-44.5 36.5 -45.5 117.5q0 21 9 36t22 15q9 0 12 -4.5t3 -14.5q0 -7 -1.5 -19.5t-1.5 -24.5q0 -43 29.5 -70.5t91.5 -27.5q67 0 106 86.5t45 240.5q4 90 4 143q0 130 -29 207t-111 77q-62 0 -103 -39t-41 -102q0 -29 5 -59t16 -81q17 -76 17 -108
q-6 -1 -15 -1q-25 0 -37 28t-19.5 97t-23.5 261v1q0 13 20 13q32 0 32 -41q0 -12 -3 -27q25 54 60.5 84.5t98.5 30.5q93 0 141.5 -83t48.5 -241q0 -36 -1 -55q-9 -183 -31 -284.5t-65.5 -146.5t-120.5 -45q-68 0 -112.5 36.5z" />
    <glyph glyph-name="ntilde" unicode="&#xf1;" horiz-adv-x="493" 
d="M119 -8q-8 0 -17 8q-33 49 -47.5 171t-14.5 210q0 14 20 14q30 0 30 -33q0 -9 -1 -15q9 21 34 43t58 37t67 15q107 0 156 -94.5t49 -234.5q0 -48 -10 -76.5t-27 -28.5q-18 0 -18 11q7 53 7 104q0 129 -45 195.5t-119 66.5q-36 0 -69.5 -18t-54 -50t-20.5 -73q0 -46 5 -80
t16 -82q12 -47 17 -86q-14 -4 -16 -4zM48 595q0 35 25.5 60t58.5 25q27 0 49 -8.5t57 -32.5q34 -23 63 -23q25 0 43 17t27 46q12 1 18 -3.5t6 -13.5q0 -3 -2 -11q-11 -30 -24.5 -45.5t-35.5 -22.5q-17 -5 -30 -5q-20 0 -38 7.5t-47 23.5q-25 14 -42 21t-34 7q-29 0 -42 -13
t-13 -40q0 -7 2 -25v-3q0 -6 -5.5 -8t-10.5 0q-15 3 -20 17q-5 13 -5 30z" />
    <glyph glyph-name="o" unicode="o" horiz-adv-x="520" 
d="M140.5 25.5q-47.5 26.5 -74 74t-26.5 108.5q0 100 73.5 149t180.5 49q49 0 91.5 -24t68.5 -69t26 -104q0 -64 -33 -111.5t-86.5 -73t-113.5 -25.5q-59 0 -106.5 26.5zM377 98q48 42 48 123q0 55 -37.5 95t-104.5 40q-45 0 -91 -17t-76 -51t-30 -82q0 -40 20 -74.5
t54.5 -55t75.5 -20.5q93 0 141 42z" />
    <glyph glyph-name="oacute" unicode="&#xf3;" horiz-adv-x="520" 
d="M140.5 25.5q-47.5 26.5 -74 74t-26.5 108.5q0 100 73.5 149t180.5 49q49 0 91.5 -24t68.5 -69t26 -104q0 -64 -33 -111.5t-86.5 -73t-113.5 -25.5q-59 0 -106.5 26.5zM377 98q48 42 48 123q0 55 -37.5 95t-104.5 40q-45 0 -91 -17t-76 -51t-30 -82q0 -40 20 -74.5
t54.5 -55t75.5 -20.5q93 0 141 42zM186.5 478q-4.5 4 -4.5 19q0 20 32 49t82 66l22 17q18 -9 18 -21t-14.5 -28t-48.5 -45q-40 -34 -67 -61q-15 0 -19.5 4z" />
    <glyph glyph-name="obreve" unicode="&#x14f;" horiz-adv-x="520" 
d="M140.5 25.5q-47.5 26.5 -74 74t-26.5 108.5q0 100 73.5 149t180.5 49q49 0 91.5 -24t68.5 -69t26 -104q0 -64 -33 -111.5t-86.5 -73t-113.5 -25.5q-59 0 -106.5 26.5zM377 98q48 42 48 123q0 55 -37.5 95t-104.5 40q-45 0 -91 -17t-76 -51t-30 -82q0 -40 20 -74.5
t54.5 -55t75.5 -20.5q93 0 141 42zM170 534.5q-33 22.5 -33 58.5q1 7 21 7q8 0 14.5 -2.5t6.5 -6.5q0 -19 23 -29t55 -10q35 0 57 13.5t22 36.5q0 6 -1 9v4q0 11 15 11q14 0 22.5 -7.5t8.5 -17.5q0 -38 -39 -63.5t-89 -25.5t-83 22.5z" />
    <glyph glyph-name="ocircumflex" unicode="&#xf4;" horiz-adv-x="520" 
d="M140.5 25.5q-47.5 26.5 -74 74t-26.5 108.5q0 100 73.5 149t180.5 49q49 0 91.5 -24t68.5 -69t26 -104q0 -64 -33 -111.5t-86.5 -73t-113.5 -25.5q-59 0 -106.5 26.5zM377 98q48 42 48 123q0 55 -37.5 95t-104.5 40q-45 0 -91 -17t-76 -51t-30 -82q0 -40 20 -74.5
t54.5 -55t75.5 -20.5q93 0 141 42zM353 489q-10 13 -25 41q-26 48 -53 82q-12 -35 -34.5 -67.5t-47 -52.5t-41.5 -20q-19 0 -29 27l36 31q28 24 41 37.5t23 35t19 59.5q3 9 16 9q16 0 23.5 -5t17.5 -22q8 -14 43 -53q6 -8 17 -21t16 -20q13 -20 17 -31t4 -24q0 -11 -5.5 -15
t-16.5 -4t-21 13z" />
    <glyph glyph-name="uni1ED1" unicode="&#x1ed1;" horiz-adv-x="520" 
d="M140.5 25.5q-47.5 26.5 -74 74t-26.5 108.5q0 100 73.5 149t180.5 49q49 0 91.5 -24t68.5 -69t26 -104q0 -64 -33 -111.5t-86.5 -73t-113.5 -25.5q-59 0 -106.5 26.5zM377 98q48 42 48 123q0 55 -37.5 95t-104.5 40q-45 0 -91 -17t-76 -51t-30 -82q0 -40 20 -74.5
t54.5 -55t75.5 -20.5q93 0 141 42zM328 489q-10 13 -25 41q-26 48 -53 82q-12 -35 -34.5 -67.5t-47 -52.5t-41.5 -20q-19 0 -29 27l36 31q28 24 41 37.5t23 35t19 59.5q3 9 16 9q16 0 23.5 -5t17.5 -22q8 -14 43 -53q6 -8 17 -21t16 -20q13 -20 17 -31t4 -24q0 -11 -5.5 -15
t-16.5 -4t-21 13zM373.5 592q-4.5 4 -4.5 19q0 20 32 49t82 66l22 17q18 -9 18 -21t-14.5 -28t-48.5 -45q-40 -34 -67 -61q-15 0 -19.5 4z" />
    <glyph glyph-name="uni1ED9" unicode="&#x1ed9;" horiz-adv-x="487" 
d="M140.5 25.5q-47.5 26.5 -74 74t-26.5 108.5q0 100 73.5 149t180.5 49q49 0 91.5 -24t68.5 -69t26 -104q0 -64 -33 -111.5t-86.5 -73t-113.5 -25.5q-59 0 -106.5 26.5zM377 98q48 42 48 123q0 55 -37.5 95t-104.5 40q-45 0 -91 -17t-76 -51t-30 -82q0 -40 20 -74.5
t54.5 -55t75.5 -20.5q93 0 141 42zM242.5 -154q-10.5 17 -10.5 42q0 11 1 16q-1 16 18 16q14 0 28.5 -6.5t8.5 -9.5q10 -26 10 -41q0 -13 -6 -20.5t-17 -13.5q-22 0 -32.5 17zM338 462q-10 13 -25 41q-26 48 -53 82q-12 -35 -34.5 -67.5t-47 -52.5t-41.5 -20q-19 0 -29 27
l36 31q28 24 41 37.5t23 35t19 59.5q3 9 16 9q16 0 23.5 -5t17.5 -22q8 -14 43 -53q6 -8 17 -21t16 -20q13 -20 17 -31t4 -24q0 -11 -5.5 -15t-16.5 -4t-21 13z" />
    <glyph glyph-name="uni1ED3" unicode="&#x1ed3;" horiz-adv-x="520" 
d="M140.5 25.5q-47.5 26.5 -74 74t-26.5 108.5q0 100 73.5 149t180.5 49q49 0 91.5 -24t68.5 -69t26 -104q0 -64 -33 -111.5t-86.5 -73t-113.5 -25.5q-59 0 -106.5 26.5zM377 98q48 42 48 123q0 55 -37.5 95t-104.5 40q-45 0 -91 -17t-76 -51t-30 -82q0 -40 20 -74.5
t54.5 -55t75.5 -20.5q93 0 141 42zM329 489q-10 13 -25 41q-26 48 -53 82q-12 -35 -34.5 -67.5t-47 -52.5t-41.5 -20q-19 0 -29 27l36 31q28 24 41 37.5t23 35t19 59.5q3 9 16 9q16 0 23.5 -5t17.5 -22q8 -14 43 -53q6 -8 17 -21t16 -20q13 -20 17 -31t4 -24q0 -11 -5.5 -15
t-16.5 -4t-21 13zM205 768q-15 14 -20 26t0 17q7 7 15 7q17 0 47 -27q2 -2 38 -30t36 -36q0 -18 -6 -23t-22 -5q-15 0 -88 71z" />
    <glyph glyph-name="uni1ED5" unicode="&#x1ed5;" horiz-adv-x="520" 
d="M140.5 25.5q-47.5 26.5 -74 74t-26.5 108.5q0 100 73.5 149t180.5 49q49 0 91.5 -24t68.5 -69t26 -104q0 -64 -33 -111.5t-86.5 -73t-113.5 -25.5q-59 0 -106.5 26.5zM377 98q48 42 48 123q0 55 -37.5 95t-104.5 40q-45 0 -91 -17t-76 -51t-30 -82q0 -40 20 -74.5
t54.5 -55t75.5 -20.5q93 0 141 42zM340 489q-10 13 -25 41q-26 48 -53 82q-12 -35 -34.5 -67.5t-47 -52.5t-41.5 -20q-19 0 -29 27l36 31q28 24 41 37.5t23 35t19 59.5q3 9 16 9q16 0 23.5 -5t17.5 -22q8 -14 43 -53q6 -8 17 -21t16 -20q13 -20 17 -31t4 -24q0 -11 -5.5 -15
t-16.5 -4t-21 13zM361 614q0 6 10 16l22 21q21 18 33 31.5t12 26.5q0 20 -9 31t-39 11q-13 0 -28 -7t-22 -19q-8 1 -12.5 7.5t-4.5 16.5q0 19 25.5 29t49.5 10q46 0 65 -22t19 -49q0 -22 -11 -36t-33 -32q-10 -7 -18.5 -15t-12.5 -16q1 -5 -3.5 -12t-15.5 -7q-8 0 -20 6
q-7 3 -7 9z" />
    <glyph glyph-name="uni1ED7" unicode="&#x1ed7;" horiz-adv-x="520" 
d="M140.5 25.5q-47.5 26.5 -74 74t-26.5 108.5q0 100 73.5 149t180.5 49q49 0 91.5 -24t68.5 -69t26 -104q0 -64 -33 -111.5t-86.5 -73t-113.5 -25.5q-59 0 -106.5 26.5zM377 98q48 42 48 123q0 55 -37.5 95t-104.5 40q-45 0 -91 -17t-76 -51t-30 -82q0 -40 20 -74.5
t54.5 -55t75.5 -20.5q93 0 141 42zM337 489q-10 13 -25 41q-26 48 -53 82q-12 -35 -34.5 -67.5t-47 -52.5t-41.5 -20q-19 0 -29 27l36 31q28 24 41 37.5t23 35t19 59.5q3 9 16 9q16 0 23.5 -5t17.5 -22q8 -14 43 -53q6 -8 17 -21t16 -20q13 -20 17 -31t4 -24q0 -11 -5.5 -15
t-16.5 -4t-21 13zM24 702q0 34 23 57t52 23q25 0 42.5 -10.5t36.5 -28.5q11 -10 18.5 -15t14.5 -5q14 0 18.5 6.5t10.5 29.5q1 5 7 28q29 3 25 -29t-19.5 -50t-40.5 -18q-17 0 -28 7t-26 21t-25.5 20.5t-26.5 6.5q-22 0 -32.5 -13t-10.5 -39q0 -8 2 -26v-3q0 -11 -16 -8
q-15 3 -20 17q-5 17 -5 29z" />
    <glyph glyph-name="uni020D" unicode="&#x20d;" horiz-adv-x="520" 
d="M134 556q-14 12 -18.5 23t0.5 16q4 6 13 6q15 0 43 -24q2 -2 34 -27t32 -32q0 -17 -5.5 -21.5t-19.5 -4.5q-13 0 -79 64zM233 556q-14 12 -18.5 23t0.5 16q4 6 13 6q15 0 43 -24q2 -2 34 -27t32 -32q0 -17 -5.5 -21.5t-19.5 -4.5q-13 0 -79 64zM140.5 25.5
q-47.5 26.5 -74 74t-26.5 108.5q0 100 73.5 149t180.5 49q49 0 91.5 -24t68.5 -69t26 -104q0 -64 -33 -111.5t-86.5 -73t-113.5 -25.5q-59 0 -106.5 26.5zM377 98q48 42 48 123q0 55 -37.5 95t-104.5 40q-45 0 -91 -17t-76 -51t-30 -82q0 -40 20 -74.5t54.5 -55t75.5 -20.5
q93 0 141 42z" />
    <glyph glyph-name="odieresis" unicode="&#xf6;" horiz-adv-x="520" 
d="M140.5 25.5q-47.5 26.5 -74 74t-26.5 108.5q0 100 73.5 149t180.5 49q49 0 91.5 -24t68.5 -69t26 -104q0 -64 -33 -111.5t-86.5 -73t-113.5 -25.5q-59 0 -106.5 26.5zM377 98q48 42 48 123q0 55 -37.5 95t-104.5 40q-45 0 -91 -17t-76 -51t-30 -82q0 -40 20 -74.5
t54.5 -55t75.5 -20.5q93 0 141 42zM144 502.5q-14 16.5 -14 30.5q0 9 16.5 29t25.5 20q29 0 44 -17t15 -37q0 -13 -17.5 -27.5t-36.5 -14.5t-33 16.5zM300 502.5q-13 16.5 -13 30.5q0 9 16.5 29t26.5 20q27 0 42 -17t15 -37q0 -13 -17.5 -27.5t-35.5 -14.5q-21 0 -34 16.5z
" />
    </font>
</defs>
</svg>
